<?xml version="1.0" standalone="no"?>
<!DOCTYPE svg PUBLIC "-//W3C//DTD SVG 1.1//EN" "http://www.w3.org/Graphics/SVG/1.1/DTD/svg11.dtd" >
<svg xmlns="http://www.w3.org/2000/svg" xmlns:xlink="http://www.w3.org/1999/xlink" version="1.1">
<metadata>
Created by FontForge 20190801 at Mon Sep 16 02:09:18 2019
 By Jimmy Wärting
Copyright \(c\) 2018 by Alexander Slobzheninov. All rights reserved.
</metadata>
<defs>
<font id="Agrandir-GrandItalic" horiz-adv-x="768" >
  <font-face 
    font-family="Agrandir Grand Italic"
    font-weight="400"
    font-style="italic"
    font-stretch="extra-expanded"
    units-per-em="1000"
    panose-1="0 0 5 7 0 0 0 0 0 0"
    ascent="750"
    descent="-250"
    x-height="505"
    cap-height="705"
    bbox="-236 -243.977 1420 968"
    underline-thickness="38"
    underline-position="-120"
    slope="-9"
    stemh="69"
    stemv="76"
    unicode-range="U+000D-F6C3"
  />
<missing-glyph horiz-adv-x="0" 
 />
    <glyph glyph-name=".notdef" horiz-adv-x="0" 
 />
    <glyph glyph-name="NULL" horiz-adv-x="938" 
d="M79 0l112 705h701l-112 -705h-701zM157 55h563l94 594h-563z" />
    <glyph glyph-name="NULL" horiz-adv-x="938" 
d="M79 0l112 705h701l-112 -705h-701zM157 55h563l94 594h-563z" />
    <glyph glyph-name="CR" unicode="&#xd;" horiz-adv-x="57" 
 />
    <glyph glyph-name="space" unicode=" " horiz-adv-x="299" 
 />
    <glyph glyph-name="A" unicode="A" horiz-adv-x="818" 
d="M-35 0l466 705h100l241 -705h-87l-60 169h-456l-113 -169h-91zM215 242h387l-130 389h-2z" />
    <glyph glyph-name="B" unicode="B" horiz-adv-x="792" 
d="M12 0l112 705h467c125 0 201 -67 201 -166c0 -86 -59 -149 -138 -175v-2c65 -22 109 -73 109 -144c0 -130 -113 -218 -274 -218h-477zM159 400h379c93 0 172 58 172 137c0 58 -41 96 -129 96h-385zM107 72h379c122 0 196 63 196 145c0 70 -60 112 -154 112h-381z" />
    <glyph glyph-name="C" unicode="C" horiz-adv-x="939" 
d="M454 -25c-244 0 -403 134 -403 325c0 247 221 430 481 430c181 0 318 -94 349 -228l-78 -24c-27 110 -128 179 -281 179c-212 0 -387 -149 -387 -348c0 -158 127 -261 322 -261c171 0 325 96 377 219l75 -29c-67 -153 -253 -263 -455 -263z" />
    <glyph glyph-name="D" unicode="D" horiz-adv-x="879" 
d="M12 0l112 705h376c230 0 358 -106 358 -297c0 -262 -166 -408 -465 -408h-381zM107 73h293c241 0 376 119 376 333c0 145 -102 226 -283 226h-297z" />
    <glyph glyph-name="E" unicode="E" horiz-adv-x="725" 
d="M12 0l112 705h642l-12 -73h-561l-37 -233h521l-11 -71h-521l-40 -255h570l-11 -73h-652z" />
    <glyph glyph-name="F" unicode="F" horiz-adv-x="673" 
d="M12 0l112 705h605l-12 -73h-522l-38 -243h462l-11 -71h-462l-51 -318h-83z" />
    <glyph glyph-name="G" unicode="G" horiz-adv-x="982" 
d="M451 -25c-242 0 -400 133 -400 324c0 253 233 431 502 431c174 0 309 -89 344 -209l-78 -26c-30 98 -135 162 -276 162c-218 0 -408 -149 -408 -350c0 -155 131 -259 330 -259c206 0 387 120 411 273l-565 -3l11 71h646l-62 -389h-70l15 152h-1
c-89 -110 -233 -177 -399 -177z" />
    <glyph glyph-name="G.alt1" horiz-adv-x="990" 
d="M463 -25c-249 0 -412 133 -412 325c0 252 234 430 501 430c174 0 310 -88 345 -208l-79 -26c-31 98 -134 161 -276 161c-216 0 -408 -149 -408 -350c0 -155 132 -259 332 -259c206 0 387 120 412 273l-543 -3l11 71l626 -2c-1 -10 -2 -21 -4 -33
c-35 -222 -239 -379 -505 -379z" />
    <glyph glyph-name="H" unicode="H" horiz-adv-x="820" 
d="M12 0l112 705h83l-47 -300h549l48 300h83l-112 -705h-83l53 333h-550l-53 -333h-83z" />
    <glyph glyph-name="I" unicode="I" horiz-adv-x="187" 
d="M12 0l112 705h83l-112 -705h-83z" />
    <glyph glyph-name="J" unicode="J" horiz-adv-x="582" 
d="M254 -20c-139 0 -241 91 -247 214l77 26c0 -97 71 -167 167 -167c111 0 183 63 203 182l74 470h84l-77 -483c-26 -157 -127 -242 -281 -242z" />
    <glyph glyph-name="K" unicode="K" horiz-adv-x="715" 
d="M12 0l112 705h83l-55 -345h1l493 345h128l-434 -301l332 -404h-115l-284 356l-135 -94l-43 -262h-83z" />
    <glyph glyph-name="K.alt1" horiz-adv-x="705" 
d="M12 0l112 705h83l-50 -310l1 -1l480 311h136l-532 -341l430 -364h-134l-388 335h-1l-54 -335h-83z" />
    <glyph glyph-name="L" unicode="L" horiz-adv-x="582" 
d="M12 0l112 705h83l-100 -634h440l-11 -71h-524z" />
    <glyph glyph-name="M" unicode="M" horiz-adv-x="1020" 
d="M12 0l112 705h125l230 -629h2l431 629h128l-112 -705h-83l98 612l-2 1l-419 -613h-102l-225 612h-2l-98 -612h-83z" />
    <glyph glyph-name="N" unicode="N" horiz-adv-x="822" 
d="M12 0l112 705h111l423 -618h2l98 618h84l-112 -705h-111l-423 618h-2l-99 -618h-83z" />
    <glyph glyph-name="O" unicode="O" horiz-adv-x="997" 
d="M459 -25c-248 0 -408 131 -408 322c0 262 238 433 519 433c247 0 408 -131 408 -323c0 -262 -238 -432 -519 -432zM465 48c234 0 429 139 429 352c0 156 -127 257 -331 257c-234 0 -429 -139 -429 -352c0 -156 127 -257 331 -257z" />
    <glyph glyph-name="P" unicode="P" horiz-adv-x="780" 
d="M12 0l112 705h456c143 0 222 -70 222 -199c0 -155 -105 -247 -288 -247h-378l-41 -259h-83zM147 332h365c132 0 208 64 208 171c0 85 -56 129 -157 129h-369z" />
    <glyph glyph-name="Q" unicode="Q" horiz-adv-x="997" 
d="M492 -24l-4 -31c-11 -69 35 -101 103 -101c69 0 133 33 176 102l57 -45c-47 -83 -136 -131 -243 -131c-119 0 -197 67 -177 172l5 35c-219 16 -358 142 -358 320c0 262 238 433 519 433c247 0 408 -131 408 -323c0 -252 -219 -418 -486 -431zM134 305
c0 -156 127 -257 331 -257c234 0 429 139 429 352c0 156 -127 257 -331 257c-234 0 -429 -139 -429 -352z" />
    <glyph glyph-name="R" unicode="R" horiz-adv-x="849" 
d="M694 -20c-59 0 -88 39 -99 87l-36 143c-13 51 -46 83 -96 83h-321l-47 -293h-83l112 705h471c143 0 225 -66 225 -178c0 -118 -108 -203 -236 -220v-1c32 -14 47 -44 55 -79l33 -136c6 -25 15 -41 38 -41c24 0 51 19 73 45l34 -52c-34 -37 -76 -63 -123 -63zM154 366h381
c106 0 201 67 201 157c0 68 -55 109 -154 109h-387z" />
    <glyph glyph-name="R.alt1" horiz-adv-x="814" 
d="M12 0l112 705h471c144 0 225 -65 225 -178c0 -90 -64 -160 -155 -196v-1c68 -18 93 -70 82 -133l-32 -197h-83l32 202c8 61 -20 91 -83 91h-439l-47 -293h-83zM154 366h381c106 0 201 67 201 157c0 69 -54 109 -154 109h-387z" />
    <glyph glyph-name="R.alt2" horiz-adv-x="808" 
d="M12 0l112 705h471c144 0 224 -65 224 -178c0 -122 -100 -206 -226 -220l142 -307h-96l-132 293h-365l-47 -293h-83zM154 366h381c111 0 201 66 201 157c0 69 -54 109 -154 109h-387z" />
    <glyph glyph-name="S" unicode="S" 
d="M390 -25c-202 0 -350 96 -378 232l76 37c22 -118 144 -195 308 -195c150 0 256 52 256 138c0 60 -61 97 -204 126l-108 23c-160 32 -229 85 -229 182c0 145 145 212 305 212c166 0 286 -72 325 -174l-71 -41c-32 84 -126 141 -258 141s-216 -50 -216 -128
c0 -58 49 -92 165 -115l104 -22c189 -38 271 -98 271 -200c0 -148 -165 -216 -346 -216z" />
    <glyph glyph-name="T" unicode="T" horiz-adv-x="727" 
d="M282 0l100 632h-316l12 73h715l-12 -73h-316l-100 -632h-83z" />
    <glyph glyph-name="U" unicode="U" horiz-adv-x="816" 
d="M369 -25c-240 0 -355 117 -321 322l66 408h84l-65 -416c-24 -153 57 -241 235 -241c183 0 305 88 329 247l66 410h82l-66 -415c-32 -202 -179 -315 -410 -315z" />
    <glyph glyph-name="V" unicode="V" horiz-adv-x="802" 
d="M316 0l-241 705h90l209 -616h1l403 616h94l-464 -705h-92z" />
    <glyph glyph-name="W" unicode="W" horiz-adv-x="1306" 
d="M254 0l-180 705h89l159 -624h2l337 624h126l140 -624h1l358 624h91l-402 -705h-117l-143 624h-2l-343 -624h-116z" />
    <glyph glyph-name="X" unicode="X" horiz-adv-x="792" 
d="M-35 0l390 366l-267 339h108l224 -288l316 288h113l-381 -340l277 -365h-108l-233 310l-328 -310h-111z" />
    <glyph glyph-name="Y" unicode="Y" horiz-adv-x="753" 
d="M296 0l42 262l-264 443h103l211 -366h1l329 366h106l-403 -443l-42 -262h-83z" />
    <glyph glyph-name="Z" unicode="Z" horiz-adv-x="745" 
d="M-26 0l15 97l697 535h-602l12 73h697l-15 -97l-697 -536h621l-11 -72h-717z" />
    <glyph glyph-name="a" unicode="a" 
d="M333 -20c-187 0 -305 92 -305 233c0 190 176 312 380 312c130 0 231 -53 262 -132h1l27 112h68l-80 -505h-66l11 110h-1c-55 -80 -171 -130 -297 -130zM343 47c165 0 312 96 312 240c0 103 -92 171 -238 171c-168 0 -312 -92 -312 -237c0 -108 90 -174 238 -174z" />
    <glyph glyph-name="a.alt1" horiz-adv-x="693" 
d="M233 -20c-151 0 -234 45 -234 134c0 124 152 168 320 183l230 18c27 2 44 14 48 37c10 65 -60 104 -190 104s-254 -54 -311 -119l-43 52c68 77 210 136 354 136c155 0 282 -65 263 -188l-54 -337h-68l10 106h-1c-62 -76 -187 -126 -324 -126zM241 45
c171 0 323 85 335 190l3 20l-259 -21c-117 -11 -243 -37 -244 -115c-1 -49 54 -74 165 -74z" />
    <glyph glyph-name="a.alt2" horiz-adv-x="811" 
d="M232 -20c-151 0 -233 48 -233 135c0 121 159 168 319 182l230 18c27 2 44 14 48 36c11 66 -60 105 -190 105s-254 -54 -311 -119l-43 52c69 77 211 136 354 136c155 0 282 -65 263 -188l-38 -239c-5 -29 10 -48 37 -48s59 18 74 39l36 -52c-27 -35 -80 -57 -125 -57
c-70 0 -108 50 -99 107l3 19h-1c-62 -76 -187 -126 -324 -126zM241 45c171 0 323 85 335 190l3 20l-259 -21c-117 -11 -243 -37 -244 -115c-1 -49 54 -74 165 -74z" />
    <glyph glyph-name="b" unicode="b" 
d="M358 -20c-130 0 -232 53 -262 132h-1l-27 -112h-66l116 735h77l-55 -338h1c57 79 172 128 296 128c186 0 304 -93 304 -233c0 -191 -176 -312 -383 -312zM352 47c178 0 312 104 312 235c0 107 -93 176 -239 176c-164 0 -312 -97 -312 -240c0 -103 92 -171 239 -171z" />
    <glyph glyph-name="c" unicode="c" horiz-adv-x="743" 
d="M327 -20c-185 0 -300 91 -300 232c0 189 171 313 374 313c151 0 249 -68 278 -166l-67 -27c-28 81 -97 129 -220 129c-155 0 -289 -99 -289 -241c0 -109 91 -176 234 -176c137 0 262 71 306 170l71 -28c-62 -124 -217 -206 -387 -206z" />
    <glyph glyph-name="d" unicode="d" 
d="M333 -20c-184 0 -305 92 -305 233c0 190 178 312 380 312c130 0 231 -53 262 -132h1l55 342h76l-116 -735h-66l11 110h-1c-55 -80 -172 -130 -297 -130zM343 48c165 0 313 95 312 239c0 103 -92 171 -239 171c-168 0 -311 -90 -311 -237c0 -105 90 -173 238 -173z" />
    <glyph glyph-name="e" unicode="e" horiz-adv-x="750" 
d="M351 -20c-193 0 -323 101 -323 243c0 180 179 302 373 302c177 0 293 -97 293 -234c0 -27 -4 -54 -10 -73h-573c-4 -101 107 -166 249 -166c118 0 236 46 298 105l42 -54c-77 -73 -215 -123 -349 -123zM121 281l496 1c13 111 -97 175 -217 175c-139 0 -251 -65 -279 -176
z" />
    <glyph glyph-name="f" unicode="f" horiz-adv-x="570" 
d="M128 0l70 443h-167l10 62h167l8 46c20 127 107 199 243 199c93 0 165 -50 181 -120l-68 -26c-10 49 -57 80 -121 80c-87 0 -145 -47 -158 -129l-8 -50h306l-10 -62h-306l-71 -443h-76z" />
    <glyph glyph-name="g" unicode="g" horiz-adv-x="747" 
d="M266 -230c-150 0 -272 43 -339 107l55 56c63 -58 172 -94 285 -94c182 0 304 82 330 213l9 47h-1c-52 -72 -166 -117 -280 -117c-181 0 -296 92 -296 231c0 187 170 312 371 312c120 0 219 -54 249 -130h1l28 110h67l-72 -459c-28 -173 -185 -276 -407 -276zM333 48
c161 0 302 97 302 238c0 103 -89 172 -228 172c-170 0 -301 -100 -301 -236c0 -104 88 -174 227 -174z" />
    <glyph glyph-name="h" unicode="h" horiz-adv-x="697" 
d="M2 0l116 735h77l-54 -339h1c58 82 164 129 288 129c171 0 258 -93 234 -245l-44 -280h-77l44 277c18 114 -47 179 -174 179c-162 0 -276 -88 -299 -227l-36 -229h-76z" />
    <glyph glyph-name="i" unicode="i" horiz-adv-x="184" 
d="M151 603c-32 0 -51 20 -51 49c0 38 25 62 60 62c32 0 52 -20 52 -49c0 -37 -24 -62 -61 -62zM13 0l80 505h77l-80 -505h-77z" />
    <glyph glyph-name="j" unicode="j" horiz-adv-x="184" 
d="M152 603c-32 0 -52 19 -52 50c0 37 26 61 61 61c32 0 52 -19 52 -49c0 -37 -25 -62 -61 -62zM-97 -230c-41 0 -80 11 -108 29l24 62c23 -15 54 -22 81 -22c55 0 95 38 104 95l90 571h77l-93 -581c-15 -97 -80 -154 -175 -154z" />
    <glyph glyph-name="k" unicode="k" horiz-adv-x="607" 
d="M2 0l116 735h76l-74 -464h1l396 234h120l-341 -202l270 -303h-95l-233 268l-128 -76l-32 -192h-76z" />
    <glyph glyph-name="k.alt1" horiz-adv-x="600" 
d="M2 0l116 735h76l-69 -438h1l376 208h128l-429 -236l358 -269h-119l-322 247h-1l-39 -247h-76z" />
    <glyph glyph-name="l" unicode="l" horiz-adv-x="160" 
d="M2 0l116 735h76l-116 -735h-76z" />
    <glyph glyph-name="m" unicode="m" horiz-adv-x="1129" 
d="M2 0l80 505h68l-8 -97h1c54 74 150 117 256 117c119 0 192 -53 211 -129h1c65 90 175 129 275 129c156 0 234 -91 215 -214l-49 -311h-77l48 301c15 98 -41 154 -152 154c-146 0 -247 -85 -268 -217l-38 -238h-76l47 301c16 98 -40 154 -152 154
c-145 0 -247 -84 -268 -217l-38 -238h-76z" />
    <glyph glyph-name="n" unicode="n" horiz-adv-x="697" 
d="M430 525c171 0 258 -93 234 -245l-44 -280h-77l44 277c18 114 -47 179 -174 179c-162 0 -276 -88 -299 -227l-36 -229h-76l80 505h69l-10 -109h1c58 82 164 129 288 129z" />
    <glyph glyph-name="o" unicode="o" horiz-adv-x="759" 
d="M341 -20c-194 0 -314 91 -314 233c0 196 178 312 391 312c194 0 313 -91 313 -233c0 -196 -177 -312 -390 -312zM350 49c166 0 305 90 305 236c0 108 -89 172 -246 172c-166 0 -305 -91 -305 -238c0 -106 89 -170 246 -170z" />
    <glyph glyph-name="p" unicode="p" 
d="M-31 -210l113 715h66l-10 -110h1c55 79 171 130 297 130c184 0 305 -92 305 -234c0 -189 -178 -311 -381 -311c-130 0 -230 53 -261 132h-1l-53 -322h-76zM352 47c169 0 312 90 312 236c0 106 -91 174 -239 174c-165 0 -312 -96 -312 -239c0 -103 92 -171 239 -171z" />
    <glyph glyph-name="q" unicode="q" 
d="M577 -210l51 318h-1c-56 -79 -171 -128 -296 -128c-186 0 -303 92 -303 233c0 191 176 312 382 312c130 0 232 -53 263 -133h1l26 113h66l-113 -715h-76zM343 47c165 0 312 96 312 240c0 103 -92 171 -238 171c-179 0 -312 -104 -312 -235c0 -107 92 -176 238 -176z" />
    <glyph glyph-name="r" unicode="r" horiz-adv-x="519" 
d="M349 526c106 0 172 -65 166 -176l-84 -16c5 80 -32 122 -102 122c-118 0 -193 -92 -216 -235l-35 -221h-76l80 505h69l-8 -96h1c48 74 121 117 205 117z" />
    <glyph glyph-name="s" unicode="s" horiz-adv-x="655" 
d="M331 -20c-178 0 -308 75 -322 177l69 26c12 -80 111 -136 253 -136c109 0 209 29 209 95c0 38 -48 60 -158 75l-97 16c-135 17 -196 56 -196 130c0 109 123 162 251 162c130 0 225 -51 268 -129l-58 -34c-34 61 -113 99 -210 99c-83 0 -175 -26 -175 -89
c0 -36 41 -57 134 -71l96 -15c152 -20 219 -61 219 -137c0 -113 -126 -169 -283 -169z" />
    <glyph glyph-name="t" unicode="t" horiz-adv-x="594" 
d="M328 -20c-128 0 -193 69 -174 183l44 278h-168l10 64h167l25 158l80 18l-28 -176h309l-10 -64h-308l-44 -271c-12 -78 26 -124 101 -124c68 0 139 47 167 111l62 -36c-38 -84 -136 -141 -233 -141z" />
    <glyph glyph-name="u" unicode="u" horiz-adv-x="697" 
d="M267 -20c-171 0 -258 93 -234 245l44 280h77l-44 -277c-18 -114 47 -179 174 -179c162 0 276 88 299 227l36 229h76l-80 -505h-69l10 109h-1c-58 -82 -164 -129 -288 -129z" />
    <glyph glyph-name="u.alt1" horiz-adv-x="692" 
d="M306 -20c-201 0 -298 92 -271 257l42 268h76l-43 -273c-19 -118 52 -183 199 -183c152 0 247 67 267 188l42 268h77l-44 -273c-25 -162 -148 -252 -345 -252z" />
    <glyph glyph-name="v" unicode="v" horiz-adv-x="663" 
d="M246 0l-203 505h85l172 -438h1l312 438h88l-364 -505h-91z" />
    <glyph glyph-name="w" unicode="w" horiz-adv-x="1118" 
d="M218 0l-174 505h82l150 -438h1l273 438h99l136 -439h1l287 439h84l-328 -505h-102l-136 438h-1l-271 -438h-101z" />
    <glyph glyph-name="x" unicode="x" horiz-adv-x="632" 
d="M-39 0l303 262l-212 243h103l168 -198l232 198h106l-290 -246l219 -259h-104l-176 212l-241 -212h-108z" />
    <glyph glyph-name="y" unicode="y" horiz-adv-x="699" 
d="M241 -230c-160 0 -290 63 -331 123l50 53c48 -56 153 -107 282 -107c165 0 282 82 305 206l9 47h-1c-56 -82 -161 -132 -269 -132c-176 0 -275 112 -249 278l42 267h76l-42 -265c-20 -128 53 -211 182 -211c148 0 266 98 289 242l37 234h76l-74 -466
c-26 -166 -176 -269 -382 -269z" />
    <glyph glyph-name="y.alt1" horiz-adv-x="667" 
d="M102 -210l187 248l-247 467h87l209 -389h1l282 389h85l-519 -715h-85z" />
    <glyph glyph-name="z" unicode="z" horiz-adv-x="654" 
d="M-20 0l13 84l556 352h-490l11 69h594l-12 -84l-557 -352h510l-11 -69h-614z" />
    <glyph glyph-name="Agrave" unicode="&#xc0;" horiz-adv-x="818" 
d="M499 780l-142 118l24 27l142 -118zM-35 0l466 705h100l241 -705h-87l-60 169h-456l-113 -169h-91zM215 242h387l-130 389h-2z" />
    <glyph glyph-name="agrave" unicode="&#xe0;" 
d="M437 599l-167 138l27 30l167 -138zM333 -20c-187 0 -305 92 -305 233c0 190 176 312 380 312c130 0 231 -53 262 -132h1l27 112h68l-80 -505h-66l11 110h-1c-55 -80 -171 -130 -297 -130zM343 47c165 0 312 96 312 240c0 103 -92 171 -238 171c-168 0 -312 -92 -312 -237
c0 -108 90 -174 238 -174z" />
    <glyph glyph-name="agrave.alt1" horiz-adv-x="693" 
d="M426 599l-167 138l27 30l167 -138zM233 -20c-151 0 -234 45 -234 134c0 124 152 168 320 183l230 18c27 2 44 14 48 37c10 65 -60 104 -190 104s-254 -54 -311 -119l-43 52c68 77 210 136 354 136c155 0 282 -65 263 -188l-54 -337h-68l10 106h-1
c-62 -76 -187 -126 -324 -126zM241 45c171 0 323 85 335 190l3 20l-259 -21c-117 -11 -243 -37 -244 -115c-1 -49 54 -74 165 -74z" />
    <glyph glyph-name="agrave.alt2" horiz-adv-x="811" 
d="M425 599l-167 138l27 30l167 -138zM232 -20c-151 0 -233 48 -233 135c0 121 159 168 319 182l230 18c27 2 44 14 48 36c11 66 -60 105 -190 105s-254 -54 -311 -119l-43 52c69 77 211 136 354 136c155 0 282 -65 263 -188l-38 -239c-5 -29 10 -48 37 -48s59 18 74 39
l36 -52c-27 -35 -80 -57 -125 -57c-70 0 -108 50 -99 107l3 19h-1c-62 -76 -187 -126 -324 -126zM241 45c171 0 323 85 335 190l3 20l-259 -21c-117 -11 -243 -37 -244 -115c-1 -49 54 -74 165 -74z" />
    <glyph glyph-name="Aacute" unicode="&#xc1;" horiz-adv-x="818" 
d="M495 779l-18 30l179 118l19 -30zM-35 0l466 705h100l241 -705h-87l-60 169h-456l-113 -169h-91zM215 242h387l-130 389h-2z" />
    <glyph glyph-name="aacute" unicode="&#xe1;" 
d="M435 598l-18 30l210 138l18 -30zM333 -20c-187 0 -305 92 -305 233c0 190 176 312 380 312c130 0 231 -53 262 -132h1l27 112h68l-80 -505h-66l11 110h-1c-55 -80 -171 -130 -297 -130zM343 47c165 0 312 96 312 240c0 103 -92 171 -238 171c-168 0 -312 -92 -312 -237
c0 -108 90 -174 238 -174z" />
    <glyph glyph-name="aacute.alt1" horiz-adv-x="693" 
d="M424 598l-18 30l210 138l18 -30zM233 -20c-151 0 -234 45 -234 134c0 124 152 168 320 183l230 18c27 2 44 14 48 37c10 65 -60 104 -190 104s-254 -54 -311 -119l-43 52c68 77 210 136 354 136c155 0 282 -65 263 -188l-54 -337h-68l10 106h-1
c-62 -76 -187 -126 -324 -126zM241 45c171 0 323 85 335 190l3 20l-259 -21c-117 -11 -243 -37 -244 -115c-1 -49 54 -74 165 -74z" />
    <glyph glyph-name="aacute.alt2" horiz-adv-x="811" 
d="M423 598l-18 30l210 138l18 -30zM232 -20c-151 0 -233 48 -233 135c0 121 159 168 319 182l230 18c27 2 44 14 48 36c11 66 -60 105 -190 105s-254 -54 -311 -119l-43 52c69 77 211 136 354 136c155 0 282 -65 263 -188l-38 -239c-5 -29 10 -48 37 -48s59 18 74 39
l36 -52c-27 -35 -80 -57 -125 -57c-70 0 -108 50 -99 107l3 19h-1c-62 -76 -187 -126 -324 -126zM241 45c171 0 323 85 335 190l3 20l-259 -21c-117 -11 -243 -37 -244 -115c-1 -49 54 -74 165 -74z" />
    <glyph glyph-name="Atilde" unicode="&#xc3;" horiz-adv-x="818" 
d="M604 780c-51 0 -82 27 -108 54c-26 26 -51 52 -94 52c-54 0 -97 -41 -106 -96h-37c12 77 73 133 148 133c59 0 90 -34 119 -63c23 -22 46 -43 83 -43c54 0 98 41 107 97h37c-12 -78 -74 -134 -149 -134zM-35 0l466 705h100l241 -705h-87l-60 169h-456l-113 -169h-91z
M215 242h387l-130 389h-2z" />
    <glyph glyph-name="atilde" unicode="&#xe3;" 
d="M541 590c-53 0 -82 29 -110 57c-25 25 -50 50 -91 50c-54 0 -96 -42 -106 -97h-36c12 77 75 133 150 133c55 0 83 -30 111 -58c24 -24 48 -48 89 -48c54 0 91 41 109 97h35c-20 -78 -77 -134 -151 -134zM333 -20c-187 0 -305 92 -305 233c0 190 176 312 380 312
c130 0 231 -53 262 -132h1l27 112h68l-80 -505h-66l11 110h-1c-55 -80 -171 -130 -297 -130zM343 47c165 0 312 96 312 240c0 103 -92 171 -238 171c-168 0 -312 -92 -312 -237c0 -108 90 -174 238 -174z" />
    <glyph glyph-name="atilde.alt1" horiz-adv-x="693" 
d="M530 590c-53 0 -82 29 -110 57c-25 25 -50 50 -91 50c-54 0 -96 -42 -106 -97h-36c12 77 75 133 150 133c55 0 83 -30 111 -58c24 -24 48 -48 89 -48c54 0 91 41 109 97h35c-20 -78 -77 -134 -151 -134zM233 -20c-151 0 -234 45 -234 134c0 124 152 168 320 183l230 18
c27 2 44 14 48 37c10 65 -60 104 -190 104s-254 -54 -311 -119l-43 52c68 77 210 136 354 136c155 0 282 -65 263 -188l-54 -337h-68l10 106h-1c-62 -76 -187 -126 -324 -126zM241 45c171 0 323 85 335 190l3 20l-259 -21c-117 -11 -243 -37 -244 -115
c-1 -49 54 -74 165 -74z" />
    <glyph glyph-name="atilde.alt2" horiz-adv-x="811" 
d="M529 590c-53 0 -82 29 -110 57c-25 25 -50 50 -91 50c-54 0 -96 -42 -106 -97h-36c12 77 75 133 150 133c55 0 83 -30 111 -58c24 -24 48 -48 89 -48c54 0 91 41 109 97h35c-20 -78 -77 -134 -151 -134zM232 -20c-151 0 -233 48 -233 135c0 121 159 168 319 182l230 18
c27 2 44 14 48 36c11 66 -60 105 -190 105s-254 -54 -311 -119l-43 52c69 77 211 136 354 136c155 0 282 -65 263 -188l-38 -239c-5 -29 10 -48 37 -48s59 18 74 39l36 -52c-27 -35 -80 -57 -125 -57c-70 0 -108 50 -99 107l3 19h-1c-62 -76 -187 -126 -324 -126zM241 45
c171 0 323 85 335 190l3 20l-259 -21c-117 -11 -243 -37 -244 -115c-1 -49 54 -74 165 -74z" />
    <glyph glyph-name="Adieresis" unicode="&#xc4;" horiz-adv-x="818" 
d="M346 803c-32 0 -52 23 -47 55c6 32 33 55 65 55c33 0 53 -23 48 -55s-33 -55 -66 -55zM647 803c-33 0 -51 23 -46 55s31 55 64 55s52 -23 47 -55s-32 -55 -65 -55zM-35 0l466 705h100l241 -705h-87l-60 169h-456l-113 -169h-91zM215 242h387l-130 389h-2z" />
    <glyph glyph-name="adieresis" unicode="&#xe4;" 
d="M282 604c-29 0 -48 19 -48 46c0 37 29 64 65 64c30 0 50 -18 50 -45c0 -37 -31 -65 -67 -65zM589 604c-29 0 -47 18 -47 45c0 38 28 65 64 65c30 0 49 -18 49 -45c0 -37 -30 -65 -66 -65zM333 -20c-187 0 -305 92 -305 233c0 190 176 312 380 312c130 0 231 -53 262 -132
h1l27 112h68l-80 -505h-66l11 110h-1c-55 -80 -171 -130 -297 -130zM343 47c165 0 312 96 312 240c0 103 -92 171 -238 171c-168 0 -312 -92 -312 -237c0 -108 90 -174 238 -174z" />
    <glyph glyph-name="adieresis.alt1" horiz-adv-x="693" 
d="M270 604c-29 0 -48 19 -48 46c0 37 29 64 65 64c30 0 50 -18 50 -45c0 -37 -31 -65 -67 -65zM577 604c-29 0 -47 18 -47 45c0 38 28 65 64 65c30 0 49 -18 49 -45c0 -37 -30 -65 -66 -65zM233 -20c-151 0 -234 45 -234 134c0 124 152 168 320 183l230 18
c27 2 44 14 48 37c10 65 -60 104 -190 104s-254 -54 -311 -119l-43 52c68 77 210 136 354 136c155 0 282 -65 263 -188l-54 -337h-68l10 106h-1c-62 -76 -187 -126 -324 -126zM241 45c171 0 323 85 335 190l3 20l-259 -21c-117 -11 -243 -37 -244 -115
c-1 -49 54 -74 165 -74z" />
    <glyph glyph-name="adieresis.alt2" horiz-adv-x="811" 
d="M270 604c-29 0 -48 19 -48 46c0 37 29 64 65 64c30 0 50 -18 50 -45c0 -37 -31 -65 -67 -65zM577 604c-29 0 -47 18 -47 45c0 38 28 65 64 65c30 0 49 -18 49 -45c0 -37 -30 -65 -66 -65zM232 -20c-151 0 -233 48 -233 135c0 121 159 168 319 182l230 18
c27 2 44 14 48 36c11 66 -60 105 -190 105s-254 -54 -311 -119l-43 52c69 77 211 136 354 136c155 0 282 -65 263 -188l-38 -239c-5 -29 10 -48 37 -48s59 18 74 39l36 -52c-27 -35 -80 -57 -125 -57c-70 0 -108 50 -99 107l3 19h-1c-62 -76 -187 -126 -324 -126zM241 45
c171 0 323 85 335 190l3 20l-259 -21c-117 -11 -243 -37 -244 -115c-1 -49 54 -74 165 -74z" />
    <glyph glyph-name="Aring" unicode="&#xc5;" horiz-adv-x="818" 
d="M494 782c-49 0 -79 31 -79 76c0 63 48 110 108 110c48 0 80 -31 80 -76c0 -59 -48 -110 -109 -110zM499 818c38 0 65 33 65 67c0 28 -19 47 -48 47c-35 0 -65 -30 -65 -68c0 -27 20 -46 48 -46zM-35 0l466 705h100l241 -705h-87l-60 169h-456l-113 -169h-91zM215 242h387
l-130 389h-2z" />
    <glyph glyph-name="aring" unicode="&#xe5;" 
d="M433 592c-49 0 -79 31 -79 76c0 64 47 110 109 110c48 0 79 -31 79 -76c0 -64 -48 -110 -109 -110zM439 628c36 0 65 29 65 68c0 28 -18 46 -48 46c-37 0 -66 -32 -66 -67c0 -29 20 -47 49 -47zM333 -20c-187 0 -305 92 -305 233c0 190 176 312 380 312
c130 0 231 -53 262 -132h1l27 112h68l-80 -505h-66l11 110h-1c-55 -80 -171 -130 -297 -130zM343 47c165 0 312 96 312 240c0 103 -92 171 -238 171c-168 0 -312 -92 -312 -237c0 -108 90 -174 238 -174z" />
    <glyph glyph-name="aring.alt1" horiz-adv-x="693" 
d="M422 592c-49 0 -79 31 -79 76c0 64 47 110 109 110c48 0 79 -31 79 -76c0 -64 -48 -110 -109 -110zM428 628c36 0 65 29 65 68c0 28 -18 46 -48 46c-37 0 -66 -32 -66 -67c0 -29 20 -47 49 -47zM233 -20c-151 0 -234 45 -234 134c0 124 152 168 320 183l230 18
c27 2 44 14 48 37c10 65 -60 104 -190 104s-254 -54 -311 -119l-43 52c68 77 210 136 354 136c155 0 282 -65 263 -188l-54 -337h-68l10 106h-1c-62 -76 -187 -126 -324 -126zM241 45c171 0 323 85 335 190l3 20l-259 -21c-117 -11 -243 -37 -244 -115
c-1 -49 54 -74 165 -74z" />
    <glyph glyph-name="aring.alt2" horiz-adv-x="811" 
d="M421 592c-49 0 -79 31 -79 76c0 64 47 110 109 110c48 0 79 -31 79 -76c0 -64 -48 -110 -109 -110zM427 628c36 0 65 29 65 68c0 28 -18 46 -48 46c-37 0 -66 -32 -66 -67c0 -29 20 -47 49 -47zM232 -20c-151 0 -233 48 -233 135c0 121 159 168 319 182l230 18
c27 2 44 14 48 36c11 66 -60 105 -190 105s-254 -54 -311 -119l-43 52c69 77 211 136 354 136c155 0 282 -65 263 -188l-38 -239c-5 -29 10 -48 37 -48s59 18 74 39l36 -52c-27 -35 -80 -57 -125 -57c-70 0 -108 50 -99 107l3 19h-1c-62 -76 -187 -126 -324 -126zM241 45
c171 0 323 85 335 190l3 20l-259 -21c-117 -11 -243 -37 -244 -115c-1 -49 54 -74 165 -74z" />
    <glyph glyph-name="Amacron" unicode="&#x100;" horiz-adv-x="818" 
d="M284 798l6 37h424l-6 -37h-424zM-35 0l466 705h100l241 -705h-87l-60 169h-456l-113 -169h-91zM215 242h387l-130 389h-2z" />
    <glyph glyph-name="amacron" unicode="&#x101;" 
d="M223 598l6 37h424l-6 -37h-424zM333 -20c-187 0 -305 92 -305 233c0 190 176 312 380 312c130 0 231 -53 262 -132h1l27 112h68l-80 -505h-66l11 110h-1c-55 -80 -171 -130 -297 -130zM343 47c165 0 312 96 312 240c0 103 -92 171 -238 171c-168 0 -312 -92 -312 -237
c0 -108 90 -174 238 -174z" />
    <glyph glyph-name="amacron.alt1" horiz-adv-x="693" 
d="M211 598l6 37h424l-6 -37h-424zM233 -20c-151 0 -234 45 -234 134c0 124 152 168 320 183l230 18c27 2 44 14 48 37c10 65 -60 104 -190 104s-254 -54 -311 -119l-43 52c68 77 210 136 354 136c155 0 282 -65 263 -188l-54 -337h-68l10 106h-1
c-62 -76 -187 -126 -324 -126zM241 45c171 0 323 85 335 190l3 20l-259 -21c-117 -11 -243 -37 -244 -115c-1 -49 54 -74 165 -74z" />
    <glyph glyph-name="amacron.alt2" horiz-adv-x="811" 
d="M211 598l6 37h424l-6 -37h-424zM232 -20c-151 0 -233 48 -233 135c0 121 159 168 319 182l230 18c27 2 44 14 48 36c11 66 -60 105 -190 105s-254 -54 -311 -119l-43 52c69 77 211 136 354 136c155 0 282 -65 263 -188l-38 -239c-5 -29 10 -48 37 -48s59 18 74 39l36 -52
c-27 -35 -80 -57 -125 -57c-70 0 -108 50 -99 107l3 19h-1c-62 -76 -187 -126 -324 -126zM241 45c171 0 323 85 335 190l3 20l-259 -21c-117 -11 -243 -37 -244 -115c-1 -49 54 -74 165 -74z" />
    <glyph glyph-name="Abreve" unicode="&#x102;" horiz-adv-x="818" 
d="M494 790c-112 0 -185 53 -173 128h37c-9 -54 50 -92 140 -92c91 0 163 38 172 92h39c-12 -75 -102 -128 -215 -128zM-35 0l466 705h100l241 -705h-87l-60 169h-456l-113 -169h-91zM215 242h387l-130 389h-2z" />
    <glyph glyph-name="abreve" unicode="&#x103;" 
d="M433 592c-134 0 -220 65 -206 156h36c-11 -69 62 -119 173 -119c113 0 203 50 214 119h38c-14 -91 -121 -156 -255 -156zM333 -20c-187 0 -305 92 -305 233c0 190 176 312 380 312c130 0 231 -53 262 -132h1l27 112h68l-80 -505h-66l11 110h-1
c-55 -80 -171 -130 -297 -130zM343 47c165 0 312 96 312 240c0 103 -92 171 -238 171c-168 0 -312 -92 -312 -237c0 -108 90 -174 238 -174z" />
    <glyph glyph-name="abreve.alt1" horiz-adv-x="693" 
d="M422 592c-134 0 -220 65 -206 156h36c-11 -69 62 -119 173 -119c113 0 203 50 214 119h38c-14 -91 -121 -156 -255 -156zM233 -20c-151 0 -234 45 -234 134c0 124 152 168 320 183l230 18c27 2 44 14 48 37c10 65 -60 104 -190 104s-254 -54 -311 -119l-43 52
c68 77 210 136 354 136c155 0 282 -65 263 -188l-54 -337h-68l10 106h-1c-62 -76 -187 -126 -324 -126zM241 45c171 0 323 85 335 190l3 20l-259 -21c-117 -11 -243 -37 -244 -115c-1 -49 54 -74 165 -74z" />
    <glyph glyph-name="abreve.alt2" horiz-adv-x="811" 
d="M421 592c-134 0 -220 65 -206 156h36c-11 -69 62 -119 173 -119c113 0 203 50 214 119h38c-14 -91 -121 -156 -255 -156zM232 -20c-151 0 -233 48 -233 135c0 121 159 168 319 182l230 18c27 2 44 14 48 36c11 66 -60 105 -190 105s-254 -54 -311 -119l-43 52
c69 77 211 136 354 136c155 0 282 -65 263 -188l-38 -239c-5 -29 10 -48 37 -48s59 18 74 39l36 -52c-27 -35 -80 -57 -125 -57c-70 0 -108 50 -99 107l3 19h-1c-62 -76 -187 -126 -324 -126zM241 45c171 0 323 85 335 190l3 20l-259 -21c-117 -11 -243 -37 -244 -115
c-1 -49 54 -74 165 -74z" />
    <glyph glyph-name="Aogonek" unicode="&#x104;" horiz-adv-x="818" 
d="M618 -172c30 0 64 19 88 42l21 -26c-31 -30 -78 -50 -117 -50c-60 0 -94 31 -88 77c8 57 67 95 162 133l-59 165h-456l-113 -169h-91l466 705h100l241 -705c-122 -42 -203 -76 -210 -128c-4 -27 18 -44 56 -44zM215 242h387l-130 389h-2z" />
    <glyph glyph-name="aogonek" unicode="&#x105;" 
d="M687 0c-122 -42 -203 -76 -210 -128c-4 -27 18 -44 56 -44c30 0 64 19 88 42l21 -26c-31 -30 -78 -50 -117 -50c-60 0 -94 31 -88 77c8 61 77 101 184 141l10 98h-1c-55 -80 -171 -130 -297 -130c-187 0 -305 92 -305 233c0 190 176 312 380 312c130 0 231 -53 262 -132
h1l27 112h68l-80 -504zM343 47c165 0 312 96 312 240c0 103 -92 171 -238 171c-168 0 -312 -92 -312 -237c0 -108 90 -174 238 -174z" />
    <glyph glyph-name="aogonek.alt1" horiz-adv-x="693" 
d="M407 525c155 0 282 -65 263 -188l-54 -336l1 -1c-122 -42 -203 -76 -210 -128c-4 -27 18 -44 56 -44c30 0 64 19 88 42l21 -26c-31 -30 -78 -50 -117 -50c-60 0 -94 31 -88 77c8 61 76 100 182 141l9 94h-1c-62 -76 -187 -126 -324 -126c-151 0 -234 45 -234 134
c0 124 152 168 320 183l230 18c27 2 44 14 48 37c10 65 -60 104 -190 104s-254 -54 -311 -119l-43 52c68 77 210 136 354 136zM241 45c171 0 323 85 335 190l3 20l-259 -21c-117 -11 -243 -37 -244 -115c-1 -49 54 -74 165 -74z" />
    <glyph glyph-name="aogonek.alt2" horiz-adv-x="811" 
d="M674 -19c-93 -34 -152 -65 -158 -109c-4 -27 18 -44 56 -44c30 0 64 19 88 42l21 -26c-31 -30 -78 -50 -117 -50c-60 0 -94 31 -88 77c7 50 54 85 129 119c-39 17 -58 55 -51 97l3 19h-1c-62 -76 -187 -126 -324 -126c-151 0 -233 48 -233 135c0 121 159 168 319 182
l230 18c27 2 44 14 48 36c11 66 -60 105 -190 105s-254 -54 -311 -119l-43 52c69 77 211 136 354 136c155 0 282 -65 263 -188l-38 -239c-5 -29 10 -48 37 -48s59 18 74 39l36 -52c-23 -30 -65 -50 -104 -56zM576 235l3 20l-259 -21c-117 -11 -243 -37 -244 -115
c-1 -49 54 -74 165 -74c171 0 323 85 335 190z" />
    <glyph glyph-name="Acircumflex" unicode="&#xc2;" horiz-adv-x="818" 
d="M303 781l-14 32l200 105h53l169 -105l-23 -32l-176 108zM-35 0l466 705h100l241 -705h-87l-60 169h-456l-113 -169h-91zM215 242h387l-130 389h-2z" />
    <glyph glyph-name="acircumflex" unicode="&#xe2;" 
d="M207 591l-16 32l242 125h52l203 -125l-22 -32l-210 128zM333 -20c-187 0 -305 92 -305 233c0 190 176 312 380 312c130 0 231 -53 262 -132h1l27 112h68l-80 -505h-66l11 110h-1c-55 -80 -171 -130 -297 -130zM343 47c165 0 312 96 312 240c0 103 -92 171 -238 171
c-168 0 -312 -92 -312 -237c0 -108 90 -174 238 -174z" />
    <glyph glyph-name="acircumflex.alt1" horiz-adv-x="693" 
d="M195 591l-16 32l242 125h52l203 -125l-22 -32l-210 128zM233 -20c-151 0 -234 45 -234 134c0 124 152 168 320 183l230 18c27 2 44 14 48 37c10 65 -60 104 -190 104s-254 -54 -311 -119l-43 52c68 77 210 136 354 136c155 0 282 -65 263 -188l-54 -337h-68l10 106h-1
c-62 -76 -187 -126 -324 -126zM241 45c171 0 323 85 335 190l3 20l-259 -21c-117 -11 -243 -37 -244 -115c-1 -49 54 -74 165 -74z" />
    <glyph glyph-name="acircumflex.alt2" horiz-adv-x="811" 
d="M195 591l-16 32l242 125h52l203 -125l-22 -32l-210 128zM232 -20c-151 0 -233 48 -233 135c0 121 159 168 319 182l230 18c27 2 44 14 48 36c11 66 -60 105 -190 105s-254 -54 -311 -119l-43 52c69 77 211 136 354 136c155 0 282 -65 263 -188l-38 -239
c-5 -29 10 -48 37 -48s59 18 74 39l36 -52c-27 -35 -80 -57 -125 -57c-70 0 -108 50 -99 107l3 19h-1c-62 -76 -187 -126 -324 -126zM241 45c171 0 323 85 335 190l3 20l-259 -21c-117 -11 -243 -37 -244 -115c-1 -49 54 -74 165 -74z" />
    <glyph glyph-name="AE" unicode="&#xc6;" horiz-adv-x="1033" 
d="M-42 -1l578 706h538l-12 -73h-412l-38 -239h372l-11 -69h-372l-40 -251h422l-11 -73h-503l23 144h-317l-119 -145h-98zM229 213h274l66 413h-1z" />
    <glyph glyph-name="ae" unicode="&#xe6;" horiz-adv-x="1242" 
d="M244 -20c-155 0 -258 64 -243 154c12 78 113 139 274 153l259 21c24 2 46 21 50 47c10 61 -70 100 -179 100c-123 0 -249 -50 -297 -114l-44 52c61 77 217 132 346 132c122 0 212 -48 236 -119c56 72 168 119 280 119c180 0 287 -114 262 -271c-1 -8 -4 -19 -7 -31h-531
c5 -102 99 -171 229 -171c107 0 215 46 272 105l41 -54c-71 -73 -196 -123 -317 -123c-137 0 -237 63 -270 155c-53 -93 -200 -155 -361 -155zM660 288h454c11 101 -73 168 -195 168c-124 0 -232 -71 -259 -168zM253 49c166 0 298 70 312 164l5 34l-298 -25
c-105 -9 -189 -49 -197 -96c-6 -45 68 -77 178 -77z" />
    <glyph glyph-name="AEacute" unicode="&#x1fc;" horiz-adv-x="1033" 
d="M599 779l-18 30l179 118l19 -30zM-42 -1l578 706h538l-12 -73h-412l-38 -239h372l-11 -69h-372l-40 -251h422l-11 -73h-503l23 144h-317l-119 -145h-98zM229 213h274l66 413h-1z" />
    <glyph glyph-name="aeacute" unicode="&#x1fd;" horiz-adv-x="1242" 
d="M680 598l-18 30l210 138l18 -30zM244 -20c-155 0 -258 64 -243 154c12 78 113 139 274 153l259 21c24 2 46 21 50 47c10 61 -70 100 -179 100c-123 0 -249 -50 -297 -114l-44 52c61 77 217 132 346 132c122 0 212 -48 236 -119c56 72 168 119 280 119
c180 0 287 -114 262 -271c-1 -8 -4 -19 -7 -31h-531c5 -102 99 -171 229 -171c107 0 215 46 272 105l41 -54c-71 -73 -196 -123 -317 -123c-137 0 -237 63 -270 155c-53 -93 -200 -155 -361 -155zM660 288h454c11 101 -73 168 -195 168c-124 0 -232 -71 -259 -168zM253 49
c166 0 298 70 312 164l5 34l-298 -25c-105 -9 -189 -49 -197 -96c-6 -45 68 -77 178 -77z" />
    <glyph glyph-name="Cacute" unicode="&#x106;" horiz-adv-x="939" 
d="M545 779l-18 30l179 118l19 -30zM454 -25c-244 0 -403 134 -403 325c0 247 221 430 481 430c181 0 318 -94 349 -228l-78 -24c-27 110 -128 179 -281 179c-212 0 -387 -149 -387 -348c0 -158 127 -261 322 -261c171 0 325 96 377 219l75 -29
c-67 -153 -253 -263 -455 -263z" />
    <glyph glyph-name="cacute" unicode="&#x107;" horiz-adv-x="743" 
d="M410 598l-18 30l210 138l18 -30zM327 -20c-185 0 -300 91 -300 232c0 189 171 313 374 313c151 0 249 -68 278 -166l-67 -27c-28 81 -97 129 -220 129c-155 0 -289 -99 -289 -241c0 -109 91 -176 234 -176c137 0 262 71 306 170l71 -28c-62 -124 -217 -206 -387 -206z
" />
    <glyph glyph-name="Cdotaccent" unicode="&#x10a;" horiz-adv-x="939" 
d="M546 803c-29 0 -47 19 -47 46c0 37 29 65 65 65c30 0 49 -18 49 -45c0 -38 -30 -66 -67 -66zM454 -25c-244 0 -403 134 -403 325c0 247 221 430 481 430c181 0 318 -94 349 -228l-78 -24c-27 110 -128 179 -281 179c-212 0 -387 -149 -387 -348c0 -158 127 -261 322 -261
c171 0 325 96 377 219l75 -29c-67 -153 -253 -263 -455 -263z" />
    <glyph glyph-name="cdotaccent" unicode="&#x10b;" horiz-adv-x="743" 
d="M410 603c-29 0 -48 19 -48 45c0 38 29 66 65 66c30 0 50 -18 50 -46c0 -38 -31 -65 -67 -65zM327 -20c-185 0 -300 91 -300 232c0 189 171 313 374 313c151 0 249 -68 278 -166l-67 -27c-28 81 -97 129 -220 129c-155 0 -289 -99 -289 -241c0 -109 91 -176 234 -176
c137 0 262 71 306 170l71 -28c-62 -124 -217 -206 -387 -206z" />
    <glyph glyph-name="Ccaron" unicode="&#x10c;" horiz-adv-x="939" 
d="M519 790l-169 104l23 33l174 -108l211 108l16 -32l-202 -105h-53zM454 -25c-244 0 -403 134 -403 325c0 247 221 430 481 430c181 0 318 -94 349 -228l-78 -24c-27 110 -128 179 -281 179c-212 0 -387 -149 -387 -348c0 -158 127 -261 322 -261c171 0 325 96 377 219
l75 -29c-67 -153 -253 -263 -455 -263z" />
    <glyph glyph-name="ccaron" unicode="&#x10d;" horiz-adv-x="743" 
d="M382 602l-202 125l22 32l209 -128l250 128l17 -32l-243 -125h-53zM327 -20c-185 0 -300 91 -300 232c0 189 171 313 374 313c151 0 249 -68 278 -166l-67 -27c-28 81 -97 129 -220 129c-155 0 -289 -99 -289 -241c0 -109 91 -176 234 -176c137 0 262 71 306 170l71 -28
c-62 -124 -217 -206 -387 -206z" />
    <glyph glyph-name="Ccedilla" unicode="&#xc7;" horiz-adv-x="939" 
d="M909 238c-66 -150 -247 -259 -445 -263l-7 -24c58 -4 93 -30 84 -84c-6 -42 -49 -73 -103 -73c-40 0 -74 23 -86 54l34 23c7 -23 31 -39 58 -39c32 0 56 15 59 39c5 28 -19 45 -60 45h-33l17 60c-229 9 -376 140 -376 324c0 247 221 430 481 430c181 0 318 -94 349 -228
l-78 -24c-27 110 -128 179 -281 179c-212 0 -387 -149 -387 -348c0 -158 127 -261 322 -261c171 0 325 96 377 219z" />
    <glyph glyph-name="ccedilla" unicode="&#xe7;" horiz-adv-x="743" 
d="M714 186c-60 -119 -205 -200 -367 -206l-9 -29c58 -4 93 -30 84 -84c-6 -42 -49 -73 -103 -73c-40 0 -74 23 -86 54l34 23c7 -23 31 -39 58 -39c32 0 56 15 59 39c5 28 -19 45 -60 45h-33l18 64c-174 6 -282 96 -282 232c0 189 171 313 374 313c151 0 249 -68 278 -166
l-67 -27c-28 81 -97 129 -220 129c-155 0 -289 -99 -289 -241c0 -109 91 -176 234 -176c137 0 262 71 306 170z" />
    <glyph glyph-name="Ccircumflex" unicode="&#x108;" horiz-adv-x="939" 
d="M353 781l-14 32l200 105h53l169 -105l-23 -32l-176 108zM454 -25c-244 0 -403 134 -403 325c0 247 221 430 481 430c181 0 318 -94 349 -228l-78 -24c-27 110 -128 179 -281 179c-212 0 -387 -149 -387 -348c0 -158 127 -261 322 -261c171 0 325 96 377 219l75 -29
c-67 -153 -253 -263 -455 -263z" />
    <glyph glyph-name="ccircumflex" unicode="&#x109;" horiz-adv-x="743" 
d="M181 591l-16 32l242 125h52l203 -125l-22 -32l-210 128zM327 -20c-185 0 -300 91 -300 232c0 189 171 313 374 313c151 0 249 -68 278 -166l-67 -27c-28 81 -97 129 -220 129c-155 0 -289 -99 -289 -241c0 -109 91 -176 234 -176c137 0 262 71 306 170l71 -28
c-62 -124 -217 -206 -387 -206z" />
    <glyph glyph-name="Dcaron" unicode="&#x10e;" horiz-adv-x="879" 
d="M461 790l-169 104l23 33l174 -108l211 108l16 -32l-202 -105h-53zM12 0l112 705h376c230 0 358 -106 358 -297c0 -262 -166 -408 -465 -408h-381zM107 73h293c241 0 376 119 376 333c0 145 -102 226 -283 226h-297z" />
    <glyph glyph-name="dcaron" unicode="&#x10f;" 
d="M333 -20c-184 0 -305 92 -305 233c0 190 178 312 380 312c130 0 231 -53 262 -132h1l55 342h76l-116 -735h-66l11 110h-1c-55 -80 -172 -130 -297 -130zM828 556l5 33c51 -12 76 9 77 46c-34 -13 -67 14 -61 50c3 22 23 38 47 38c37 0 59 -36 50 -90
c-10 -65 -57 -89 -118 -77zM343 48c165 0 313 95 312 239c0 103 -92 171 -239 171c-168 0 -311 -90 -311 -237c0 -105 90 -173 238 -173z" />
    <glyph glyph-name="Dcroat" unicode="&#x110;" horiz-adv-x="968" 
d="M589 705c230 0 358 -106 358 -297c0 -262 -166 -408 -465 -408h-381l61 386h-164l4 37h166l45 282h376zM489 73c241 0 376 119 376 333c0 145 -102 226 -283 226h-298l-33 -209h271l-4 -37h-273l-49 -313h293z" />
    <glyph glyph-name="dcroat" unicode="&#x111;" horiz-adv-x="775" 
d="M884 641l-4 -37h-99l-95 -604h-66l11 110h-1c-55 -80 -172 -130 -297 -130c-184 0 -305 92 -305 233c0 190 178 312 380 312c130 0 231 -53 262 -132h1l34 211h-287l4 37h289l15 94h76l-15 -94h97zM343 48c165 0 313 95 312 239c0 103 -92 171 -239 171
c-168 0 -311 -90 -311 -237c0 -105 90 -173 238 -173z" />
    <glyph glyph-name="Egrave" unicode="&#xc8;" horiz-adv-x="725" 
d="M475 780l-142 118l24 27l142 -118zM12 0l112 705h642l-12 -73h-561l-37 -233h521l-11 -71h-521l-40 -255h570l-11 -73h-652z" />
    <glyph glyph-name="egrave" unicode="&#xe8;" horiz-adv-x="750" 
d="M420 599l-167 138l27 30l167 -138zM351 -20c-193 0 -323 101 -323 243c0 180 179 302 373 302c177 0 293 -97 293 -234c0 -27 -4 -54 -10 -73h-573c-4 -101 107 -166 249 -166c118 0 236 46 298 105l42 -54c-77 -73 -215 -123 -349 -123zM121 281l496 1
c13 111 -97 175 -217 175c-139 0 -251 -65 -279 -176z" />
    <glyph glyph-name="Eacute" unicode="&#xc9;" horiz-adv-x="725" 
d="M472 779l-18 30l179 118l19 -30zM12 0l112 705h642l-12 -73h-561l-37 -233h521l-11 -71h-521l-40 -255h570l-11 -73h-652z" />
    <glyph glyph-name="eacute" unicode="&#xe9;" horiz-adv-x="750" 
d="M418 598l-18 30l210 138l18 -30zM351 -20c-193 0 -323 101 -323 243c0 180 179 302 373 302c177 0 293 -97 293 -234c0 -27 -4 -54 -10 -73h-573c-4 -101 107 -166 249 -166c118 0 236 46 298 105l42 -54c-77 -73 -215 -123 -349 -123zM121 281l496 1
c13 111 -97 175 -217 175c-139 0 -251 -65 -279 -176z" />
    <glyph glyph-name="Ecaron" unicode="&#x11a;" horiz-adv-x="725" 
d="M445 790l-169 104l23 33l174 -108l211 108l16 -32l-202 -105h-53zM12 0l112 705h642l-12 -73h-561l-37 -233h521l-11 -71h-521l-40 -255h570l-11 -73h-652z" />
    <glyph glyph-name="ecaron" unicode="&#x11b;" horiz-adv-x="750" 
d="M390 602l-202 125l22 32l209 -128l250 128l17 -32l-243 -125h-53zM351 -20c-193 0 -323 101 -323 243c0 180 179 302 373 302c177 0 293 -97 293 -234c0 -27 -4 -54 -10 -73h-573c-4 -101 107 -166 249 -166c118 0 236 46 298 105l42 -54c-77 -73 -215 -123 -349 -123z
M121 281l496 1c13 111 -97 175 -217 175c-139 0 -251 -65 -279 -176z" />
    <glyph glyph-name="Ecircumflex" unicode="&#xca;" horiz-adv-x="725" 
d="M279 781l-14 32l200 105h53l169 -105l-23 -32l-176 108zM12 0l112 705h642l-12 -73h-561l-37 -233h521l-11 -71h-521l-40 -255h570l-11 -73h-652z" />
    <glyph glyph-name="ecircumflex" unicode="&#xea;" horiz-adv-x="750" 
d="M189 591l-16 32l242 125h52l203 -125l-22 -32l-210 128zM351 -20c-193 0 -323 101 -323 243c0 180 179 302 373 302c177 0 293 -97 293 -234c0 -27 -4 -54 -10 -73h-573c-4 -101 107 -166 249 -166c118 0 236 46 298 105l42 -54c-77 -73 -215 -123 -349 -123zM121 281
l496 1c13 111 -97 175 -217 175c-139 0 -251 -65 -279 -176z" />
    <glyph glyph-name="Edieresis" unicode="&#xcb;" horiz-adv-x="725" 
d="M322 803c-32 0 -52 23 -47 55c6 32 33 55 65 55c33 0 53 -23 48 -55s-33 -55 -66 -55zM623 803c-33 0 -51 23 -46 55s31 55 64 55s52 -23 47 -55s-32 -55 -65 -55zM12 0l112 705h642l-12 -73h-561l-37 -233h521l-11 -71h-521l-40 -255h570l-11 -73h-652z" />
    <glyph glyph-name="edieresis" unicode="&#xeb;" horiz-adv-x="750" 
d="M264 604c-29 0 -48 19 -48 46c0 37 29 64 65 64c30 0 50 -18 50 -45c0 -37 -31 -65 -67 -65zM571 604c-29 0 -47 18 -47 45c0 38 28 65 64 65c30 0 49 -18 49 -45c0 -37 -30 -65 -66 -65zM351 -20c-193 0 -323 101 -323 243c0 180 179 302 373 302
c177 0 293 -97 293 -234c0 -27 -4 -54 -10 -73h-573c-4 -101 107 -166 249 -166c118 0 236 46 298 105l42 -54c-77 -73 -215 -123 -349 -123zM121 281l496 1c13 111 -97 175 -217 175c-139 0 -251 -65 -279 -176z" />
    <glyph glyph-name="Emacron" unicode="&#x112;" horiz-adv-x="725" 
d="M260 798l6 37h424l-6 -37h-424zM12 0l112 705h642l-12 -73h-561l-37 -233h521l-11 -71h-521l-40 -255h570l-11 -73h-652z" />
    <glyph glyph-name="emacron" unicode="&#x113;" horiz-adv-x="750" 
d="M205 598l6 37h424l-6 -37h-424zM351 -20c-193 0 -323 101 -323 243c0 180 179 302 373 302c177 0 293 -97 293 -234c0 -27 -4 -54 -10 -73h-573c-4 -101 107 -166 249 -166c118 0 236 46 298 105l42 -54c-77 -73 -215 -123 -349 -123zM121 281l496 1
c13 111 -97 175 -217 175c-139 0 -251 -65 -279 -176z" />
    <glyph glyph-name="Ebreve" unicode="&#x114;" horiz-adv-x="725" 
d="M470 790c-112 0 -185 53 -173 128h37c-9 -54 50 -92 140 -92c91 0 163 38 172 92h39c-12 -75 -102 -128 -215 -128zM12 0l112 705h642l-12 -73h-561l-37 -233h521l-11 -71h-521l-40 -255h570l-11 -73h-652z" />
    <glyph glyph-name="ebreve" unicode="&#x115;" horiz-adv-x="750" 
d="M416 592c-134 0 -220 65 -206 156h36c-11 -69 62 -119 173 -119c113 0 203 50 214 119h38c-14 -91 -121 -156 -255 -156zM351 -20c-193 0 -323 101 -323 243c0 180 179 302 373 302c177 0 293 -97 293 -234c0 -27 -4 -54 -10 -73h-573c-4 -101 107 -166 249 -166
c118 0 236 46 298 105l42 -54c-77 -73 -215 -123 -349 -123zM121 281l496 1c13 111 -97 175 -217 175c-139 0 -251 -65 -279 -176z" />
    <glyph glyph-name="Edotaccent" unicode="&#x116;" horiz-adv-x="725" 
d="M472 803c-29 0 -47 19 -47 46c0 37 29 65 65 65c30 0 49 -18 49 -45c0 -38 -30 -66 -67 -66zM12 0l112 705h642l-12 -73h-561l-37 -233h521l-11 -71h-521l-40 -255h570l-11 -73h-652z" />
    <glyph glyph-name="edotaccent" unicode="&#x117;" horiz-adv-x="750" 
d="M418 603c-29 0 -48 19 -48 45c0 38 29 66 65 66c30 0 50 -18 50 -46c0 -38 -31 -65 -67 -65zM351 -20c-193 0 -323 101 -323 243c0 180 179 302 373 302c177 0 293 -97 293 -234c0 -27 -4 -54 -10 -73h-573c-4 -101 107 -166 249 -166c118 0 236 46 298 105l42 -54
c-77 -73 -215 -123 -349 -123zM121 281l496 1c13 111 -97 175 -217 175c-139 0 -251 -65 -279 -176z" />
    <glyph glyph-name="Eogonek" unicode="&#x118;" horiz-adv-x="725" 
d="M754 632h-561l-37 -233h521l-11 -71h-521l-40 -255h570l-11 -73c-122 -42 -203 -76 -210 -128c-4 -27 18 -44 56 -44c30 0 64 19 88 42l21 -26c-31 -30 -78 -50 -117 -50c-60 0 -94 31 -88 77c7 55 64 92 153 129h-555l112 705h642z" />
    <glyph glyph-name="eogonek" unicode="&#x119;" horiz-adv-x="750" 
d="M341 -172c30 0 64 19 88 42l21 -26c-31 -30 -78 -50 -117 -50c-60 0 -94 31 -88 77c6 45 45 78 108 109h-2c-193 0 -323 101 -323 243c0 180 179 302 373 302c177 0 293 -97 293 -234c0 -27 -4 -54 -10 -73h-573c-4 -101 107 -166 249 -166c118 0 236 46 298 105l42 -54
c-52 -49 -132 -88 -220 -108c-114 -40 -188 -73 -195 -123c-4 -27 18 -44 56 -44zM400 457c-139 0 -251 -65 -279 -176l496 1c13 111 -97 175 -217 175z" />
    <glyph glyph-name="Gcircumflex" unicode="&#x11c;" horiz-adv-x="982" 
d="M374 781l-14 32l200 105h53l169 -105l-23 -32l-176 108zM451 -25c-242 0 -400 133 -400 324c0 253 233 431 502 431c174 0 309 -89 344 -209l-78 -26c-30 98 -135 162 -276 162c-218 0 -408 -149 -408 -350c0 -155 131 -259 330 -259c206 0 387 120 411 273l-565 -3
l11 71h646l-62 -389h-70l15 152h-1c-89 -110 -233 -177 -399 -177z" />
    <glyph glyph-name="Gcircumflex.alt1" horiz-adv-x="990" 
d="M374 781l-14 32l200 105h53l169 -105l-23 -32l-176 108zM463 -25c-249 0 -412 133 -412 325c0 252 234 430 501 430c174 0 310 -88 345 -208l-79 -26c-31 98 -134 161 -276 161c-216 0 -408 -149 -408 -350c0 -155 132 -259 332 -259c206 0 387 120 412 273l-543 -3
l11 71l626 -2c-1 -10 -2 -21 -4 -33c-35 -222 -239 -379 -505 -379z" />
    <glyph glyph-name="gcircumflex" unicode="&#x11d;" horiz-adv-x="747" 
d="M200 591l-16 32l242 125h52l203 -125l-22 -32l-210 128zM266 -230c-150 0 -272 43 -339 107l55 56c63 -58 172 -94 285 -94c182 0 304 82 330 213l9 47h-1c-52 -72 -166 -117 -280 -117c-181 0 -296 92 -296 231c0 187 170 312 371 312c120 0 219 -54 249 -130h1l28 110
h67l-72 -459c-28 -173 -185 -276 -407 -276zM333 48c161 0 302 97 302 238c0 103 -89 172 -228 172c-170 0 -301 -100 -301 -236c0 -104 88 -174 227 -174z" />
    <glyph glyph-name="Gbreve" unicode="&#x11e;" horiz-adv-x="982" 
d="M565 790c-112 0 -185 53 -173 128h37c-9 -54 50 -92 140 -92c91 0 163 38 172 92h39c-12 -75 -102 -128 -215 -128zM451 -25c-242 0 -400 133 -400 324c0 253 233 431 502 431c174 0 309 -89 344 -209l-78 -26c-30 98 -135 162 -276 162c-218 0 -408 -149 -408 -350
c0 -155 131 -259 330 -259c206 0 387 120 411 273l-565 -3l11 71h646l-62 -389h-70l15 152h-1c-89 -110 -233 -177 -399 -177z" />
    <glyph glyph-name="Gbreve.alt1" horiz-adv-x="990" 
d="M565 790c-112 0 -185 53 -173 128h37c-9 -54 50 -92 140 -92c91 0 163 38 172 92h39c-12 -75 -102 -128 -215 -128zM463 -25c-249 0 -412 133 -412 325c0 252 234 430 501 430c174 0 310 -88 345 -208l-79 -26c-31 98 -134 161 -276 161c-216 0 -408 -149 -408 -350
c0 -155 132 -259 332 -259c206 0 387 120 412 273l-543 -3l11 71l626 -2c-1 -10 -2 -21 -4 -33c-35 -222 -239 -379 -505 -379z" />
    <glyph glyph-name="gbreve" unicode="&#x11f;" horiz-adv-x="747" 
d="M426 592c-134 0 -220 65 -206 156h36c-11 -69 62 -119 173 -119c113 0 203 50 214 119h38c-14 -91 -121 -156 -255 -156zM266 -230c-150 0 -272 43 -339 107l55 56c63 -58 172 -94 285 -94c182 0 304 82 330 213l9 47h-1c-52 -72 -166 -117 -280 -117
c-181 0 -296 92 -296 231c0 187 170 312 371 312c120 0 219 -54 249 -130h1l28 110h67l-72 -459c-28 -173 -185 -276 -407 -276zM333 48c161 0 302 97 302 238c0 103 -89 172 -228 172c-170 0 -301 -100 -301 -236c0 -104 88 -174 227 -174z" />
    <glyph glyph-name="Gdotaccent" unicode="&#x120;" horiz-adv-x="982" 
d="M567 803c-29 0 -47 19 -47 46c0 37 29 65 65 65c30 0 49 -18 49 -45c0 -38 -30 -66 -67 -66zM451 -25c-242 0 -400 133 -400 324c0 253 233 431 502 431c174 0 309 -89 344 -209l-78 -26c-30 98 -135 162 -276 162c-218 0 -408 -149 -408 -350c0 -155 131 -259 330 -259
c206 0 387 120 411 273l-565 -3l11 71h646l-62 -389h-70l15 152h-1c-89 -110 -233 -177 -399 -177z" />
    <glyph glyph-name="Gdotaccent.alt1" horiz-adv-x="990" 
d="M567 803c-29 0 -47 19 -47 46c0 37 29 65 65 65c30 0 49 -18 49 -45c0 -38 -30 -66 -67 -66zM463 -25c-249 0 -412 133 -412 325c0 252 234 430 501 430c174 0 310 -88 345 -208l-79 -26c-31 98 -134 161 -276 161c-216 0 -408 -149 -408 -350c0 -155 132 -259 332 -259
c206 0 387 120 412 273l-543 -3l11 71l626 -2c-1 -10 -2 -21 -4 -33c-35 -222 -239 -379 -505 -379z" />
    <glyph glyph-name="gdotaccent" unicode="&#x121;" horiz-adv-x="747" 
d="M428 603c-29 0 -48 19 -48 45c0 38 29 66 65 66c30 0 50 -18 50 -46c0 -38 -31 -65 -67 -65zM266 -230c-150 0 -272 43 -339 107l55 56c63 -58 172 -94 285 -94c182 0 304 82 330 213l9 47h-1c-52 -72 -166 -117 -280 -117c-181 0 -296 92 -296 231
c0 187 170 312 371 312c120 0 219 -54 249 -130h1l28 110h67l-72 -459c-28 -173 -185 -276 -407 -276zM333 48c161 0 302 97 302 238c0 103 -89 172 -228 172c-170 0 -301 -100 -301 -236c0 -104 88 -174 227 -174z" />
    <glyph glyph-name="uni0122" unicode="&#x122;" horiz-adv-x="982" 
d="M451 -25c-242 0 -400 133 -400 324c0 253 233 431 502 431c174 0 309 -89 344 -209l-78 -26c-30 98 -135 162 -276 162c-218 0 -408 -149 -408 -350c0 -155 131 -259 330 -259c206 0 387 120 411 273l-565 -3l11 71h646l-62 -389h-70l15 152h-1
c-89 -110 -233 -177 -399 -177zM375 -241l5 32c51 -11 76 10 77 47c-34 -13 -67 14 -62 49c4 22 24 38 48 38c37 0 58 -35 50 -89c-10 -65 -57 -89 -118 -77z" />
    <glyph glyph-name="uni0122.alt1" horiz-adv-x="990" 
d="M463 -25c-249 0 -412 133 -412 325c0 252 234 430 501 430c174 0 310 -88 345 -208l-79 -26c-31 98 -134 161 -276 161c-216 0 -408 -149 -408 -350c0 -155 132 -259 332 -259c206 0 387 120 412 273l-543 -3l11 71l626 -2c-1 -10 -2 -21 -4 -33
c-35 -222 -239 -379 -505 -379zM377 -241l5 32c51 -11 76 10 77 47c-34 -13 -67 14 -62 49c4 22 24 38 48 38c37 0 58 -35 50 -89c-10 -65 -57 -89 -118 -77z" />
    <glyph glyph-name="uni0123" unicode="&#x123;" horiz-adv-x="747" 
d="M499 746l-5 -32c-51 11 -76 -10 -77 -47c34 13 67 -14 62 -49c-4 -22 -24 -38 -48 -38c-37 0 -58 35 -50 89c10 65 57 89 118 77zM266 -230c-150 0 -272 43 -339 107l55 56c63 -58 172 -94 285 -94c182 0 304 82 330 213l9 47h-1c-52 -72 -166 -117 -280 -117
c-181 0 -296 92 -296 231c0 187 170 312 371 312c120 0 219 -54 249 -130h1l28 110h67l-72 -459c-28 -173 -185 -276 -407 -276zM333 48c161 0 302 97 302 238c0 103 -89 172 -228 172c-170 0 -301 -100 -301 -236c0 -104 88 -174 227 -174z" />
    <glyph glyph-name="Igrave" unicode="&#xcc;" horiz-adv-x="187" 
d="M178 782l-67 124l32 20l66 -125zM12 0l112 705h83l-112 -705h-83z" />
    <glyph glyph-name="igrave" unicode="&#xec;" horiz-adv-x="160" 
d="M126 604l-45 151l36 12l45 -152zM2 0l80 505h76l-80 -505h-76z" />
    <glyph glyph-name="Iacute" unicode="&#xcd;" horiz-adv-x="187" 
d="M186 779l-26 22l106 125l26 -22zM12 0l112 705h83l-112 -705h-83z" />
    <glyph glyph-name="iacute" unicode="&#xed;" horiz-adv-x="160" 
d="M142 600l-32 15l94 152l31 -16zM2 0l80 505h76l-80 -505h-76z" />
    <glyph glyph-name="Icircumflex" unicode="&#xce;" horiz-adv-x="187" 
d="M100 781l-29 22l101 115h53l65 -115l-32 -22l-62 108zM12 0l112 705h83l-112 -705h-83z" />
    <glyph glyph-name="icircumflex" unicode="&#xee;" horiz-adv-x="160" 
d="M42 591l-29 22l119 135h53l76 -135l-32 -22l-73 128zM2 0l80 505h76l-80 -505h-76z" />
    <glyph glyph-name="Idieresis" unicode="&#xcf;" horiz-adv-x="187" 
d="M112 803c-35 0 -57 25 -51 61c5 29 30 49 60 49c35 0 58 -25 52 -60c-6 -30 -31 -50 -61 -50zM262 803c-35 0 -56 25 -50 61c5 29 29 49 59 49c35 0 57 -25 51 -60c-5 -30 -29 -50 -60 -50zM12 0l112 705h83l-112 -705h-83z" />
    <glyph glyph-name="idieresis" unicode="&#xef;" horiz-adv-x="161" 
d="M68 603c-35 0 -56 25 -50 61c4 30 28 50 60 50c36 0 57 -25 51 -60c-5 -31 -28 -51 -61 -51zM210 603c-35 0 -56 25 -51 61c5 30 28 50 60 50c37 0 58 -25 51 -60c-4 -31 -27 -51 -60 -51zM2 0l80 505h76l-80 -505h-76z" />
    <glyph glyph-name="Itilde" unicode="&#x128;" horiz-adv-x="187" 
d="M235 780c-36 0 -52 33 -64 62c-9 23 -17 44 -32 44c-21 0 -43 -41 -51 -96h-38c12 77 45 133 93 133c36 0 52 -34 63 -63c9 -23 17 -43 32 -43c22 0 43 41 52 97h37c-12 -78 -44 -134 -92 -134zM12 0l112 705h83l-112 -705h-83z" />
    <glyph glyph-name="itilde" unicode="&#x129;" horiz-adv-x="160" 
d="M190 590c-32 0 -47 26 -58 53c-11 26 -18 53 -36 53c-21 0 -43 -41 -52 -96h-37c12 77 47 133 94 133c34 0 50 -30 60 -59c9 -24 17 -47 34 -47c22 0 42 41 51 97h37c-12 -78 -45 -134 -93 -134zM2 0l80 505h76l-80 -505h-76z" />
    <glyph glyph-name="Imacron" unicode="&#x12a;" horiz-adv-x="187" 
d="M92 796l6 37h176l-6 -37h-176zM12 0l112 705h83l-112 -705h-83z" />
    <glyph glyph-name="imacron" unicode="&#x12b;" horiz-adv-x="160" 
d="M50 599l5 37h171l-6 -37h-170zM2 0l80 505h76l-80 -505h-76z" />
    <glyph glyph-name="Iogonek" unicode="&#x12e;" horiz-adv-x="187" 
d="M96 0c-122 -42 -203 -76 -210 -128c-4 -27 18 -44 56 -44c30 0 64 19 88 42l21 -26c-31 -30 -78 -50 -117 -50c-60 0 -94 31 -88 77c8 58 70 96 167 135l111 699h83l-112 -704z" />
    <glyph glyph-name="iogonek" unicode="&#x12f;" horiz-adv-x="160" 
d="M160 714c32 0 52 -20 52 -49c0 -37 -24 -62 -61 -62c-32 0 -51 20 -51 49c0 38 25 62 60 62zM14 8l79 497h77l-80 -505c-122 -42 -203 -76 -210 -128c-4 -27 18 -44 56 -44c30 0 64 19 88 42l21 -26c-31 -30 -78 -50 -117 -50c-60 0 -94 31 -88 77c8 59 73 98 174 137z
" />
    <glyph glyph-name="Idotaccent" unicode="&#x130;" horiz-adv-x="187" 
d="M182 803c-29 0 -47 19 -47 46c0 37 29 65 65 65c30 0 49 -18 49 -45c0 -38 -30 -66 -67 -66zM12 0l112 705h83l-112 -705h-83z" />
    <glyph glyph-name="dotlessi" unicode="&#x131;" horiz-adv-x="160" 
d="M2 0l80 505h76l-80 -505h-76z" />
    <glyph glyph-name="IJ" unicode="&#x132;" horiz-adv-x="769" 
d="M12 0l112 705h83l-112 -705h-83zM441 -20c-139 0 -241 91 -247 214l77 26c0 -97 71 -167 167 -167c111 0 183 63 203 182l74 470h84l-77 -483c-26 -157 -127 -242 -281 -242z" />
    <glyph glyph-name="ij" unicode="&#x133;" horiz-adv-x="368" 
d="M151 603c-32 0 -51 20 -51 49c0 38 25 62 60 62c32 0 52 -20 52 -49c0 -37 -24 -62 -61 -62zM336 603c-32 0 -52 19 -52 50c0 37 26 61 61 61c32 0 52 -19 52 -49c0 -37 -25 -62 -61 -62zM87 -230c-41 0 -80 11 -108 29l24 62c23 -15 54 -22 81 -22c55 0 95 38 104 95
l90 571h77l-93 -581c-15 -97 -80 -154 -175 -154zM13 0l80 505h77l-80 -505h-77z" />
    <glyph glyph-name="IJacute" horiz-adv-x="770" 
d="M183 779l-25 22l105 125l27 -22zM773 779l-25 22l105 125l27 -22zM13 0l112 705h83l-112 -705h-83zM441 -20c-138 0 -240 91 -247 214l77 26c0 -97 72 -167 168 -167c111 0 183 63 203 182l74 470h84l-77 -483c-26 -157 -127 -242 -282 -242z" />
    <glyph glyph-name="ijacute" horiz-adv-x="332" 
d="M145 600l-32 15l93 152l31 -16zM315 600l-32 15l94 152l31 -16zM63 -230c-41 0 -80 11 -107 29l23 62c24 -15 55 -22 81 -22c56 0 96 38 104 95l91 571h76l-92 -581c-15 -97 -81 -154 -176 -154zM2 0l80 505h76l-80 -505h-76z" />
    <glyph glyph-name="uni0237" unicode="&#x237;" horiz-adv-x="171" 
d="M-97 -230c-41 0 -80 11 -108 29l24 62c23 -15 54 -22 81 -22c55 0 95 38 104 95l90 571h77l-93 -581c-15 -97 -80 -154 -175 -154z" />
    <glyph glyph-name="uni0136" unicode="&#x136;" horiz-adv-x="715" 
d="M12 0l112 705h83l-55 -345h1l493 345h128l-434 -301l332 -404h-115l-284 356l-135 -94l-43 -262h-83zM225 -241l5 32c51 -11 76 10 77 47c-34 -13 -67 14 -62 49c4 22 24 38 48 38c37 0 58 -35 50 -89c-10 -65 -57 -89 -118 -77z" />
    <glyph glyph-name="uni0136.alt1" horiz-adv-x="705" 
d="M12 0l112 705h83l-50 -310l1 -1l480 311h136l-532 -341l430 -364h-134l-388 335h-1l-54 -335h-83zM225 -241l5 32c51 -11 76 10 77 47c-34 -13 -67 14 -62 49c4 22 24 38 48 38c37 0 58 -35 50 -89c-10 -65 -57 -89 -118 -77z" />
    <glyph glyph-name="uni0137" unicode="&#x137;" horiz-adv-x="607" 
d="M2 0l116 735h76l-74 -464h1l396 234h120l-341 -202l270 -303h-95l-233 268l-128 -76l-32 -192h-76zM141 -241l5 32c51 -11 76 10 77 47c-34 -13 -67 14 -62 49c4 22 24 38 48 38c37 0 58 -35 50 -89c-10 -65 -57 -89 -118 -77z" />
    <glyph glyph-name="uni0137.alt1" horiz-adv-x="600" 
d="M2 0l116 735h76l-69 -438h1l376 208h128l-429 -236l358 -269h-119l-322 247h-1l-39 -247h-76zM141 -241l5 32c51 -11 76 10 77 47c-34 -13 -67 14 -62 49c4 22 24 38 48 38c37 0 58 -35 50 -89c-10 -65 -57 -89 -118 -77z" />
    <glyph glyph-name="Lacute" unicode="&#x139;" horiz-adv-x="582" 
d="M179 779l-18 30l179 118l19 -30zM12 0l112 705h83l-100 -634h440l-11 -71h-524z" />
    <glyph glyph-name="lacute" unicode="&#x13a;" horiz-adv-x="160" 
d="M167 779l-18 30l179 118l19 -30zM2 0l116 735h76l-116 -735h-76z" />
    <glyph glyph-name="Lcaron" unicode="&#x13d;" horiz-adv-x="582" 
d="M313 556l5 33c51 -12 76 9 77 46c-34 -13 -67 14 -61 50c3 22 23 38 47 38c37 0 59 -36 50 -90c-10 -65 -57 -89 -118 -77zM12 0l112 705h83l-100 -634h440l-11 -71h-524z" />
    <glyph glyph-name="lcaron" unicode="&#x13e;" horiz-adv-x="160" 
d="M2 0l116 735h76l-116 -735h-76zM220 556l5 33c51 -12 76 9 77 46c-34 -13 -67 14 -61 50c3 22 23 38 47 38c37 0 59 -36 50 -90c-10 -65 -57 -89 -118 -77z" />
    <glyph glyph-name="uni013B" unicode="&#x13b;" horiz-adv-x="582" 
d="M12 0l112 705h83l-100 -634h440l-11 -71h-524zM189 -241l5 32c51 -11 76 10 77 47c-34 -13 -67 14 -62 49c4 22 24 38 48 38c37 0 58 -35 50 -89c-10 -65 -57 -89 -118 -77z" />
    <glyph glyph-name="uni013C" unicode="&#x13c;" horiz-adv-x="160" 
d="M2 0l116 735h76l-116 -735h-76zM-46 -241l5 32c51 -11 76 10 77 47c-34 -13 -67 14 -62 49c4 22 24 38 48 38c37 0 58 -35 50 -89c-10 -65 -57 -89 -118 -77z" />
    <glyph glyph-name="Lslash" unicode="&#x141;" horiz-adv-x="658" 
d="M183 71h440l-11 -71h-524l47 295l-116 -64l-19 33l142 79l58 362h83l-49 -311l221 122l19 -33l-248 -137z" />
    <glyph glyph-name="lslash" unicode="&#x142;" horiz-adv-x="396" 
d="M396 500l-158 -102l-63 -398h-76l54 343l-134 -87l-19 33l161 104l54 342h76l-45 -287l131 85z" />
    <glyph glyph-name="Nacute" unicode="&#x143;" horiz-adv-x="822" 
d="M508 779l-18 30l179 118l19 -30zM12 0l112 705h111l423 -618h2l98 618h84l-112 -705h-111l-423 618h-2l-99 -618h-83z" />
    <glyph glyph-name="nacute" unicode="&#x144;" horiz-adv-x="697" 
d="M414 598l-18 30l210 138l18 -30zM430 525c171 0 258 -93 234 -245l-44 -280h-77l44 277c18 114 -47 179 -174 179c-162 0 -276 -88 -299 -227l-36 -229h-76l80 505h69l-10 -109h1c58 82 164 129 288 129z" />
    <glyph glyph-name="Ncaron" unicode="&#x147;" horiz-adv-x="822" 
d="M482 790l-169 104l23 33l174 -108l211 108l16 -32l-202 -105h-53zM12 0l112 705h111l423 -618h2l98 618h84l-112 -705h-111l-423 618h-2l-99 -618h-83z" />
    <glyph glyph-name="ncaron" unicode="&#x148;" horiz-adv-x="697" 
d="M387 602l-202 125l22 32l209 -128l250 128l17 -32l-243 -125h-53zM430 525c171 0 258 -93 234 -245l-44 -280h-77l44 277c18 114 -47 179 -174 179c-162 0 -276 -88 -299 -227l-36 -229h-76l80 505h69l-10 -109h1c58 82 164 129 288 129z" />
    <glyph glyph-name="Ntilde" unicode="&#xd1;" horiz-adv-x="822" 
d="M616 780c-51 0 -82 27 -108 54c-26 26 -51 52 -94 52c-54 0 -97 -41 -106 -96h-37c12 77 73 133 148 133c59 0 90 -34 119 -63c23 -22 46 -43 83 -43c54 0 98 41 107 97h37c-12 -78 -74 -134 -149 -134zM12 0l112 705h111l423 -618h2l98 618h84l-112 -705h-111l-423 618
h-2l-99 -618h-83z" />
    <glyph glyph-name="ntilde" unicode="&#xf1;" horiz-adv-x="697" 
d="M521 590c-53 0 -82 29 -110 57c-25 25 -50 50 -91 50c-54 0 -96 -42 -106 -97h-36c12 77 75 133 150 133c55 0 83 -30 111 -58c24 -24 48 -48 89 -48c54 0 91 41 109 97h35c-20 -78 -77 -134 -151 -134zM430 525c171 0 258 -93 234 -245l-44 -280h-77l44 277
c18 114 -47 179 -174 179c-162 0 -276 -88 -299 -227l-36 -229h-76l80 505h69l-10 -109h1c58 82 164 129 288 129z" />
    <glyph glyph-name="uni0145" unicode="&#x145;" horiz-adv-x="822" 
d="M12 0l112 705h111l423 -618h2l98 618h84l-112 -705h-111l-423 618h-2l-99 -618h-83zM293 -241l5 32c51 -11 76 10 77 47c-34 -13 -67 14 -62 49c4 22 24 38 48 38c37 0 58 -35 50 -89c-10 -65 -57 -89 -118 -77z" />
    <glyph glyph-name="uni0146" unicode="&#x146;" horiz-adv-x="697" 
d="M430 525c171 0 258 -93 234 -245l-44 -280h-77l44 277c18 114 -47 179 -174 179c-162 0 -276 -88 -299 -227l-36 -229h-76l80 505h69l-10 -109h1c58 82 164 129 288 129zM226 -241l5 32c51 -11 76 10 77 47c-34 -13 -67 14 -62 49c4 22 24 38 48 38c37 0 58 -35 50 -89
c-10 -65 -57 -89 -118 -77z" />
    <glyph glyph-name="Ograve" unicode="&#xd2;" horiz-adv-x="997" 
d="M587 780l-142 118l24 27l142 -118zM459 -25c-248 0 -408 131 -408 322c0 262 238 433 519 433c247 0 408 -131 408 -323c0 -262 -238 -432 -519 -432zM465 48c234 0 429 139 429 352c0 156 -127 257 -331 257c-234 0 -429 -139 -429 -352c0 -156 127 -257 331 -257z" />
    <glyph glyph-name="ograve" unicode="&#xf2;" horiz-adv-x="759" 
d="M437 599l-167 138l27 30l167 -138zM341 -20c-194 0 -314 91 -314 233c0 196 178 312 391 312c194 0 313 -91 313 -233c0 -196 -177 -312 -390 -312zM350 49c166 0 305 90 305 236c0 108 -89 172 -246 172c-166 0 -305 -91 -305 -238c0 -106 89 -170 246 -170z" />
    <glyph glyph-name="Oacute" unicode="&#xd3;" horiz-adv-x="997" 
d="M583 779l-18 30l179 118l19 -30zM459 -25c-248 0 -408 131 -408 322c0 262 238 433 519 433c247 0 408 -131 408 -323c0 -262 -238 -432 -519 -432zM465 48c234 0 429 139 429 352c0 156 -127 257 -331 257c-234 0 -429 -139 -429 -352c0 -156 127 -257 331 -257z" />
    <glyph glyph-name="oacute" unicode="&#xf3;" horiz-adv-x="759" 
d="M435 598l-18 30l210 138l18 -30zM341 -20c-194 0 -314 91 -314 233c0 196 178 312 391 312c194 0 313 -91 313 -233c0 -196 -177 -312 -390 -312zM350 49c166 0 305 90 305 236c0 108 -89 172 -246 172c-166 0 -305 -91 -305 -238c0 -106 89 -170 246 -170z" />
    <glyph glyph-name="Otilde" unicode="&#xd5;" horiz-adv-x="997" 
d="M692 780c-51 0 -82 27 -108 54c-26 26 -51 52 -94 52c-54 0 -97 -41 -106 -96h-37c12 77 73 133 148 133c59 0 90 -34 119 -63c23 -22 46 -43 83 -43c54 0 98 41 107 97h37c-12 -78 -74 -134 -149 -134zM459 -25c-248 0 -408 131 -408 322c0 262 238 433 519 433
c247 0 408 -131 408 -323c0 -262 -238 -432 -519 -432zM465 48c234 0 429 139 429 352c0 156 -127 257 -331 257c-234 0 -429 -139 -429 -352c0 -156 127 -257 331 -257z" />
    <glyph glyph-name="otilde" unicode="&#xf5;" horiz-adv-x="759" 
d="M541 590c-53 0 -82 29 -110 57c-25 25 -50 50 -91 50c-54 0 -96 -42 -106 -97h-36c12 77 75 133 150 133c55 0 83 -30 111 -58c24 -24 48 -48 89 -48c54 0 91 41 109 97h35c-20 -78 -77 -134 -151 -134zM341 -20c-194 0 -314 91 -314 233c0 196 178 312 391 312
c194 0 313 -91 313 -233c0 -196 -177 -312 -390 -312zM350 49c166 0 305 90 305 236c0 108 -89 172 -246 172c-166 0 -305 -91 -305 -238c0 -106 89 -170 246 -170z" />
    <glyph glyph-name="Odieresis" unicode="&#xd6;" horiz-adv-x="997" 
d="M434 803c-32 0 -52 23 -47 55c6 32 33 55 65 55c33 0 53 -23 48 -55s-33 -55 -66 -55zM735 803c-33 0 -51 23 -46 55s31 55 64 55s52 -23 47 -55s-32 -55 -65 -55zM459 -25c-248 0 -408 131 -408 322c0 262 238 433 519 433c247 0 408 -131 408 -323
c0 -262 -238 -432 -519 -432zM465 48c234 0 429 139 429 352c0 156 -127 257 -331 257c-234 0 -429 -139 -429 -352c0 -156 127 -257 331 -257z" />
    <glyph glyph-name="odieresis" unicode="&#xf6;" horiz-adv-x="759" 
d="M281 604c-29 0 -48 19 -48 46c0 37 29 64 65 64c30 0 50 -18 50 -45c0 -37 -31 -65 -67 -65zM588 604c-29 0 -47 18 -47 45c0 38 28 65 64 65c30 0 49 -18 49 -45c0 -37 -30 -65 -66 -65zM341 -20c-194 0 -314 91 -314 233c0 196 178 312 391 312c194 0 313 -91 313 -233
c0 -196 -177 -312 -390 -312zM350 49c166 0 305 90 305 236c0 108 -89 172 -246 172c-166 0 -305 -91 -305 -238c0 -106 89 -170 246 -170z" />
    <glyph glyph-name="Oslash" unicode="&#xd8;" horiz-adv-x="997" 
d="M703 716c170 -39 275 -154 275 -309c0 -262 -238 -432 -519 -432c-40 0 -78 3 -114 10l-60 -123l-33 17l56 115c-160 42 -257 154 -257 303c0 262 238 433 519 433c33 0 64 -2 94 -7l46 94l34 -17zM134 305c0 -122 77 -210 208 -243l288 591c-21 3 -44 4 -67 4
c-234 0 -429 -139 -429 -352zM465 48c234 0 429 139 429 352c0 127 -84 217 -225 247l-290 -592c27 -5 56 -7 86 -7z" />
    <glyph glyph-name="oslash" unicode="&#xf8;" horiz-adv-x="758" 
d="M534 512c140 -33 216 -131 194 -265c-26 -163 -177 -267 -387 -267c-23 0 -44 1 -65 4l-109 -224l-34 17l104 213c-149 30 -228 129 -206 267c26 164 176 268 387 268c27 0 53 -2 78 -5l95 195l34 -17zM107 254c-17 -106 42 -177 162 -198l195 398c-18 2 -36 3 -55 3
c-163 0 -284 -82 -302 -203zM652 250c16 102 -39 173 -149 198l-194 -397c13 -1 26 -2 40 -2c163 0 284 81 303 201z" />
    <glyph glyph-name="Oslashacute" unicode="&#x1fe;" horiz-adv-x="997" 
d="M681 897l-180 -118l-18 30l179 118zM703 716c170 -39 275 -154 275 -309c0 -262 -238 -432 -519 -432c-40 0 -78 3 -114 10l-60 -123l-33 17l56 115c-160 42 -257 154 -257 303c0 262 238 433 519 433c33 0 64 -2 94 -7l46 94l34 -17zM134 305c0 -122 77 -210 208 -243
l288 591c-21 3 -44 4 -67 4c-234 0 -429 -139 -429 -352zM465 48c234 0 429 139 429 352c0 127 -84 217 -225 247l-290 -592c27 -5 56 -7 86 -7z" />
    <glyph glyph-name="oslashacute" unicode="&#x1ff;" horiz-adv-x="758" 
d="M546 736l-210 -138l-18 30l210 138zM534 512c140 -33 216 -131 194 -265c-26 -163 -177 -267 -387 -267c-23 0 -44 1 -65 4l-109 -224l-34 17l104 213c-149 30 -228 129 -206 267c26 164 176 268 387 268c27 0 53 -2 78 -5l95 195l34 -17zM107 254
c-17 -106 42 -177 162 -198l195 398c-18 2 -36 3 -55 3c-163 0 -284 -82 -302 -203zM652 250c16 102 -39 173 -149 198l-194 -397c13 -1 26 -2 40 -2c163 0 284 81 303 201z" />
    <glyph glyph-name="Omacron" unicode="&#x14c;" horiz-adv-x="997" 
d="M372 798l6 37h424l-6 -37h-424zM459 -25c-248 0 -408 131 -408 322c0 262 238 433 519 433c247 0 408 -131 408 -323c0 -262 -238 -432 -519 -432zM465 48c234 0 429 139 429 352c0 156 -127 257 -331 257c-234 0 -429 -139 -429 -352c0 -156 127 -257 331 -257z" />
    <glyph glyph-name="omacron" unicode="&#x14d;" horiz-adv-x="759" 
d="M222 598l6 37h424l-6 -37h-424zM341 -20c-194 0 -314 91 -314 233c0 196 178 312 391 312c194 0 313 -91 313 -233c0 -196 -177 -312 -390 -312zM350 49c166 0 305 90 305 236c0 108 -89 172 -246 172c-166 0 -305 -91 -305 -238c0 -106 89 -170 246 -170z" />
    <glyph glyph-name="Obreve" unicode="&#x14e;" horiz-adv-x="997" 
d="M582 790c-112 0 -185 53 -173 128h37c-9 -54 50 -92 140 -92c91 0 163 38 172 92h39c-12 -75 -102 -128 -215 -128zM459 -25c-248 0 -408 131 -408 322c0 262 238 433 519 433c247 0 408 -131 408 -323c0 -262 -238 -432 -519 -432zM465 48c234 0 429 139 429 352
c0 156 -127 257 -331 257c-234 0 -429 -139 -429 -352c0 -156 127 -257 331 -257z" />
    <glyph glyph-name="obreve" unicode="&#x14f;" horiz-adv-x="759" 
d="M433 592c-134 0 -220 65 -206 156h36c-11 -69 62 -119 173 -119c113 0 203 50 214 119h38c-14 -91 -121 -156 -255 -156zM341 -20c-194 0 -314 91 -314 233c0 196 178 312 391 312c194 0 313 -91 313 -233c0 -196 -177 -312 -390 -312zM350 49c166 0 305 90 305 236
c0 108 -89 172 -246 172c-166 0 -305 -91 -305 -238c0 -106 89 -170 246 -170z" />
    <glyph glyph-name="Ohungarumlaut" unicode="&#x150;" horiz-adv-x="997" 
d="M463 773l-18 30l179 118l19 -30zM679 773l-18 30l179 118l19 -30zM459 -25c-248 0 -408 131 -408 322c0 262 238 433 519 433c247 0 408 -131 408 -323c0 -262 -238 -432 -519 -432zM465 48c234 0 429 139 429 352c0 156 -127 257 -331 257c-234 0 -429 -139 -429 -352
c0 -156 127 -257 331 -257z" />
    <glyph glyph-name="ohungarumlaut" unicode="&#x151;" horiz-adv-x="759" 
d="M322 598l-18 30l210 138l18 -30zM536 598l-17 30l210 138l18 -30zM341 -20c-194 0 -314 91 -314 233c0 196 178 312 391 312c194 0 313 -91 313 -233c0 -196 -177 -312 -390 -312zM350 49c166 0 305 90 305 236c0 108 -89 172 -246 172c-166 0 -305 -91 -305 -238
c0 -106 89 -170 246 -170z" />
    <glyph glyph-name="Ocircumflex" unicode="&#xd4;" horiz-adv-x="997" 
d="M391 781l-14 32l200 105h53l169 -105l-23 -32l-176 108zM459 -25c-248 0 -408 131 -408 322c0 262 238 433 519 433c247 0 408 -131 408 -323c0 -262 -238 -432 -519 -432zM465 48c234 0 429 139 429 352c0 156 -127 257 -331 257c-234 0 -429 -139 -429 -352
c0 -156 127 -257 331 -257z" />
    <glyph glyph-name="ocircumflex" unicode="&#xf4;" horiz-adv-x="759" 
d="M206 591l-16 32l242 125h52l203 -125l-22 -32l-210 128zM341 -20c-194 0 -314 91 -314 233c0 196 178 312 391 312c194 0 313 -91 313 -233c0 -196 -177 -312 -390 -312zM350 49c166 0 305 90 305 236c0 108 -89 172 -246 172c-166 0 -305 -91 -305 -238
c0 -106 89 -170 246 -170z" />
    <glyph glyph-name="OE" unicode="&#x152;" horiz-adv-x="1179" 
d="M434 -17c-257 0 -414 151 -379 375c34 218 235 364 487 364c57 0 115 -7 150 -18l527 1l-10 -67h-446l-39 -245h406l-10 -63h-406l-42 -263h456l-10 -67l-533 -1c-37 -10 -104 -16 -151 -16zM428 50c61 0 130 9 160 19l94 568c-27 11 -89 17 -140 17
c-209 0 -376 -123 -405 -307c-28 -177 92 -297 291 -297z" />
    <glyph glyph-name="oe" unicode="&#x153;" horiz-adv-x="1373" 
d="M1281 157l42 -54c-71 -73 -214 -123 -349 -123c-144 0 -253 56 -299 144c-68 -88 -191 -144 -334 -144c-209 0 -336 115 -310 278c25 157 184 267 387 267c141 0 246 -53 290 -139c66 85 182 139 317 139c193 0 314 -116 290 -271c-3 -15 -6 -25 -10 -36h-574
c6 -99 108 -166 252 -166c119 0 242 46 298 105zM342 42c160 0 291 91 311 216c19 119 -79 205 -236 205c-161 0 -292 -91 -312 -216c-18 -120 79 -205 237 -205zM1018 454c-133 0 -242 -75 -277 -168h500c3 100 -92 168 -223 168z" />
    <glyph glyph-name="Racute" unicode="&#x154;" horiz-adv-x="849" 
d="M477 779l-18 30l179 118l19 -30zM694 -20c-59 0 -88 39 -99 87l-36 143c-13 51 -46 83 -96 83h-321l-47 -293h-83l112 705h471c143 0 225 -66 225 -178c0 -118 -108 -203 -236 -220v-1c32 -14 47 -44 55 -79l33 -136c6 -25 15 -41 38 -41c24 0 51 19 73 45l34 -52
c-34 -37 -76 -63 -123 -63zM154 366h381c106 0 201 67 201 157c0 68 -55 109 -154 109h-387z" />
    <glyph glyph-name="Racute.alt1" horiz-adv-x="814" 
d="M477 779l-18 30l179 118l19 -30zM12 0l112 705h471c144 0 225 -65 225 -178c0 -90 -64 -160 -155 -196v-1c68 -18 93 -70 82 -133l-32 -197h-83l32 202c8 61 -20 91 -83 91h-439l-47 -293h-83zM154 366h381c106 0 201 67 201 157c0 69 -54 109 -154 109h-387z" />
    <glyph glyph-name="Racute.alt2" horiz-adv-x="808" 
d="M478 779l-18 30l179 118l19 -30zM12 0l112 705h471c144 0 224 -65 224 -178c0 -122 -100 -206 -226 -220l142 -307h-96l-132 293h-365l-47 -293h-83zM154 366h381c111 0 201 66 201 157c0 69 -54 109 -154 109h-387z" />
    <glyph glyph-name="racute" unicode="&#x155;" horiz-adv-x="519" 
d="M325 598l-18 30l210 138l18 -30zM349 526c106 0 172 -65 166 -176l-84 -16c5 80 -32 122 -102 122c-118 0 -193 -92 -216 -235l-35 -221h-76l80 505h69l-8 -96h1c48 74 121 117 205 117z" />
    <glyph glyph-name="Rcaron" unicode="&#x158;" horiz-adv-x="849" 
d="M451 790l-169 104l23 33l174 -108l211 108l16 -32l-202 -105h-53zM694 -20c-59 0 -88 39 -99 87l-36 143c-13 51 -46 83 -96 83h-321l-47 -293h-83l112 705h471c143 0 225 -66 225 -178c0 -118 -108 -203 -236 -220v-1c32 -14 47 -44 55 -79l33 -136c6 -25 15 -41 38 -41
c24 0 51 19 73 45l34 -52c-34 -37 -76 -63 -123 -63zM154 366h381c106 0 201 67 201 157c0 68 -55 109 -154 109h-387z" />
    <glyph glyph-name="Rcaron.alt1" horiz-adv-x="814" 
d="M451 790l-169 104l23 33l174 -108l211 108l16 -32l-202 -105h-53zM12 0l112 705h471c144 0 225 -65 225 -178c0 -90 -64 -160 -155 -196v-1c68 -18 93 -70 82 -133l-32 -197h-83l32 202c8 61 -20 91 -83 91h-439l-47 -293h-83zM154 366h381c106 0 201 67 201 157
c0 69 -54 109 -154 109h-387z" />
    <glyph glyph-name="Rcaron.alt2" horiz-adv-x="808" 
d="M451 790l-169 104l23 33l174 -108l211 108l16 -32l-202 -105h-53zM12 0l112 705h471c144 0 224 -65 224 -178c0 -122 -100 -206 -226 -220l142 -307h-96l-132 293h-365l-47 -293h-83zM154 366h381c111 0 201 66 201 157c0 69 -54 109 -154 109h-387z" />
    <glyph glyph-name="rcaron" unicode="&#x159;" horiz-adv-x="519" 
d="M298 602l-202 125l22 32l209 -128l250 128l17 -32l-243 -125h-53zM349 526c106 0 172 -65 166 -176l-84 -16c5 80 -32 122 -102 122c-118 0 -193 -92 -216 -235l-35 -221h-76l80 505h69l-8 -96h1c48 74 121 117 205 117z" />
    <glyph glyph-name="uni0156" unicode="&#x156;" horiz-adv-x="849" 
d="M694 -20c-59 0 -88 39 -99 87l-36 143c-13 51 -46 83 -96 83h-321l-47 -293h-83l112 705h471c143 0 225 -66 225 -178c0 -118 -108 -203 -236 -220v-1c32 -14 47 -44 55 -79l33 -136c6 -25 15 -41 38 -41c24 0 51 19 73 45l34 -52c-34 -37 -76 -63 -123 -63zM154 366h381
c106 0 201 67 201 157c0 68 -55 109 -154 109h-387zM278 -241l5 32c51 -11 76 10 77 47c-34 -13 -67 14 -62 49c4 22 24 38 48 38c37 0 58 -35 50 -89c-10 -65 -57 -89 -118 -77z" />
    <glyph glyph-name="uni0156.alt1" horiz-adv-x="814" 
d="M12 0l112 705h471c144 0 225 -65 225 -178c0 -90 -64 -160 -155 -196v-1c68 -18 93 -70 82 -133l-32 -197h-83l32 202c8 61 -20 91 -83 91h-439l-47 -293h-83zM154 366h381c106 0 201 67 201 157c0 69 -54 109 -154 109h-387zM278 -241l5 32c51 -11 76 10 77 47
c-34 -13 -67 14 -62 49c4 22 24 38 48 38c37 0 58 -35 50 -89c-10 -65 -57 -89 -118 -77z" />
    <glyph glyph-name="uni0156.alt2" horiz-adv-x="808" 
d="M12 0l112 705h471c144 0 224 -65 224 -178c0 -122 -100 -206 -226 -220l142 -307h-96l-132 293h-365l-47 -293h-83zM154 366h381c111 0 201 66 201 157c0 69 -54 109 -154 109h-387zM278 -241l5 32c51 -11 76 10 77 47c-34 -13 -67 14 -62 49c4 22 24 38 48 38
c37 0 58 -35 50 -89c-10 -65 -57 -89 -118 -77z" />
    <glyph glyph-name="uni0157" unicode="&#x157;" horiz-adv-x="519" 
d="M349 526c106 0 172 -65 166 -176l-84 -16c5 80 -32 122 -102 122c-118 0 -193 -92 -216 -235l-35 -221h-76l80 505h69l-8 -96h1c48 74 121 117 205 117zM-45 -241l5 32c51 -11 76 10 77 47c-34 -13 -67 14 -62 49c4 22 24 38 48 38c37 0 58 -35 50 -89
c-10 -65 -57 -89 -118 -77z" />
    <glyph glyph-name="Sacute" unicode="&#x15a;" 
d="M450 779l-18 30l179 118l19 -30zM390 -25c-202 0 -350 96 -378 232l76 37c22 -118 144 -195 308 -195c150 0 256 52 256 138c0 60 -61 97 -204 126l-108 23c-160 32 -229 85 -229 182c0 145 145 212 305 212c166 0 286 -72 325 -174l-71 -41c-32 84 -126 141 -258 141
s-216 -50 -216 -128c0 -58 49 -92 165 -115l104 -22c189 -38 271 -98 271 -200c0 -148 -165 -216 -346 -216z" />
    <glyph glyph-name="sacute" unicode="&#x15b;" horiz-adv-x="655" 
d="M374 598l-18 30l210 138l18 -30zM331 -20c-178 0 -308 75 -322 177l69 26c12 -80 111 -136 253 -136c109 0 209 29 209 95c0 38 -48 60 -158 75l-97 16c-135 17 -196 56 -196 130c0 109 123 162 251 162c130 0 225 -51 268 -129l-58 -34c-34 61 -113 99 -210 99
c-83 0 -175 -26 -175 -89c0 -36 41 -57 134 -71l96 -15c152 -20 219 -61 219 -137c0 -113 -126 -169 -283 -169z" />
    <glyph glyph-name="Scedilla" unicode="&#x15e;" 
d="M465 391c189 -38 271 -98 271 -200c0 -148 -165 -216 -346 -216h-18l-7 -24c58 -4 93 -30 84 -84c-6 -42 -49 -73 -103 -73c-40 0 -74 23 -86 54l34 23c7 -23 31 -39 58 -39c32 0 56 15 59 39c5 28 -19 45 -60 45h-33l17 61c-173 16 -298 107 -323 230l76 37
c22 -118 144 -195 308 -195c150 0 256 52 256 138c0 60 -61 97 -204 126l-108 23c-160 32 -229 85 -229 182c0 145 145 212 305 212c166 0 286 -72 325 -174l-71 -41c-32 84 -126 141 -258 141s-216 -50 -216 -128c0 -58 49 -92 165 -115z" />
    <glyph glyph-name="scedilla" unicode="&#x15f;" horiz-adv-x="655" 
d="M331 -20h-13l-9 -29c58 -4 93 -30 84 -84c-6 -42 -49 -73 -103 -73c-40 0 -74 23 -86 54l34 23c7 -23 31 -39 58 -39c32 0 56 15 59 39c5 28 -19 45 -60 45h-33l18 66c-151 13 -258 83 -271 175l69 26c12 -80 111 -136 253 -136c109 0 209 29 209 95c0 38 -48 60 -158 75
l-97 16c-135 17 -196 56 -196 130c0 109 123 162 251 162c130 0 225 -51 268 -129l-58 -34c-34 61 -113 99 -210 99c-83 0 -175 -26 -175 -89c0 -36 41 -57 134 -71l96 -15c152 -20 219 -61 219 -137c0 -113 -126 -169 -283 -169z" />
    <glyph glyph-name="Scaron" unicode="&#x160;" 
d="M424 790l-169 104l23 33l174 -108l211 108l16 -32l-202 -105h-53zM390 -25c-202 0 -350 96 -378 232l76 37c22 -118 144 -195 308 -195c150 0 256 52 256 138c0 60 -61 97 -204 126l-108 23c-160 32 -229 85 -229 182c0 145 145 212 305 212c166 0 286 -72 325 -174
l-71 -41c-32 84 -126 141 -258 141s-216 -50 -216 -128c0 -58 49 -92 165 -115l104 -22c189 -38 271 -98 271 -200c0 -148 -165 -216 -346 -216z" />
    <glyph glyph-name="scaron" unicode="&#x161;" horiz-adv-x="655" 
d="M346 602l-202 125l22 32l209 -128l250 128l17 -32l-243 -125h-53zM331 -20c-178 0 -308 75 -322 177l69 26c12 -80 111 -136 253 -136c109 0 209 29 209 95c0 38 -48 60 -158 75l-97 16c-135 17 -196 56 -196 130c0 109 123 162 251 162c130 0 225 -51 268 -129l-58 -34
c-34 61 -113 99 -210 99c-83 0 -175 -26 -175 -89c0 -36 41 -57 134 -71l96 -15c152 -20 219 -61 219 -137c0 -113 -126 -169 -283 -169z" />
    <glyph glyph-name="uni0218" unicode="&#x218;" 
d="M390 -25c-202 0 -350 96 -378 232l76 37c22 -118 144 -195 308 -195c150 0 256 52 256 138c0 60 -61 97 -204 126l-108 23c-160 32 -229 85 -229 182c0 145 145 212 305 212c166 0 286 -72 325 -174l-71 -41c-32 84 -126 141 -258 141s-216 -50 -216 -128
c0 -58 49 -92 165 -115l104 -22c189 -38 271 -98 271 -200c0 -148 -165 -216 -346 -216zM274 -241l5 32c51 -11 76 10 77 47c-34 -13 -67 14 -62 49c4 22 24 38 48 38c37 0 58 -35 50 -89c-10 -65 -57 -89 -118 -77z" />
    <glyph glyph-name="uni0219" unicode="&#x219;" horiz-adv-x="655" 
d="M331 -20c-178 0 -308 75 -322 177l69 26c12 -80 111 -136 253 -136c109 0 209 29 209 95c0 38 -48 60 -158 75l-97 16c-135 17 -196 56 -196 130c0 109 123 162 251 162c130 0 225 -51 268 -129l-58 -34c-34 61 -113 99 -210 99c-83 0 -175 -26 -175 -89
c0 -36 41 -57 134 -71l96 -15c152 -20 219 -61 219 -137c0 -113 -126 -169 -283 -169zM218 -241l5 32c51 -11 76 10 77 47c-34 -13 -67 14 -62 49c4 22 24 38 48 38c37 0 58 -35 50 -89c-10 -65 -57 -89 -118 -77z" />
    <glyph glyph-name="Scircumflex" unicode="&#x15c;" 
d="M258 781l-14 32l200 105h53l169 -105l-23 -32l-176 108zM390 -25c-202 0 -350 96 -378 232l76 37c22 -118 144 -195 308 -195c150 0 256 52 256 138c0 60 -61 97 -204 126l-108 23c-160 32 -229 85 -229 182c0 145 145 212 305 212c166 0 286 -72 325 -174l-71 -41
c-32 84 -126 141 -258 141s-216 -50 -216 -128c0 -58 49 -92 165 -115l104 -22c189 -38 271 -98 271 -200c0 -148 -165 -216 -346 -216z" />
    <glyph glyph-name="scircumflex" unicode="&#x15d;" horiz-adv-x="655" 
d="M145 591l-16 32l242 125h52l203 -125l-22 -32l-210 128zM331 -20c-178 0 -308 75 -322 177l69 26c12 -80 111 -136 253 -136c109 0 209 29 209 95c0 38 -48 60 -158 75l-97 16c-135 17 -196 56 -196 130c0 109 123 162 251 162c130 0 225 -51 268 -129l-58 -34
c-34 61 -113 99 -210 99c-83 0 -175 -26 -175 -89c0 -36 41 -57 134 -71l96 -15c152 -20 219 -61 219 -137c0 -113 -126 -169 -283 -169z" />
    <glyph glyph-name="Tcaron" unicode="&#x164;" horiz-adv-x="727" 
d="M424 790l-169 104l23 33l174 -108l211 108l16 -32l-202 -105h-53zM282 0l100 632h-316l12 73h715l-12 -73h-316l-100 -632h-83z" />
    <glyph glyph-name="tcaron" unicode="&#x165;" horiz-adv-x="594" 
d="M388 576l5 33c51 -12 76 9 77 46c-34 -13 -67 14 -61 50c3 22 23 38 47 38c37 0 59 -36 50 -90c-10 -65 -57 -89 -118 -77zM328 -20c-128 0 -193 69 -174 183l44 278h-168l10 64h167l25 158l80 18l-28 -176h309l-10 -64h-308l-44 -271c-12 -78 26 -124 101 -124
c68 0 139 47 167 111l62 -36c-38 -84 -136 -141 -233 -141z" />
    <glyph glyph-name="uni021A" unicode="&#x21a;" horiz-adv-x="727" 
d="M282 0l100 632h-316l12 73h715l-12 -73h-316l-100 -632h-83zM238 -241l5 32c51 -11 76 10 77 47c-34 -13 -67 14 -62 49c4 22 24 38 48 38c37 0 58 -35 50 -89c-10 -65 -57 -89 -118 -77z" />
    <glyph glyph-name="uni021B" unicode="&#x21b;" horiz-adv-x="594" 
d="M328 -20c-128 0 -193 69 -174 183l44 278h-168l10 64h167l25 158l80 18l-28 -176h309l-10 -64h-308l-44 -271c-12 -78 26 -124 101 -124c68 0 139 47 167 111l62 -36c-38 -84 -136 -141 -233 -141zM245 -241l5 32c51 -11 76 10 77 47c-34 -13 -67 14 -62 49
c4 22 24 38 48 38c37 0 58 -35 50 -89c-10 -65 -57 -89 -118 -77z" />
    <glyph glyph-name="uni0162" unicode="&#x162;" horiz-adv-x="727" 
d="M78 705h715l-12 -73h-316l-100 -632h-22l-14 -49c58 -4 93 -30 84 -84c-6 -42 -49 -73 -103 -73c-40 0 -74 23 -86 54l34 23c7 -23 31 -39 58 -39c32 0 56 15 59 39c5 28 -19 45 -60 45h-33l23 84h-23l100 632h-316z" />
    <glyph glyph-name="uni0163" unicode="&#x163;" horiz-adv-x="594" 
d="M275 441l-44 -271c-12 -78 26 -124 101 -124c68 0 139 47 167 111l62 -36c-36 -79 -125 -134 -216 -140l-9 -30c58 -4 93 -30 84 -84c-6 -42 -49 -73 -103 -73c-40 0 -74 23 -86 54l34 23c7 -23 31 -39 58 -39c32 0 56 15 59 39c5 28 -19 45 -60 45h-33l18 65
c-114 7 -171 74 -153 182l44 278h-168l10 64h167l25 158l80 18l-28 -176h309l-10 -64h-308z" />
    <glyph glyph-name="Ugrave" unicode="&#xd9;" horiz-adv-x="816" 
d="M497 780l-142 118l24 27l142 -118zM369 -25c-240 0 -355 117 -321 322l66 408h84l-65 -416c-24 -153 57 -241 235 -241c183 0 305 88 329 247l66 410h82l-66 -415c-32 -202 -179 -315 -410 -315z" />
    <glyph glyph-name="ugrave" unicode="&#xf9;" horiz-adv-x="697" 
d="M407 599l-167 138l27 30l167 -138zM267 -20c-171 0 -258 93 -234 245l44 280h77l-44 -277c-18 -114 47 -179 174 -179c162 0 276 88 299 227l36 229h76l-80 -505h-69l10 109h-1c-58 -82 -164 -129 -288 -129z" />
    <glyph glyph-name="ugrave.alt1" horiz-adv-x="692" 
d="M407 599l-167 138l27 30l167 -138zM306 -20c-201 0 -298 92 -271 257l42 268h76l-43 -273c-19 -118 52 -183 199 -183c152 0 247 67 267 188l42 268h77l-44 -273c-25 -162 -148 -252 -345 -252z" />
    <glyph glyph-name="Uacute" unicode="&#xda;" horiz-adv-x="816" 
d="M493 779l-18 30l179 118l19 -30zM369 -25c-240 0 -355 117 -321 322l66 408h84l-65 -416c-24 -153 57 -241 235 -241c183 0 305 88 329 247l66 410h82l-66 -415c-32 -202 -179 -315 -410 -315z" />
    <glyph glyph-name="uacute" unicode="&#xfa;" horiz-adv-x="697" 
d="M404 598l-18 30l210 138l18 -30zM267 -20c-171 0 -258 93 -234 245l44 280h77l-44 -277c-18 -114 47 -179 174 -179c162 0 276 88 299 227l36 229h76l-80 -505h-69l10 109h-1c-58 -82 -164 -129 -288 -129z" />
    <glyph glyph-name="uacute.alt1" horiz-adv-x="692" 
d="M405 598l-18 30l210 138l18 -30zM306 -20c-201 0 -298 92 -271 257l42 268h76l-43 -273c-19 -118 52 -183 199 -183c152 0 247 67 267 188l42 268h77l-44 -273c-25 -162 -148 -252 -345 -252z" />
    <glyph glyph-name="Ucircumflex" unicode="&#xdb;" horiz-adv-x="816" 
d="M301 781l-14 32l200 105h53l169 -105l-23 -32l-176 108zM369 -25c-240 0 -355 117 -321 322l66 408h84l-65 -416c-24 -153 57 -241 235 -241c183 0 305 88 329 247l66 410h82l-66 -415c-32 -202 -179 -315 -410 -315z" />
    <glyph glyph-name="ucircumflex" unicode="&#xfb;" horiz-adv-x="697" 
d="M176 591l-16 32l242 125h52l203 -125l-22 -32l-210 128zM267 -20c-171 0 -258 93 -234 245l44 280h77l-44 -277c-18 -114 47 -179 174 -179c162 0 276 88 299 227l36 229h76l-80 -505h-69l10 109h-1c-58 -82 -164 -129 -288 -129z" />
    <glyph glyph-name="ucircumflex.alt1" horiz-adv-x="692" 
d="M177 591l-16 32l242 125h52l203 -125l-22 -32l-210 128zM306 -20c-201 0 -298 92 -271 257l42 268h76l-43 -273c-19 -118 52 -183 199 -183c152 0 247 67 267 188l42 268h77l-44 -273c-25 -162 -148 -252 -345 -252z" />
    <glyph glyph-name="Utilde" unicode="&#x168;" horiz-adv-x="816" 
d="M602 780c-51 0 -82 27 -108 54c-26 26 -51 52 -94 52c-54 0 -97 -41 -106 -96h-37c12 77 73 133 148 133c59 0 90 -34 119 -63c23 -22 46 -43 83 -43c54 0 98 41 107 97h37c-12 -78 -74 -134 -149 -134zM369 -25c-240 0 -355 117 -321 322l66 408h84l-65 -416
c-24 -153 57 -241 235 -241c183 0 305 88 329 247l66 410h82l-66 -415c-32 -202 -179 -315 -410 -315z" />
    <glyph glyph-name="utilde" unicode="&#x169;" horiz-adv-x="697" 
d="M511 590c-53 0 -82 29 -110 57c-25 25 -50 50 -91 50c-54 0 -96 -42 -106 -97h-36c12 77 75 133 150 133c55 0 83 -30 111 -58c24 -24 48 -48 89 -48c54 0 91 41 109 97h35c-20 -78 -77 -134 -151 -134zM267 -20c-171 0 -258 93 -234 245l44 280h77l-44 -277
c-18 -114 47 -179 174 -179c162 0 276 88 299 227l36 229h76l-80 -505h-69l10 109h-1c-58 -82 -164 -129 -288 -129z" />
    <glyph glyph-name="utilde.alt1" horiz-adv-x="692" 
d="M511 590c-53 0 -82 29 -110 57c-25 25 -50 50 -91 50c-54 0 -96 -42 -106 -97h-36c12 77 75 133 150 133c55 0 83 -30 111 -58c24 -24 48 -48 89 -48c54 0 91 41 109 97h35c-20 -78 -77 -134 -151 -134zM306 -20c-201 0 -298 92 -271 257l42 268h76l-43 -273
c-19 -118 52 -183 199 -183c152 0 247 67 267 188l42 268h77l-44 -273c-25 -162 -148 -252 -345 -252z" />
    <glyph glyph-name="Umacron" unicode="&#x16a;" horiz-adv-x="816" 
d="M282 798l6 37h424l-6 -37h-424zM369 -25c-240 0 -355 117 -321 322l66 408h84l-65 -416c-24 -153 57 -241 235 -241c183 0 305 88 329 247l66 410h82l-66 -415c-32 -202 -179 -315 -410 -315z" />
    <glyph glyph-name="umacron" unicode="&#x16b;" horiz-adv-x="697" 
d="M192 598l6 37h424l-6 -37h-424zM267 -20c-171 0 -258 93 -234 245l44 280h77l-44 -277c-18 -114 47 -179 174 -179c162 0 276 88 299 227l36 229h76l-80 -505h-69l10 109h-1c-58 -82 -164 -129 -288 -129z" />
    <glyph glyph-name="umacron.alt1" horiz-adv-x="692" 
d="M193 598l6 37h424l-6 -37h-424zM306 -20c-201 0 -298 92 -271 257l42 268h76l-43 -273c-19 -118 52 -183 199 -183c152 0 247 67 267 188l42 268h77l-44 -273c-25 -162 -148 -252 -345 -252z" />
    <glyph glyph-name="Ubreve" unicode="&#x16c;" horiz-adv-x="816" 
d="M492 790c-112 0 -185 53 -173 128h37c-9 -54 50 -92 140 -92c91 0 163 38 172 92h39c-12 -75 -102 -128 -215 -128zM369 -25c-240 0 -355 117 -321 322l66 408h84l-65 -416c-24 -153 57 -241 235 -241c183 0 305 88 329 247l66 410h82l-66 -415
c-32 -202 -179 -315 -410 -315z" />
    <glyph glyph-name="ubreve" unicode="&#x16d;" horiz-adv-x="697" 
d="M402 592c-134 0 -220 65 -206 156h36c-11 -69 62 -119 173 -119c113 0 203 50 214 119h38c-14 -91 -121 -156 -255 -156zM267 -20c-171 0 -258 93 -234 245l44 280h77l-44 -277c-18 -114 47 -179 174 -179c162 0 276 88 299 227l36 229h76l-80 -505h-69l10 109h-1
c-58 -82 -164 -129 -288 -129z" />
    <glyph glyph-name="ubreve.alt1" horiz-adv-x="692" 
d="M403 592c-134 0 -220 65 -206 156h36c-11 -69 62 -119 173 -119c113 0 203 50 214 119h38c-14 -91 -121 -156 -255 -156zM306 -20c-201 0 -298 92 -271 257l42 268h76l-43 -273c-19 -118 52 -183 199 -183c152 0 247 67 267 188l42 268h77l-44 -273
c-25 -162 -148 -252 -345 -252z" />
    <glyph glyph-name="Uring" unicode="&#x16e;" horiz-adv-x="816" 
d="M492 782c-49 0 -79 31 -79 76c0 63 48 110 108 110c48 0 80 -31 80 -76c0 -59 -48 -110 -109 -110zM497 818c38 0 65 33 65 67c0 28 -19 47 -48 47c-35 0 -65 -30 -65 -68c0 -27 20 -46 48 -46zM369 -25c-240 0 -355 117 -321 322l66 408h84l-65 -416
c-24 -153 57 -241 235 -241c183 0 305 88 329 247l66 410h82l-66 -415c-32 -202 -179 -315 -410 -315z" />
    <glyph glyph-name="uring" unicode="&#x16f;" horiz-adv-x="697" 
d="M402 592c-49 0 -79 31 -79 76c0 64 47 110 109 110c48 0 79 -31 79 -76c0 -64 -48 -110 -109 -110zM408 628c36 0 65 29 65 68c0 28 -18 46 -48 46c-37 0 -66 -32 -66 -67c0 -29 20 -47 49 -47zM267 -20c-171 0 -258 93 -234 245l44 280h77l-44 -277
c-18 -114 47 -179 174 -179c162 0 276 88 299 227l36 229h76l-80 -505h-69l10 109h-1c-58 -82 -164 -129 -288 -129z" />
    <glyph glyph-name="uring.alt1" horiz-adv-x="692" 
d="M403 592c-49 0 -79 31 -79 76c0 64 47 110 109 110c48 0 79 -31 79 -76c0 -64 -48 -110 -109 -110zM409 628c36 0 65 29 65 68c0 28 -18 46 -48 46c-37 0 -66 -32 -66 -67c0 -29 20 -47 49 -47zM306 -20c-201 0 -298 92 -271 257l42 268h76l-43 -273
c-19 -118 52 -183 199 -183c152 0 247 67 267 188l42 268h77l-44 -273c-25 -162 -148 -252 -345 -252z" />
    <glyph glyph-name="Uhungarumlaut" unicode="&#x170;" horiz-adv-x="816" 
d="M373 773l-18 30l179 118l19 -30zM589 773l-18 30l179 118l19 -30zM369 -25c-240 0 -355 117 -321 322l66 408h84l-65 -416c-24 -153 57 -241 235 -241c183 0 305 88 329 247l66 410h82l-66 -415c-32 -202 -179 -315 -410 -315z" />
    <glyph glyph-name="uhungarumlaut" unicode="&#x171;" horiz-adv-x="697" 
d="M292 598l-18 30l210 138l18 -30zM506 598l-17 30l210 138l18 -30zM267 -20c-171 0 -258 93 -234 245l44 280h77l-44 -277c-18 -114 47 -179 174 -179c162 0 276 88 299 227l36 229h76l-80 -505h-69l10 109h-1c-58 -82 -164 -129 -288 -129z" />
    <glyph glyph-name="uhungarumlaut.alt1" horiz-adv-x="692" 
d="M292 598l-18 30l210 138l18 -30zM506 598l-17 30l210 138l18 -30zM306 -20c-201 0 -298 92 -271 257l42 268h76l-43 -273c-19 -118 52 -183 199 -183c152 0 247 67 267 188l42 268h77l-44 -273c-25 -162 -148 -252 -345 -252z" />
    <glyph glyph-name="Udieresis" unicode="&#xdc;" horiz-adv-x="816" 
d="M344 803c-32 0 -52 23 -47 55c6 32 33 55 65 55c33 0 53 -23 48 -55s-33 -55 -66 -55zM645 803c-33 0 -51 23 -46 55s31 55 64 55s52 -23 47 -55s-32 -55 -65 -55zM369 -25c-240 0 -355 117 -321 322l66 408h84l-65 -416c-24 -153 57 -241 235 -241c183 0 305 88 329 247
l66 410h82l-66 -415c-32 -202 -179 -315 -410 -315z" />
    <glyph glyph-name="udieresis" unicode="&#xfc;" horiz-adv-x="697" 
d="M251 604c-29 0 -48 19 -48 46c0 37 29 64 65 64c30 0 50 -18 50 -45c0 -37 -31 -65 -67 -65zM558 604c-29 0 -47 18 -47 45c0 38 28 65 64 65c30 0 49 -18 49 -45c0 -37 -30 -65 -66 -65zM267 -20c-171 0 -258 93 -234 245l44 280h77l-44 -277c-18 -114 47 -179 174 -179
c162 0 276 88 299 227l36 229h76l-80 -505h-69l10 109h-1c-58 -82 -164 -129 -288 -129z" />
    <glyph glyph-name="udieresis.alt1" horiz-adv-x="692" 
d="M252 604c-29 0 -48 19 -48 46c0 37 29 64 65 64c30 0 50 -18 50 -45c0 -37 -31 -65 -67 -65zM559 604c-29 0 -47 18 -47 45c0 38 28 65 64 65c30 0 49 -18 49 -45c0 -37 -30 -65 -66 -65zM306 -20c-201 0 -298 92 -271 257l42 268h76l-43 -273c-19 -118 52 -183 199 -183
c152 0 247 67 267 188l42 268h77l-44 -273c-25 -162 -148 -252 -345 -252z" />
    <glyph glyph-name="Uogonek" unicode="&#x172;" horiz-adv-x="816" 
d="M763 705h82l-66 -415c-25 -155 -117 -258 -264 -297c-110 -39 -182 -72 -189 -121c-4 -27 18 -44 56 -44c30 0 64 19 88 42l21 -26c-31 -30 -78 -50 -117 -50c-60 0 -94 31 -88 77c6 43 41 75 98 104h-15c-240 0 -355 117 -321 322l66 408h84l-65 -416
c-24 -153 57 -241 235 -241c183 0 305 88 329 247z" />
    <glyph glyph-name="uogonek" unicode="&#x173;" horiz-adv-x="697" 
d="M615 0c-122 -42 -203 -76 -210 -128c-4 -27 18 -44 56 -44c30 0 64 19 88 42l21 -26c-31 -30 -78 -50 -117 -50c-60 0 -94 31 -88 77c8 61 76 100 182 141l9 97h-1c-58 -82 -164 -129 -288 -129c-171 0 -258 93 -234 245l44 280h77l-44 -277c-18 -114 47 -179 174 -179
c162 0 276 88 299 227l36 229h76z" />
    <glyph glyph-name="uogonek.alt1" horiz-adv-x="692" 
d="M618 505h77l-44 -273c-19 -124 -95 -205 -217 -237c-114 -40 -189 -73 -196 -123c-4 -27 18 -44 56 -44c30 0 64 19 88 42l21 -26c-31 -30 -78 -50 -117 -50c-60 0 -94 31 -88 77c6 45 45 78 108 109c-201 0 -298 92 -271 257l42 268h76l-43 -273
c-19 -118 52 -183 199 -183c152 0 247 67 267 188z" />
    <glyph glyph-name="Wgrave" unicode="&#x1e80;" horiz-adv-x="1306" 
d="M743 780l-142 118l24 27l142 -118zM254 0l-180 705h89l159 -624h2l337 624h126l140 -624h1l358 624h91l-402 -705h-117l-143 624h-2l-343 -624h-116z" />
    <glyph glyph-name="wgrave" unicode="&#x1e81;" horiz-adv-x="1118" 
d="M618 599l-167 138l27 30l167 -138zM218 0l-174 505h82l150 -438h1l273 438h99l136 -439h1l287 439h84l-328 -505h-102l-136 438h-1l-271 -438h-101z" />
    <glyph glyph-name="Wacute" unicode="&#x1e82;" horiz-adv-x="1306" 
d="M740 779l-18 30l179 118l19 -30zM254 0l-180 705h89l159 -624h2l337 624h126l140 -624h1l358 624h91l-402 -705h-117l-143 624h-2l-343 -624h-116z" />
    <glyph glyph-name="wacute" unicode="&#x1e83;" horiz-adv-x="1118" 
d="M616 598l-18 30l210 138l18 -30zM218 0l-174 505h82l150 -438h1l273 438h99l136 -439h1l287 439h84l-328 -505h-102l-136 438h-1l-271 -438h-101z" />
    <glyph glyph-name="Wcircumflex" unicode="&#x174;" horiz-adv-x="1306" 
d="M547 781l-14 32l200 105h53l169 -105l-23 -32l-176 108zM254 0l-180 705h89l159 -624h2l337 624h126l140 -624h1l358 624h91l-402 -705h-117l-143 624h-2l-343 -624h-116z" />
    <glyph glyph-name="wcircumflex" unicode="&#x175;" horiz-adv-x="1118" 
d="M388 591l-16 32l242 125h52l203 -125l-22 -32l-210 128zM218 0l-174 505h82l150 -438h1l273 438h99l136 -439h1l287 439h84l-328 -505h-102l-136 438h-1l-271 -438h-101z" />
    <glyph glyph-name="Wdieresis" unicode="&#x1e84;" horiz-adv-x="1306" 
d="M590 803c-32 0 -52 23 -47 55c6 32 33 55 65 55c33 0 53 -23 48 -55s-33 -55 -66 -55zM891 803c-33 0 -51 23 -46 55s31 55 64 55s52 -23 47 -55s-32 -55 -65 -55zM254 0l-180 705h89l159 -624h2l337 624h126l140 -624h1l358 624h91l-402 -705h-117l-143 624h-2
l-343 -624h-116z" />
    <glyph glyph-name="wdieresis" unicode="&#x1e85;" horiz-adv-x="1118" 
d="M463 604c-29 0 -48 19 -48 46c0 37 29 64 65 64c30 0 50 -18 50 -45c0 -37 -31 -65 -67 -65zM770 604c-29 0 -47 18 -47 45c0 38 28 65 64 65c30 0 49 -18 49 -45c0 -37 -30 -65 -66 -65zM218 0l-174 505h82l150 -438h1l273 438h99l136 -439h1l287 439h84l-328 -505h-102
l-136 438h-1l-271 -438h-101z" />
    <glyph glyph-name="Ygrave" unicode="&#x1ef2;" horiz-adv-x="753" 
d="M466 780l-142 118l24 27l142 -118zM296 0l42 262l-264 443h103l211 -366h1l329 366h106l-403 -443l-42 -262h-83z" />
    <glyph glyph-name="ygrave" unicode="&#x1ef3;" horiz-adv-x="699" 
d="M410 599l-167 138l27 30l167 -138zM241 -230c-160 0 -290 63 -331 123l50 53c48 -56 153 -107 282 -107c165 0 282 82 305 206l9 47h-1c-56 -82 -161 -132 -269 -132c-176 0 -275 112 -249 278l42 267h76l-42 -265c-20 -128 53 -211 182 -211c148 0 266 98 289 242
l37 234h76l-74 -466c-26 -166 -176 -269 -382 -269z" />
    <glyph glyph-name="ygrave.alt1" horiz-adv-x="667" 
d="M402 599l-167 138l27 30l167 -138zM102 -210l187 248l-247 467h87l209 -389h1l282 389h85l-519 -715h-85z" />
    <glyph glyph-name="Yacute" unicode="&#xdd;" horiz-adv-x="753" 
d="M462 779l-18 30l179 118l19 -30zM296 0l42 262l-264 443h103l211 -366h1l329 366h106l-403 -443l-42 -262h-83z" />
    <glyph glyph-name="yacute" unicode="&#xfd;" horiz-adv-x="699" 
d="M407 598l-18 30l210 138l18 -30zM241 -230c-160 0 -290 63 -331 123l50 53c48 -56 153 -107 282 -107c165 0 282 82 305 206l9 47h-1c-56 -82 -161 -132 -269 -132c-176 0 -275 112 -249 278l42 267h76l-42 -265c-20 -128 53 -211 182 -211c148 0 266 98 289 242l37 234
h76l-74 -466c-26 -166 -176 -269 -382 -269z" />
    <glyph glyph-name="yacute.alt1" horiz-adv-x="667" 
d="M399 598l-18 30l210 138l18 -30zM102 -210l187 248l-247 467h87l209 -389h1l282 389h85l-519 -715h-85z" />
    <glyph glyph-name="Ydieresis" unicode="&#x178;" horiz-adv-x="753" 
d="M313 803c-32 0 -52 23 -47 55c6 32 33 55 65 55c33 0 53 -23 48 -55s-33 -55 -66 -55zM614 803c-33 0 -51 23 -46 55s31 55 64 55s52 -23 47 -55s-32 -55 -65 -55zM296 0l42 262l-264 443h103l211 -366h1l329 366h106l-403 -443l-42 -262h-83z" />
    <glyph glyph-name="ydieresis" unicode="&#xff;" horiz-adv-x="699" 
d="M254 604c-29 0 -48 19 -48 46c0 37 29 64 65 64c30 0 50 -18 50 -45c0 -37 -31 -65 -67 -65zM561 604c-29 0 -47 18 -47 45c0 38 28 65 64 65c30 0 49 -18 49 -45c0 -37 -30 -65 -66 -65zM241 -230c-160 0 -290 63 -331 123l50 53c48 -56 153 -107 282 -107
c165 0 282 82 305 206l9 47h-1c-56 -82 -161 -132 -269 -132c-176 0 -275 112 -249 278l42 267h76l-42 -265c-20 -128 53 -211 182 -211c148 0 266 98 289 242l37 234h76l-74 -466c-26 -166 -176 -269 -382 -269z" />
    <glyph glyph-name="ydieresis.alt1" horiz-adv-x="667" 
d="M246 604c-29 0 -48 19 -48 46c0 37 29 64 65 64c30 0 50 -18 50 -45c0 -37 -31 -65 -67 -65zM553 604c-29 0 -47 18 -47 45c0 38 28 65 64 65c30 0 49 -18 49 -45c0 -37 -30 -65 -66 -65zM102 -210l187 248l-247 467h87l209 -389h1l282 389h85l-519 -715h-85z" />
    <glyph glyph-name="Ycircumflex" unicode="&#x176;" horiz-adv-x="753" 
d="M270 781l-14 32l200 105h53l169 -105l-23 -32l-176 108zM296 0l42 262l-264 443h103l211 -366h1l329 366h106l-403 -443l-42 -262h-83z" />
    <glyph glyph-name="ycircumflex" unicode="&#x177;" horiz-adv-x="699" 
d="M179 591l-16 32l242 125h52l203 -125l-22 -32l-210 128zM241 -230c-160 0 -290 63 -331 123l50 53c48 -56 153 -107 282 -107c165 0 282 82 305 206l9 47h-1c-56 -82 -161 -132 -269 -132c-176 0 -275 112 -249 278l42 267h76l-42 -265c-20 -128 53 -211 182 -211
c148 0 266 98 289 242l37 234h76l-74 -466c-26 -166 -176 -269 -382 -269z" />
    <glyph glyph-name="ycircumflex.alt1" horiz-adv-x="667" 
d="M171 591l-16 32l242 125h52l203 -125l-22 -32l-210 128zM102 -210l187 248l-247 467h87l209 -389h1l282 389h85l-519 -715h-85z" />
    <glyph glyph-name="Zacute" unicode="&#x179;" horiz-adv-x="745" 
d="M467 779l-18 30l179 118l19 -30zM-26 0l15 97l697 535h-602l12 73h697l-15 -97l-697 -536h621l-11 -72h-717z" />
    <glyph glyph-name="zacute" unicode="&#x17a;" horiz-adv-x="654" 
d="M391 598l-18 30l210 138l18 -30zM-20 0l13 84l556 352h-490l11 69h594l-12 -84l-557 -352h510l-11 -69h-614z" />
    <glyph glyph-name="Zdotaccent" unicode="&#x17b;" horiz-adv-x="745" 
d="M468 803c-29 0 -47 19 -47 46c0 37 29 65 65 65c30 0 49 -18 49 -45c0 -38 -30 -66 -67 -66zM-26 0l15 97l697 535h-602l12 73h697l-15 -97l-697 -536h621l-11 -72h-717z" />
    <glyph glyph-name="zdotaccent" unicode="&#x17c;" horiz-adv-x="654" 
d="M391 603c-29 0 -48 19 -48 45c0 38 29 66 65 66c30 0 50 -18 50 -46c0 -38 -31 -65 -67 -65zM-20 0l13 84l556 352h-490l11 69h594l-12 -84l-557 -352h510l-11 -69h-614z" />
    <glyph glyph-name="Zcaron" unicode="&#x17d;" horiz-adv-x="745" 
d="M441 790l-169 104l23 33l174 -108l211 108l16 -32l-202 -105h-53zM-26 0l15 97l697 535h-602l12 73h697l-15 -97l-697 -536h621l-11 -72h-717z" />
    <glyph glyph-name="zcaron" unicode="&#x17e;" horiz-adv-x="654" 
d="M364 602l-202 125l22 32l209 -128l250 128l17 -32l-243 -125h-53zM-20 0l13 84l556 352h-490l11 69h594l-12 -84l-557 -352h510l-11 -69h-614z" />
    <glyph glyph-name="uni1E9E" unicode="&#x1e9e;" horiz-adv-x="747" 
d="M514 287c135 -27 193 -67 193 -145c0 -109 -123 -159 -255 -159c-154 0 -260 67 -271 174l73 28c8 -84 84 -135 199 -135c88 0 178 18 178 87c0 38 -41 62 -135 82l-88 20c-107 22 -152 56 -152 113c0 118 168 155 367 168c7 13 11 28 11 44c0 58 -79 95 -193 95
c-148 0 -263 -64 -280 -175l-77 -484h-84l79 497c24 152 170 233 367 233c161 0 267 -61 267 -162c0 -35 -11 -79 -29 -111c-272 -6 -349 -55 -349 -98c-1 -23 27 -40 92 -53z" />
    <glyph glyph-name="germandbls" unicode="&#xdf;" horiz-adv-x="712" 
d="M487 289c129 -28 184 -70 184 -147c0 -100 -91 -159 -236 -159c-153 0 -258 68 -269 174l74 28c8 -84 82 -135 195 -135c98 0 160 33 160 87c0 41 -38 65 -128 85l-76 18c-104 21 -149 55 -149 112c0 116 148 155 343 167c8 18 13 38 13 56c0 65 -64 106 -172 106
c-142 0 -246 -75 -263 -181l-79 -500h-84l81 514c24 145 161 239 351 239c155 0 246 -66 246 -176c0 -39 -11 -84 -30 -121c-269 -4 -327 -54 -328 -96c0 -23 27 -40 90 -54z" />
    <glyph glyph-name="ampersand" unicode="&#x26;" horiz-adv-x="862" 
d="M663 122l158 -123h-120l-100 77c-98 -65 -210 -102 -320 -102c-156 0 -262 73 -262 192c0 113 79 179 189 216c-33 32 -59 71 -59 123c0 125 122 216 282 216c125 0 230 -58 230 -162c0 -107 -90 -169 -298 -208l241 -183c59 47 110 107 144 172l61 -47
c-38 -63 -87 -122 -146 -171zM433 648c-107 0 -204 -54 -204 -141c0 -38 23 -71 70 -108c200 33 286 80 286 155c0 63 -73 94 -152 94zM289 49c90 0 175 29 250 74l-276 213c-107 -26 -162 -91 -162 -164c0 -79 77 -123 188 -123z" />
    <glyph glyph-name="zero" unicode="0" horiz-adv-x="861" 
d="M391 -25c-204 0 -329 128 -329 312c0 247 193 443 440 443c204 0 329 -128 329 -313c0 -246 -193 -442 -440 -442zM393 42c203 0 355 173 355 376c0 145 -92 245 -248 245c-204 0 -355 -174 -355 -376c0 -146 91 -245 248 -245z" />
    <glyph glyph-name="one" unicode="1" horiz-adv-x="647" 
d="M-18 0l12 74h294l83 518h-1c-52 -57 -136 -94 -254 -127l-11 76c129 33 224 83 289 166l76 -2l-99 -631h236l-11 -74h-614z" />
    <glyph glyph-name="two" unicode="2" horiz-adv-x="707" 
d="M-5 0l11 64c24 158 106 238 280 280l126 31c130 33 189 82 189 158c0 73 -63 123 -162 123c-105 0 -213 -64 -280 -167l-54 54c77 113 209 187 339 187c146 0 239 -77 239 -197c0 -113 -80 -186 -252 -230l-129 -34c-133 -34 -194 -91 -210 -195h553l-11 -74h-639z" />
    <glyph glyph-name="three" unicode="3" horiz-adv-x="744" 
d="M347 -25c-192 0 -319 102 -320 241l78 21c-6 -113 88 -189 243 -189c136 0 267 65 267 174c0 73 -73 108 -167 110l-121 2l11 65l103 1c94 3 170 52 170 133c0 70 -65 118 -163 118c-126 0 -230 -77 -257 -181l-78 27c43 136 177 226 340 226c146 0 245 -81 245 -185
c0 -77 -48 -140 -131 -166v-2c83 -20 129 -76 129 -149c0 -147 -160 -246 -349 -246z" />
    <glyph glyph-name="three.alt1" horiz-adv-x="744" 
d="M341 -25c-188 0 -313 101 -310 261l77 21c-9 -133 82 -209 233 -209c142 0 276 72 276 188c0 81 -81 126 -183 126c-41 0 -67 -7 -90 -15l-38 64l282 222l-414 -2l12 74h501l-12 -87l-245 -191c13 2 23 2 38 2c130 -1 230 -80 230 -191c0 -162 -175 -263 -357 -263z" />
    <glyph glyph-name="four" unicode="4" horiz-adv-x="696" 
d="M451 0l26 162h-469l6 52l532 491h100l-75 -471h92l-11 -72h-91l-27 -162h-83zM138 234h350l62 383h-1z" />
    <glyph glyph-name="five" unicode="5" horiz-adv-x="727" 
d="M326 -25c-192 0 -309 96 -301 245l76 19c-11 -116 82 -191 230 -191s279 70 279 198c0 91 -74 149 -199 149c-84 0 -167 -28 -212 -68l-55 18l81 360h454l-12 -69h-386l-51 -225c49 33 126 53 198 53c159 0 265 -77 265 -208c0 -181 -170 -281 -367 -281z" />
    <glyph glyph-name="six" unicode="6" 
d="M460 730c178 0 268 -89 297 -228l-75 -36c-16 119 -89 190 -228 190c-165 0 -284 -124 -317 -320c82 77 175 111 297 111c182 0 296 -83 296 -204c0 -167 -187 -268 -375 -268c-187 0 -303 77 -303 253c0 276 147 502 408 502zM419 376c-161 0 -294 -79 -294 -186
c0 -84 96 -142 237 -142c140 0 285 75 285 190c0 82 -92 138 -228 138z" />
    <glyph glyph-name="seven" unicode="7" horiz-adv-x="662" 
d="M155 3c91 251 243 461 459 630l-541 -2l12 74h636l-9 -69c-216 -171 -370 -385 -460 -639z" />
    <glyph glyph-name="eight" unicode="8" 
d="M344 -24c-192 0 -323 72 -323 190c0 113 97 190 235 215c-76 22 -128 70 -128 141c0 129 142 208 327 208c164 0 276 -62 276 -168c0 -95 -74 -157 -169 -183c97 -22 165 -79 165 -166c0 -149 -166 -237 -383 -237zM406 406c134 0 240 60 240 149c0 68 -79 109 -194 109
c-136 0 -241 -58 -241 -148c0 -68 78 -110 195 -110zM354 44c146 0 284 57 284 167c0 79 -97 129 -237 129c-146 0 -291 -60 -291 -163c0 -85 103 -133 244 -133z" />
    <glyph glyph-name="nine" unicode="9" horiz-adv-x="824" 
d="M362 -25c-192 0 -314 95 -346 228l76 37c18 -115 121 -191 276 -191c176 0 318 128 350 317c-75 -74 -157 -107 -296 -107c-183 0 -296 82 -296 203c0 168 186 268 375 268c188 0 304 -83 304 -252c0 -276 -174 -503 -443 -503zM437 328c142 0 294 73 294 187
c0 84 -94 144 -238 144c-140 0 -284 -76 -284 -193c0 -81 92 -138 228 -138z" />
    <glyph glyph-name="exclam" unicode="!" horiz-adv-x="278" 
d="M103 180l36 336l30 189h84l-30 -189l-71 -336h-49zM101 -12c-32 0 -52 20 -52 50c0 35 26 61 61 61c31 0 52 -21 52 -49c0 -36 -27 -62 -61 -62z" />
    <glyph glyph-name="exclamdown" unicode="&#xa1;" horiz-adv-x="278" 
d="M178 527c31 0 52 -20 52 -50c0 -35 -27 -61 -61 -61c-31 0 -52 20 -52 49c0 36 27 62 61 62zM176 335l-36 -336l-30 -189h-84l30 189l71 336h49z" />
    <glyph glyph-name="question" unicode="?" horiz-adv-x="642" 
d="M238 181c16 101 62 158 155 201l62 29c82 38 120 77 120 130c0 66 -78 115 -184 115c-118 0 -218 -61 -272 -153l-63 48c65 106 194 179 344 179c154 0 258 -78 258 -185c0 -83 -49 -141 -157 -192l-65 -30c-75 -36 -110 -76 -121 -147zM250 -13c-31 0 -51 20 -51 49
c0 36 25 62 59 62c32 0 53 -21 53 -50c0 -36 -27 -61 -61 -61z" />
    <glyph glyph-name="questiondown" unicode="&#xbf;" horiz-adv-x="642" 
d="M374 527c31 0 52 -20 52 -50c0 -35 -25 -61 -60 -61c-32 0 -53 21 -53 50c0 36 27 61 61 61zM386 332c-16 -100 -61 -157 -154 -200l-62 -29c-83 -38 -120 -77 -120 -130c0 -66 77 -115 183 -115c118 0 219 61 273 153l62 -48c-64 -106 -193 -179 -343 -179
c-154 0 -258 78 -258 185c0 83 48 141 156 192l65 30c75 36 111 76 122 147z" />
    <glyph glyph-name="period" unicode="." horiz-adv-x="179" 
d="M52 -12c-32 0 -52 20 -52 49c0 36 25 62 61 62c31 0 52 -21 52 -51c0 -35 -27 -60 -61 -60z" />
    <glyph glyph-name="comma" unicode="," horiz-adv-x="206" 
d="M-26 -131l4 30c69 -15 111 30 117 97c-35 -16 -72 3 -72 42c0 35 22 59 56 59c33 0 55 -28 55 -70c0 -98 -64 -182 -160 -158z" />
    <glyph glyph-name="colon" unicode=":" horiz-adv-x="179" 
d="M116 395c-31 0 -51 20 -51 50c0 35 25 61 60 61c32 0 53 -21 53 -50c0 -36 -28 -61 -62 -61zM52 -12c-31 0 -52 20 -52 49c0 36 25 62 61 62c31 0 52 -21 52 -51c0 -35 -27 -60 -61 -60z" />
    <glyph glyph-name="semicolon" unicode=";" horiz-adv-x="206" 
d="M138 395c-31 0 -51 20 -51 50c0 35 24 61 60 61c31 0 52 -21 52 -50c0 -36 -27 -61 -61 -61zM-26 -131l4 30c69 -15 111 30 117 97c-35 -16 -72 3 -72 42c0 35 22 59 56 59c33 0 55 -28 55 -70c0 -98 -64 -182 -160 -158z" />
    <glyph glyph-name="ellipsis" unicode="&#x2026;" horiz-adv-x="560" 
d="M52 -12c-32 0 -52 20 -52 49c0 36 25 62 61 62c31 0 52 -21 52 -51c0 -35 -27 -60 -61 -60zM242 -12c-31 0 -51 20 -51 49c0 36 24 62 60 62c31 0 52 -21 52 -51c0 -35 -27 -60 -61 -60zM433 -12c-31 0 -51 20 -51 49c0 36 24 62 60 62c31 0 52 -21 52 -51
c0 -35 -27 -60 -61 -60z" />
    <glyph glyph-name="periodcentered" unicode="&#xb7;" horiz-adv-x="179" 
d="M89 227c-31 0 -51 20 -51 50c0 35 25 61 60 61c31 0 52 -21 52 -50c0 -36 -27 -61 -61 -61z" />
    <glyph glyph-name="bullet" unicode="&#x2022;" horiz-adv-x="262" 
d="M140 216c-57 0 -97 39 -97 94s40 94 97 94s97 -39 97 -94s-40 -94 -97 -94z" />
    <glyph glyph-name="hyphen" unicode="-" horiz-adv-x="504" 
d="M47 227l11 70h402l-11 -70h-402z" />
    <glyph glyph-name="endash" unicode="&#x2013;" horiz-adv-x="764" 
d="M51 251l6 38h662l-6 -38h-662z" />
    <glyph glyph-name="emdash" unicode="&#x2014;" horiz-adv-x="1269" 
d="M51 251l6 38h1167l-6 -38h-1167z" />
    <glyph glyph-name="underscore" unicode="_" horiz-adv-x="660" 
d="M-46 -38l6 38h660l-6 -38h-660z" />
    <glyph glyph-name="quotesingle" unicode="'" horiz-adv-x="121" 
d="M68 424l46 281h38l-45 -281h-39z" />
    <glyph glyph-name="quotesinglbase" unicode="&#x201a;" horiz-adv-x="206" 
d="M-26 -131l4 30c69 -15 111 30 117 97c-35 -16 -72 3 -72 42c0 35 22 59 56 59c33 0 55 -28 55 -70c0 -98 -64 -182 -160 -158z" />
    <glyph glyph-name="quoteleft" unicode="&#x2018;" horiz-adv-x="206" 
d="M245 720l-3 -31c-69 16 -111 -29 -118 -96c36 16 73 -3 73 -42c0 -35 -22 -59 -56 -59c-33 0 -56 28 -56 70c0 98 65 182 160 158z" />
    <glyph glyph-name="quoteright" unicode="&#x2019;" horiz-adv-x="205" 
d="M73 496l3 31c70 -16 111 30 118 96c-35 -16 -72 4 -72 42c0 36 22 60 56 60c33 0 55 -28 55 -70c0 -98 -64 -183 -160 -159z" />
    <glyph glyph-name="quotedbl" unicode="&#x22;" horiz-adv-x="239" 
d="M68 424l46 281h38l-45 -281h-39zM186 424l46 281h37l-44 -281h-39z" />
    <glyph glyph-name="quotedblleft" unicode="&#x201c;" horiz-adv-x="363" 
d="M245 720l-3 -31c-69 16 -111 -29 -118 -96c36 16 73 -3 73 -42c0 -35 -22 -59 -56 -59c-33 0 -56 28 -56 70c0 98 65 182 160 158zM402 720l-3 -31c-69 16 -111 -29 -117 -96c35 16 72 -3 72 -42c0 -35 -22 -59 -56 -59c-33 0 -55 28 -55 70c0 98 64 182 159 158z" />
    <glyph glyph-name="quotedblright" unicode="&#x201d;" horiz-adv-x="362" 
d="M73 496l3 31c70 -16 111 30 118 96c-35 -16 -72 4 -72 42c0 36 22 60 56 60c33 0 55 -28 55 -70c0 -98 -64 -183 -160 -159zM231 496l3 31c69 -16 111 30 117 96c-35 -16 -72 4 -72 42c0 36 22 60 56 60c33 0 55 -28 55 -70c0 -98 -64 -183 -159 -159z" />
    <glyph glyph-name="quotedblbase" unicode="&#x201e;" horiz-adv-x="363" 
d="M-26 -131l4 30c69 -15 111 30 117 97c-35 -16 -72 3 -72 42c0 35 22 59 56 59c33 0 55 -28 55 -70c0 -98 -64 -182 -160 -158zM132 -131l3 30c69 -15 111 30 117 97c-35 -16 -72 3 -72 42c0 35 22 59 56 59c33 0 55 -28 55 -70c0 -98 -64 -182 -159 -158z" />
    <glyph glyph-name="parenleft" unicode="(" horiz-adv-x="234" 
d="M130 -187c-74 102 -115 293 -89 462c27 172 125 368 235 470l25 -24c-107 -104 -197 -288 -221 -446c-24 -155 8 -338 80 -440z" />
    <glyph glyph-name="parenright" unicode=")" horiz-adv-x="235" 
d="M-33 -190l-25 25c112 110 195 285 220 440c26 158 -2 335 -80 446l31 22c83 -113 115 -296 87 -468c-28 -169 -116 -357 -233 -465z" />
    <glyph glyph-name="bracketleft" unicode="[" horiz-adv-x="235" 
d="M-18 -190l148 935h175l-6 -38h-136l-136 -859h136l-6 -38h-175z" />
    <glyph glyph-name="bracketright" unicode="]" horiz-adv-x="235" 
d="M113 -190h-175l6 38h136l136 859h-136l6 38h175z" />
    <glyph glyph-name="braceleft" unicode="{" horiz-adv-x="311" 
d="M136 -190c-52 0 -81 39 -71 98l41 263c7 46 -13 75 -51 78l-18 1l10 59l18 1c39 2 68 31 76 78l40 259c10 59 51 98 104 98h96l-6 -38h-96c-30 0 -54 -24 -60 -60l-42 -266c-8 -56 -47 -95 -94 -100v-2c46 -5 71 -45 62 -100l-42 -271c-6 -36 9 -60 40 -60h95l-6 -38h-96
z" />
    <glyph glyph-name="braceright" unicode="}" horiz-adv-x="311" 
d="M35 -190h-96l5 38h96c30 0 54 24 60 60l42 271c9 55 47 95 95 100v2c-47 5 -71 44 -63 100l42 266c6 36 -10 60 -40 60h-96l6 38h96c53 0 82 -39 72 -98l-41 -259c-7 -47 13 -76 51 -78l17 -1l-9 -59l-18 -1c-38 -3 -68 -32 -75 -78l-41 -263c-10 -59 -51 -98 -103 -98z
" />
    <glyph glyph-name="slash" unicode="/" horiz-adv-x="509" 
d="M-36 -240l-31 17l607 938l31 -17z" />
    <glyph glyph-name="bar" unicode="|" horiz-adv-x="142" 
d="M-24 -230l152 965h38l-152 -965h-38z" />
    <glyph glyph-name="backslash" unicode="\" horiz-adv-x="509" 
d="M389 -240l-310 938l37 17l309 -938z" />
    <glyph glyph-name="guillemotleft" unicode="&#xab;" horiz-adv-x="603" 
d="M278 -10l-248 262l332 263l21 -29l-296 -234l220 -234zM505 -10l-248 262l332 263l21 -29l-296 -234l220 -234z" />
    <glyph glyph-name="guillemotright" unicode="&#xbb;" horiz-adv-x="603" 
d="M14 -10l-20 28l295 234l-222 234l30 29l249 -263zM242 -10l-20 28l295 234l-222 234l30 29l249 -263z" />
    <glyph glyph-name="guilsinglleft" unicode="&#x2039;" horiz-adv-x="375" 
d="M278 -10l-248 262l332 263l21 -29l-296 -234l220 -234z" />
    <glyph glyph-name="guilsinglright" unicode="&#x203a;" horiz-adv-x="375" 
d="M14 -10l-20 28l295 234l-222 234l30 29l249 -263z" />
    <glyph glyph-name="asterisk" unicode="*" horiz-adv-x="470" 
d="M218 269l22 137c4 26 -11 36 -36 23l-130 -69l-13 33l129 69c24 13 27 32 7 45l-108 69l25 33l108 -68c20 -14 39 -4 43 22l22 138h37l-22 -138c-3 -26 11 -36 36 -22l131 68l13 -33l-130 -69c-25 -13 -28 -32 -7 -45l108 -69l-24 -33l-109 69c-20 13 -38 3 -42 -23
l-22 -137h-38z" />
    <glyph glyph-name="numbersign" unicode="#" horiz-adv-x="903" 
d="M198 -10l-35 10l105 244h-239l6 38h249l83 194h-252l6 38h262l95 222l36 -9l-91 -213h196l94 222l35 -10l-90 -212h255l-5 -38h-266l-82 -194h268l-7 -38h-277l-108 -254l-35 9l104 245h-197zM323 282h198l82 194h-196z" />
    <glyph glyph-name="colon.case" horiz-adv-x="179" 
d="M129 479c-31 0 -51 21 -51 50c0 35 25 61 60 61c31 0 52 -21 52 -50c0 -35 -27 -61 -61 -61zM65 72c-31 0 -52 20 -52 50c0 35 25 61 61 61c31 0 52 -21 52 -50c0 -36 -27 -61 -61 -61z" />
    <glyph glyph-name="semicolon.case" horiz-adv-x="205" 
d="M151 479c-31 0 -52 21 -52 50c0 35 25 61 61 61c31 0 52 -21 52 -50c0 -35 -27 -61 -61 -61zM-13 -47l3 31c70 -16 111 29 118 96c-36 -16 -72 3 -72 42c0 35 22 59 56 59c33 0 55 -28 55 -69c0 -99 -64 -183 -160 -159z" />
    <glyph glyph-name="exclamdown.case" horiz-adv-x="278" 
d="M208 717c31 0 52 -20 52 -50c0 -35 -27 -61 -61 -61c-31 0 -52 20 -52 49c0 36 27 62 61 62zM206 525l-36 -336l-30 -189h-84l30 189l71 336h49z" />
    <glyph glyph-name="questiondown.case" horiz-adv-x="642" 
d="M404 717c31 0 52 -20 52 -50c0 -35 -25 -61 -60 -61c-32 0 -53 21 -53 50c0 36 27 61 61 61zM416 522c-16 -100 -61 -157 -154 -200l-62 -29c-83 -38 -120 -77 -120 -130c0 -66 77 -115 183 -115c118 0 219 61 273 153l62 -48c-64 -106 -193 -179 -343 -179
c-154 0 -258 78 -258 185c0 83 48 141 156 192l65 30c75 36 111 76 122 147z" />
    <glyph glyph-name="slash.case" horiz-adv-x="384" 
d="M-6 -62l-32 21l458 805l34 -20z" />
    <glyph glyph-name="backslash.case" horiz-adv-x="632" 
d="M545 -62l-459 806l33 20l459 -805z" />
    <glyph glyph-name="parenleft.case" horiz-adv-x="235" 
d="M142 -117c-74 102 -116 293 -89 462c27 172 125 368 235 470l24 -24c-106 -104 -196 -288 -220 -446c-24 -155 8 -338 80 -440z" />
    <glyph glyph-name="parenright.case" horiz-adv-x="234" 
d="M-22 -120l-25 25c104 102 195 285 220 440c26 158 -7 342 -80 446l31 22c77 -105 115 -296 87 -468c-28 -169 -124 -364 -233 -465z" />
    <glyph glyph-name="braceleft.case" horiz-adv-x="311" 
d="M147 -120c-52 0 -81 39 -71 98l41 263c7 46 -13 75 -51 78l-17 1l9 59l19 1c38 2 67 31 75 78l40 259c10 59 51 98 104 98h96l-6 -38h-96c-30 0 -54 -24 -60 -60l-41 -266c-9 -56 -48 -95 -95 -100v-2c47 -5 71 -45 63 -100l-43 -271c-6 -36 9 -60 40 -60h95l-6 -38h-96z
" />
    <glyph glyph-name="braceright.case" horiz-adv-x="311" 
d="M46 -120h-96l5 38h96c30 0 54 24 60 60l43 271c8 55 46 95 94 100v2c-47 5 -71 44 -62 100l41 266c6 36 -10 60 -40 60h-96l6 38h96c53 0 82 -39 72 -98l-41 -259c-7 -47 13 -76 51 -78l17 -1l-9 -59l-18 -1c-38 -3 -68 -32 -75 -78l-41 -263c-10 -59 -51 -98 -103 -98z
" />
    <glyph glyph-name="bracketleft.case" horiz-adv-x="235" 
d="M-7 -120l148 935h175l-6 -38h-136l-136 -859h136l-6 -38h-175z" />
    <glyph glyph-name="bracketright.case" horiz-adv-x="235" 
d="M124 -120h-175l6 38h136l136 859h-136l6 38h175z" />
    <glyph glyph-name="hyphen.case" horiz-adv-x="504" 
d="M64 335l11 70h402l-11 -70h-402z" />
    <glyph glyph-name="endash.case" horiz-adv-x="764" 
d="M67 351l6 38h662l-6 -38h-662z" />
    <glyph glyph-name="emdash.case" horiz-adv-x="1269" 
d="M67 351l6 38h1167l-6 -38h-1167z" />
    <glyph glyph-name="guillemotleft.case" horiz-adv-x="603" 
d="M294 90l-248 262l332 263l21 -29l-296 -234l220 -234zM521 90l-248 262l332 263l21 -29l-296 -234l220 -234z" />
    <glyph glyph-name="guillemotright.case" horiz-adv-x="603" 
d="M113 615l248 -262l-332 -263l-21 29l296 234l-220 234zM340 615l248 -262l-332 -263l-21 29l296 234l-220 234z" />
    <glyph glyph-name="guilsinglleft.case" horiz-adv-x="375" 
d="M294 90l-248 262l332 263l21 -29l-296 -234l220 -234z" />
    <glyph glyph-name="guilsinglright.case" horiz-adv-x="375" 
d="M113 615l248 -262l-332 -263l-21 29l296 234l-220 234z" />
    <glyph glyph-name="plus" unicode="+" horiz-adv-x="732" 
d="M309 140l30 197h-274l9 63h276l29 180h78l-29 -180h276l-9 -63h-277l-31 -197h-78z" />
    <glyph glyph-name="minus" unicode="&#x2212;" horiz-adv-x="672" 
d="M64 337l11 69h570l-11 -69h-570z" />
    <glyph glyph-name="plusminus" unicode="&#xb1;" horiz-adv-x="728" 
d="M326 268l21 128h-273l11 72h273l19 119h79l-19 -119h274l-12 -72h-273l-21 -128h-79zM35 150l6 38h625l-6 -38h-625z" />
    <glyph glyph-name="multiply" unicode="&#xd7;" horiz-adv-x="554" 
d="M90 210l-37 54l175 101l-143 101l55 54l161 -113l198 113l38 -53l-175 -102l143 -101l-54 -54l-163 113z" />
    <glyph glyph-name="divide" unicode="&#xf7;" horiz-adv-x="712" 
d="M398 500c-35 0 -56 26 -51 61c5 30 29 50 60 50c35 0 57 -25 52 -60c-5 -31 -30 -51 -61 -51zM65 341l6 37h610l-6 -37h-610zM336 109c-35 0 -56 26 -51 61c5 30 30 51 60 51c36 0 58 -26 51 -61c-4 -30 -29 -51 -60 -51z" />
    <glyph glyph-name="less" unicode="&#x3c;" horiz-adv-x="634" 
d="M535 99l-477 196l15 94l540 197l12 -66l-503 -178l447 -178z" />
    <glyph glyph-name="greater" unicode="&#x3e;" horiz-adv-x="633" 
d="M127 586l477 -197l-15 -93l-540 -197l-12 65l503 178l-447 179z" />
    <glyph glyph-name="lessequal" unicode="&#x2264;" horiz-adv-x="614" 
d="M539 205l-472 146l16 100l518 147l6 -68l-470 -128l429 -130zM29 114l6 37h512l-6 -37h-512z" />
    <glyph glyph-name="greaterequal" unicode="&#x2265;" horiz-adv-x="614" 
d="M59 205l-4 67l471 130l-431 128l28 68l472 -147l-17 -100zM541 114h-512l6 37h512z" />
    <glyph glyph-name="equal" unicode="=" horiz-adv-x="732" 
d="M77 416l11 69h630l-11 -69h-630zM47 229l12 69h630l-12 -69h-630z" />
    <glyph glyph-name="notequal" unicode="&#x2260;" horiz-adv-x="732" 
d="M707 416h-254l-81 -118h317l-12 -69h-353l-161 -233l-31 16l150 217h-235l12 69h271l81 118h-334l11 69h371l153 222l31 -17l-142 -205h217z" />
    <glyph glyph-name="logicalnot" unicode="&#xac;" horiz-adv-x="793" 
d="M659 170l35 218h-621l10 66h690l-44 -284h-70z" />
    <glyph glyph-name="degree" unicode="&#xb0;" horiz-adv-x="461" 
d="M248 336c-101 0 -176 68 -176 166c0 125 103 234 231 234c102 0 175 -69 175 -168c0 -124 -104 -232 -230 -232zM251 373c106 0 188 90 188 193c0 79 -55 134 -138 134c-108 0 -190 -92 -190 -195c0 -77 56 -132 140 -132z" />
    <glyph glyph-name="percent" unicode="%" horiz-adv-x="970" 
d="M207 -10l-29 22l630 733l30 -22zM251 344c-106 0 -177 67 -177 166c0 127 99 226 226 226c106 0 176 -68 176 -169c0 -128 -97 -223 -225 -223zM255 405c94 0 153 73 153 158c0 68 -44 112 -111 112c-95 0 -154 -75 -154 -160c0 -67 44 -110 112 -110zM705 -13
c-106 0 -177 67 -177 166c0 127 99 226 227 226c105 0 176 -68 176 -169c0 -128 -98 -223 -226 -223zM709 48c94 0 153 73 153 158c0 68 -43 112 -110 112c-95 0 -155 -75 -155 -160c0 -67 44 -110 112 -110z" />
    <glyph glyph-name="perthousand" unicode="&#x2030;" horiz-adv-x="1459" 
d="M207 -10l-29 22l630 733l30 -22zM251 344c-106 0 -177 67 -177 166c0 127 99 226 226 226c106 0 176 -68 176 -169c0 -128 -97 -223 -225 -223zM255 405c94 0 153 73 153 158c0 68 -44 112 -111 112c-95 0 -154 -75 -154 -160c0 -67 44 -110 112 -110zM705 -13
c-106 0 -177 67 -177 166c0 127 99 226 227 226c105 0 176 -68 176 -169c0 -128 -98 -223 -226 -223zM1194 -13c-105 0 -177 67 -177 166c0 127 100 226 227 226c105 0 176 -68 176 -169c0 -128 -97 -223 -226 -223zM709 48c94 0 153 73 153 158c0 68 -43 112 -110 112
c-95 0 -155 -75 -155 -160c0 -67 44 -110 112 -110zM1198 48c94 0 153 73 153 158c0 68 -43 112 -110 112c-95 0 -155 -75 -155 -160c0 -67 44 -110 112 -110z" />
    <glyph glyph-name="currency" unicode="&#xa4;" horiz-adv-x="694" 
d="M11 -50l-25 26l130 112c-20 34 -32 80 -32 127c0 72 36 151 82 200l-92 108l29 27l91 -106c50 40 124 66 190 66c68 0 135 -28 173 -70l126 110l24 -27l-128 -112c19 -33 31 -79 31 -125c0 -73 -35 -151 -81 -200l91 -109l-29 -27l-91 106c-50 -40 -124 -66 -190 -66
c-68 0 -135 28 -173 70zM322 67c122 0 210 98 210 214c0 91 -62 152 -160 152c-122 0 -210 -99 -210 -216c0 -90 61 -150 160 -150z" />
    <glyph glyph-name="dollar" unicode="$" 
d="M465 391c189 -38 271 -98 271 -200c0 -148 -165 -216 -346 -216c-9 0 -17 0 -25 1l-17 -106h-37l17 108c-170 18 -291 107 -316 229l76 37c19 -104 117 -176 252 -192l43 275l-43 9c-160 32 -229 85 -229 182c0 145 145 212 305 212c10 0 21 0 31 -1l14 91h38l-15 -94
c131 -17 224 -83 257 -170l-71 -41c-27 71 -98 122 -198 137l-40 -254zM361 413l35 -7l39 249c-8 1 -15 1 -23 1c-132 0 -216 -50 -216 -128c0 -58 49 -92 165 -115zM396 49c150 0 256 52 256 138c0 60 -61 97 -204 126l-29 6l-42 -270h19z" />
    <glyph glyph-name="cent" unicode="&#xa2;" horiz-adv-x="743" 
d="M713 185c-62 -121 -214 -203 -379 -205l-17 -110h-37l18 111c-167 9 -271 99 -271 231c0 184 163 306 357 313l18 115h37l-18 -116c139 -7 237 -85 258 -177l-72 -20c-15 71 -91 126 -197 131l-65 -412c132 3 253 71 298 167zM103 218c0 -98 78 -163 205 -171l65 412
c-147 -8 -270 -107 -270 -241z" />
    <glyph glyph-name="Euro" unicode="&#x20ac;" horiz-adv-x="1072" 
d="M967 267l74 -29c-67 -153 -252 -263 -455 -263c-235 0 -392 125 -402 306h-126v38h125c2 25 5 49 10 72h-135v38h146c62 179 248 301 460 301c181 0 319 -94 349 -228l-78 -24c-26 110 -128 179 -280 179c-167 0 -311 -92 -365 -228h483v-38h-496c-6 -23 -9 -47 -10 -72
h505v-38h-504c15 -142 139 -233 321 -233c171 0 325 96 378 219z" />
    <glyph glyph-name="sterling" unicode="&#xa3;" horiz-adv-x="726" 
d="M-8 0l13 93c62 11 123 62 150 238h-100l6 37h100l25 157c19 120 129 205 297 205c171 0 262 -91 255 -213l-75 -8c7 90 -59 153 -187 153c-122 0 -199 -61 -212 -142l-24 -152h413l-6 -37h-413c-32 -174 -85 -231 -148 -258v-1h580l-11 -72h-663z" />
    <glyph glyph-name="yen" unicode="&#xa5;" horiz-adv-x="770" 
d="M303 0l24 145h-320l7 38h319l8 51h-320l7 38h311l-265 433h100l222 -373l340 373h104l-401 -433h310l-7 -38h-318l-7 -51h318l-7 -38h-318l-23 -145h-84z" />
    <glyph glyph-name="lira" unicode="&#x20a4;" horiz-adv-x="723" 
d="M-9 0l10 74c67 20 128 102 143 200h-102l5 38h103l8 54h-102l6 37h102l20 121c19 120 131 205 294 205c166 0 265 -90 257 -212l-75 -7c6 89 -58 152 -182 152c-122 0 -203 -62 -216 -144l-19 -115h413l-6 -37h-413l-8 -54h413l-6 -38h-415c-14 -93 -71 -176 -138 -206
v-1l580 1l-11 -68h-661z" />
    <glyph glyph-name="copyright" unicode="&#xa9;" horiz-adv-x="1017" 
d="M469 -24c-252 0 -417 135 -417 329c0 257 253 436 529 436c251 0 417 -136 417 -330c0 -258 -252 -435 -529 -435zM469 11c253 0 491 163 491 395c0 176 -152 300 -381 300c-253 0 -490 -167 -490 -398c0 -175 151 -297 380 -297zM479 83c-184 0 -300 91 -300 232
c0 189 172 313 374 313c151 0 249 -68 278 -166l-67 -27c-28 81 -96 129 -220 129c-155 0 -288 -99 -288 -241c0 -109 91 -176 233 -176c138 0 262 71 307 170l70 -28c-61 -124 -217 -206 -387 -206z" />
    <glyph glyph-name="registered" unicode="&#xae;" horiz-adv-x="1017" 
d="M469 -24c-252 0 -417 135 -417 329c0 257 253 436 529 436c251 0 417 -136 417 -330c0 -258 -252 -435 -529 -435zM469 11c253 0 491 163 491 395c0 176 -152 300 -381 300c-253 0 -490 -167 -490 -398c0 -175 151 -297 380 -297zM266 115l80 505h290
c112 0 174 -50 174 -129c0 -88 -63 -150 -158 -166l92 -210h-83l-84 207h-202l-33 -207h-76zM384 387h219c74 0 131 40 131 100c0 41 -37 69 -100 69h-223z" />
    <glyph glyph-name="at" unicode="@" horiz-adv-x="1087" 
d="M501 -177c-298 0 -470 144 -470 350c0 285 280 479 593 479c275 0 423 -148 423 -366c0 -138 -53 -306 -188 -306c-63 0 -107 41 -105 104l1 22h-1c-61 -75 -186 -128 -323 -128c-148 0 -234 50 -234 134c0 104 116 167 307 183l240 20c31 2 49 19 49 44
c2 61 -66 95 -189 95c-128 0 -252 -52 -309 -116l-43 52c68 76 208 133 353 133c148 0 278 -56 261 -194l-37 -236c-8 -46 6 -70 42 -70c97 0 138 155 138 260c0 200 -131 335 -389 335c-291 0 -551 -183 -551 -443c0 -188 155 -316 432 -316c88 0 169 12 249 41l10 -35
c-85 -30 -170 -42 -259 -42zM441 45c171 0 321 85 334 190l2 20l-272 -23c-113 -10 -229 -40 -231 -112c0 -48 56 -75 167 -75z" />
    <glyph glyph-name="at.case" horiz-adv-x="1087" 
d="M519 -61c-297 0 -469 144 -469 350c0 285 280 479 592 479c275 0 423 -149 423 -366c0 -138 -53 -306 -188 -306c-62 0 -107 41 -104 104l1 22h-1c-62 -75 -186 -128 -324 -128c-148 0 -233 50 -233 134c0 104 115 167 306 183l240 20c31 2 49 18 50 43
c1 62 -67 95 -190 95c-128 0 -252 -52 -309 -115l-43 51c68 76 209 134 353 134c148 0 278 -56 261 -194l-37 -236c-8 -46 6 -70 43 -70c96 0 137 155 137 260c0 200 -131 335 -388 335c-292 0 -552 -183 -552 -444c0 -187 155 -315 433 -315c88 0 169 12 248 40l10 -34
c-85 -30 -170 -42 -259 -42zM459 161c171 0 322 85 334 190l3 19l-273 -22c-113 -10 -229 -41 -230 -112c-1 -48 55 -75 166 -75z" />
    <glyph glyph-name="trademark" unicode="&#x2122;" horiz-adv-x="1180" 
d="M201 280l58 365h-191l10 60h448l-9 -60h-191l-58 -365h-67zM503 280l68 425h103l154 -361l269 361h103l-68 -425h-67l57 359l-267 -359h-74l-154 359l-56 -359h-68z" />
    <glyph glyph-name="section" unicode="&#xa7;" horiz-adv-x="683" 
d="M336 -20c-176 0 -300 79 -313 176l68 26c11 -75 110 -135 245 -135c108 0 207 34 217 97c6 38 -34 58 -94 67l-201 30c-131 19 -185 60 -173 137c8 45 41 82 93 110c-20 19 -31 47 -25 88c14 93 120 149 254 149c118 0 214 -58 237 -127l-65 -36c-18 53 -88 100 -176 100
c-94 0 -169 -45 -177 -93c-6 -33 28 -54 76 -61l177 -24c134 -19 190 -64 177 -148c-7 -40 -29 -73 -69 -99c29 -22 46 -53 39 -101c-17 -105 -147 -156 -290 -156zM508 273c42 17 70 41 75 70c7 37 -28 59 -114 73l-231 34c-42 -12 -74 -39 -78 -70c-7 -38 28 -61 109 -74z
" />
    <glyph glyph-name="paragraph" unicode="&#xb6;" horiz-adv-x="738" 
d="M177 -223l87 549c-135 0 -211 76 -193 189c20 114 120 190 253 190h456l-9 -60h-135l-137 -868h-69l137 868h-183l-138 -868h-69z" />
    <glyph glyph-name="asciicircum" unicode="^" horiz-adv-x="626" 
d="M106 400l-46 41l283 264h84l199 -264l-54 -41l-193 250z" />
    <glyph glyph-name="asciitilde" unicode="~" horiz-adv-x="770" 
d="M721 347l28 -45c-49 -50 -120 -76 -185 -76s-123 25 -173 52c-57 30 -112 63 -170 63c-52 0 -112 -32 -154 -69l-27 45c50 52 119 85 194 85s142 -35 198 -65c48 -26 94 -50 142 -50c53 0 107 24 147 60z" />
    <glyph glyph-name="grave" unicode="`" horiz-adv-x="316" 
d="M296 598l-167 138l27 30l167 -138z" />
    <glyph glyph-name="acute" unicode="&#xb4;" horiz-adv-x="316" 
d="M130 598l-18 30l210 138l18 -30z" />
    <glyph glyph-name="dieresis" unicode="&#xa8;" horiz-adv-x="523" 
d="M164 604c-29 0 -48 19 -48 46c0 37 29 64 65 64c30 0 50 -18 50 -45c0 -37 -31 -65 -67 -65zM471 604c-29 0 -47 18 -47 45c0 38 28 65 64 65c30 0 49 -18 49 -45c0 -37 -30 -65 -66 -65z" />
    <glyph glyph-name="macron" unicode="&#xaf;" horiz-adv-x="501" 
d="M93 598l6 37h424l-6 -37h-424z" />
    <glyph glyph-name="cedilla" unicode="&#xb8;" horiz-adv-x="290" 
d="M74 -206c-40 0 -74 23 -86 54l34 23c7 -23 31 -39 58 -39c32 0 56 15 59 39c5 28 -19 45 -60 45h-33l24 86h38l-15 -51c58 -4 93 -30 84 -84c-6 -42 -49 -73 -103 -73z" />
    <glyph glyph-name="circumflex" unicode="&#x2c6;" horiz-adv-x="602" 
d="M127 591l-16 32l242 125h52l203 -125l-22 -32l-210 128z" />
    <glyph glyph-name="caron" unicode="&#x2c7;" horiz-adv-x="602" 
d="M329 602l-202 125l22 32l209 -128l250 128l17 -32l-243 -125h-53z" />
    <glyph glyph-name="breve" unicode="&#x2d8;" horiz-adv-x="566" 
d="M337 592c-134 0 -220 65 -206 156h36c-11 -69 62 -119 173 -119c113 0 203 50 214 119h38c-14 -91 -121 -156 -255 -156z" />
    <glyph glyph-name="dotaccent" unicode="&#x2d9;" horiz-adv-x="218" 
d="M164 603c-29 0 -48 19 -48 45c0 38 29 66 65 66c30 0 50 -18 50 -46c0 -38 -31 -65 -67 -65z" />
    <glyph glyph-name="uniF6C3" unicode="&#xf6c3;" horiz-adv-x="0" 
d="M-236 -241l5 32c51 -11 76 10 77 47c-34 -13 -67 14 -62 49c4 22 24 38 48 38c37 0 58 -35 50 -89c-10 -65 -57 -89 -118 -77z" />
    <glyph glyph-name="ring" unicode="&#x2da;" horiz-adv-x="291" 
d="M199 592c-49 0 -79 31 -79 76c0 64 47 110 109 110c48 0 79 -31 79 -76c0 -64 -48 -110 -109 -110zM205 628c36 0 65 29 65 68c0 28 -18 46 -48 46c-37 0 -66 -32 -66 -67c0 -29 20 -47 49 -47z" />
    <glyph glyph-name="ogonek" unicode="&#x2db;" horiz-adv-x="345" 
d="M89 -206c-60 0 -94 31 -88 77c9 68 93 109 221 155l29 -26c-122 -42 -203 -76 -210 -128c-4 -27 18 -44 56 -44c30 0 64 19 88 42l21 -26c-31 -30 -78 -50 -117 -50z" />
    <glyph glyph-name="tilde" unicode="&#x2dc;" horiz-adv-x="578" 
d="M450 590c-53 0 -82 29 -110 57c-25 25 -50 50 -91 50c-54 0 -96 -42 -106 -97h-36c12 77 75 133 150 133c55 0 83 -30 111 -58c24 -24 48 -48 89 -48c54 0 91 41 109 97h35c-20 -78 -77 -134 -151 -134z" />
    <glyph glyph-name="hungarumlaut" unicode="&#x2dd;" horiz-adv-x="531" 
d="M130 598l-18 30l210 138l18 -30zM344 598l-17 30l210 138l18 -30z" />
    <glyph glyph-name="acute.case" horiz-adv-x="288" 
d="M158 779l-18 30l179 118l19 -30z" />
    <glyph glyph-name="breve.case" horiz-adv-x="493" 
d="M331 790c-112 0 -185 53 -173 128h37c-9 -54 50 -92 140 -92c91 0 163 38 172 92h39c-12 -75 -102 -128 -215 -128z" />
    <glyph glyph-name="caron.case" horiz-adv-x="528" 
d="M323 790l-169 104l23 33l174 -108l211 108l16 -32l-202 -105h-53z" />
    <glyph glyph-name="caron.alt1" horiz-adv-x="215" 
d="M105 556l5 33c51 -12 76 9 77 46c-34 -13 -67 14 -61 50c3 22 23 38 47 38c37 0 59 -36 50 -90c-10 -65 -57 -89 -118 -77z" />
    <glyph glyph-name="circumflex.case" horiz-adv-x="528" 
d="M157 781l-14 32l200 105h53l169 -105l-23 -32l-176 108z" />
    <glyph glyph-name="dieresis.case" horiz-adv-x="517" 
d="M195 803c-32 0 -52 23 -47 55c6 32 33 55 65 55c33 0 53 -23 48 -55s-33 -55 -66 -55zM496 803c-33 0 -51 23 -46 55s31 55 64 55s52 -23 47 -55s-32 -55 -65 -55z" />
    <glyph glyph-name="dotaccent.case" horiz-adv-x="218" 
d="M195 803c-29 0 -47 19 -47 46c0 37 29 65 65 65c30 0 49 -18 49 -45c0 -38 -30 -66 -67 -66z" />
    <glyph glyph-name="grave.case" horiz-adv-x="288" 
d="M298 780l-142 118l24 27l142 -118z" />
    <glyph glyph-name="hungarumlaut.case" horiz-adv-x="504" 
d="M158 779l-18 30l179 118l19 -30zM374 779l-18 30l179 118l19 -30z" />
    <glyph glyph-name="ring.case" horiz-adv-x="291" 
d="M230 782c-49 0 -79 31 -79 76c0 63 48 110 108 110c48 0 80 -31 80 -76c0 -59 -48 -110 -109 -110zM235 818c38 0 65 33 65 67c0 28 -19 47 -48 47c-35 0 -65 -30 -65 -68c0 -27 20 -46 48 -46z" />
    <glyph glyph-name="tilde.case" horiz-adv-x="578" 
d="M482 780c-51 0 -82 27 -108 54c-26 26 -51 52 -94 52c-54 0 -97 -41 -106 -96h-37c12 77 73 133 148 133c59 0 90 -34 119 -63c23 -22 46 -43 83 -43c54 0 98 41 107 97h37c-12 -78 -74 -134 -149 -134z" />
    <glyph glyph-name="arrowup" unicode="&#x2191;" horiz-adv-x="535" 
d="M46 303l229 220l229 -220l-25 -28l-185 177v-452h-38v452l-183 -177z" />
    <glyph glyph-name="uni2197" unicode="&#x2197;" horiz-adv-x="474" 
d="M78 449l318 -7l6 -317l-38 -2l-5 256l-320 -320l-26 27l319 319l-255 5z" />
    <glyph glyph-name="arrowright" unicode="&#x2192;" horiz-adv-x="603" 
d="M345 32l-27 27l176 183h-452v38h452l-176 184l27 26l220 -229z" />
    <glyph glyph-name="uni2198" unicode="&#x2198;" horiz-adv-x="529" 
d="M457 398l-7 -317l-317 -7l-1 38l255 5l-320 320l27 27l320 -320l4 255z" />
    <glyph glyph-name="arrowdown" unicode="&#x2193;" horiz-adv-x="535" 
d="M30 202l26 28l184 -177v452h38v-452l184 177l26 -28l-229 -220z" />
    <glyph glyph-name="uni2199" unicode="&#x2199;" horiz-adv-x="475" 
d="M75 398l38 1l5 -255l320 320l27 -27l-320 -320l255 -5l-1 -38l-317 7z" />
    <glyph glyph-name="arrowleft" unicode="&#x2190;" horiz-adv-x="603" 
d="M259 32l-220 229l220 229l28 -26l-177 -184h452v-38h-452l177 -183z" />
    <glyph glyph-name="uni2196" unicode="&#x2196;" horiz-adv-x="530" 
d="M399 449l1 -39l-255 -5l320 -319l-27 -27l-319 320l-6 -256l-38 2l7 317z" />
    <glyph glyph-name="arrowboth" unicode="&#x2194;" horiz-adv-x="931" 
d="M673 490l220 -229l-220 -229l-27 26l176 184h-712l177 -183l-28 -27l-220 229l220 229l28 -26l-177 -184h712l-176 183z" />
    <glyph glyph-name="arrowupdn" unicode="&#x2195;" horiz-adv-x="592" 
d="M314 -77l185 177l25 -28l-229 -220l-229 220l27 28l184 -177v659l-185 -177l-26 28l229 220l229 -220l-26 -28l-184 177v-659z" />
    <glyph glyph-name="arrowup.case" horiz-adv-x="535" 
d="M61 401l229 220l229 -220l-25 -28l-185 177v-452h-38v452l-183 -177z" />
    <glyph glyph-name="uni2197.case" horiz-adv-x="475" 
d="M94 547l317 -7l7 -317l-38 -1l-5 255l-320 -320l-27 27l320 320l-255 4z" />
    <glyph glyph-name="arrowright.case" horiz-adv-x="603" 
d="M361 132l-27 27l176 183h-452v38h452l-176 184l27 26l220 -229z" />
    <glyph glyph-name="uni2198.case" horiz-adv-x="529" 
d="M472 496l-6 -317l-318 -7l-1 38l255 6l-319 319l27 27l319 -320l5 255z" />
    <glyph glyph-name="arrowdown.case" horiz-adv-x="535" 
d="M46 302l26 27l184 -177v452h38v-452l184 177l26 -27l-229 -220z" />
    <glyph glyph-name="uni2199.case" horiz-adv-x="475" 
d="M91 498l38 1l5 -255l320 320l27 -27l-320 -320l255 -5l-1 -38l-317 7z" />
    <glyph glyph-name="arrowleft.case" horiz-adv-x="603" 
d="M275 132l-220 229l220 229l28 -26l-177 -184h452v-38h-452l177 -183z" />
    <glyph glyph-name="uni2196.case" horiz-adv-x="530" 
d="M415 549l1 -39l-255 -5l320 -319l-27 -27l-319 320l-6 -256l-38 2l7 317z" />
    <glyph glyph-name="arrowboth.case" horiz-adv-x="931" 
d="M689 590l220 -229l-220 -229l-27 26l176 184h-712l177 -183l-28 -27l-220 229l220 229l28 -26l-177 -184h712l-176 183z" />
    <glyph glyph-name="arrowupdn.case" horiz-adv-x="592" 
d="M330 23l185 177l25 -28l-229 -220l-229 220l27 28l184 -177v659l-185 -177l-26 28l229 220l229 -220l-26 -28l-184 177v-659z" />
    </font>
</defs>
</svg>
