<?xml version="1.0" standalone="no"?>
<!DOCTYPE svg PUBLIC "-//W3C//DTD SVG 1.1//EN" "http://www.w3.org/Graphics/SVG/1.1/DTD/svg11.dtd" >
<svg xmlns="http://www.w3.org/2000/svg" xmlns:xlink="http://www.w3.org/1999/xlink" version="1.1">
<metadata>
Created by FontForge 20190801 at Mon Sep 16 02:08:49 2019
 By Jimmy Wärting
Copyright \(c\) 2018 by Alexander Slobzheninov. All rights reserved.
</metadata>
<defs>
<font id="Agrandir-WideLight" horiz-adv-x="630" >
  <font-face 
    font-family="Agrandir Wide Light"
    font-weight="300"
    font-stretch="expanded"
    units-per-em="1000"
    panose-1="0 0 4 5 0 0 0 0 0 0"
    ascent="750"
    descent="-250"
    x-height="503"
    cap-height="703"
    bbox="-140 -242.647 1428 964"
    underline-thickness="34"
    underline-position="-120"
    stemh="51"
    stemv="55"
    unicode-range="U+000D-F6C3"
  />
<missing-glyph horiz-adv-x="0" 
 />
    <glyph glyph-name=".notdef" horiz-adv-x="0" 
 />
    <glyph glyph-name="NULL" horiz-adv-x="858" 
d="M116 0v703h627v-703h-627zM167 45h525v612h-525v-612z" />
    <glyph glyph-name="NULL" horiz-adv-x="858" 
d="M116 0v703h627v-703h-627zM167 45h525v612h-525v-612z" />
    <glyph glyph-name="CR" unicode="&#xd;" horiz-adv-x="54" 
 />
    <glyph glyph-name="space" unicode=" " horiz-adv-x="314" 
 />
    <glyph glyph-name="A" unicode="A" horiz-adv-x="738" 
d="M8 0l326 703h71l326 -703h-63l-82 177h-433l-82 -177h-63zM176 230h387l-192 418h-2z" />
    <glyph glyph-name="B" unicode="B" horiz-adv-x="727" 
d="M55 0v703h403c137 0 221 -70 221 -184c0 -78 -46 -135 -122 -153v-2c90 -16 145 -81 145 -170c0 -120 -94 -194 -248 -194h-399zM114 391h340c104 0 167 48 167 129c0 80 -63 129 -168 129h-339v-258zM114 53h335c121 0 194 54 194 143c0 88 -73 142 -194 142h-335v-285z
" />
    <glyph glyph-name="C" unicode="C" horiz-adv-x="871" 
d="M454 -25c-255 0 -416 146 -416 376s149 377 388 377c169 0 305 -97 348 -248l-55 -16c-34 128 -149 210 -292 210c-203 0 -330 -126 -330 -323s139 -322 357 -322c170 0 299 96 333 248l56 -16c-40 -175 -191 -286 -389 -286z" />
    <glyph glyph-name="D" unicode="D" horiz-adv-x="797" 
d="M55 0v703h315c251 0 390 -126 390 -352s-139 -351 -390 -351h-315zM114 54h256c213 0 331 106 331 297c0 192 -118 298 -331 298h-256v-595z" />
    <glyph glyph-name="E" unicode="E" horiz-adv-x="664" 
d="M55 0v703h576v-54h-518v-258h478v-53h-478v-284h528v-54h-586z" />
    <glyph glyph-name="F" unicode="F" horiz-adv-x="606" 
d="M55 0v703h534v-54h-475v-269h415v-53h-415v-327h-59z" />
    <glyph glyph-name="G" unicode="G" horiz-adv-x="910" 
d="M456 -25c-243 0 -418 158 -418 376s168 377 402 377c160 0 305 -90 344 -217l-54 -16c-36 105 -156 179 -290 179c-200 0 -344 -134 -344 -323c1 -186 153 -322 366 -322c200 0 352 128 352 303h-511v53h569v-385h-52l-4 172h-1c-64 -121 -193 -197 -359 -197z" />
    <glyph glyph-name="G.alt1" horiz-adv-x="916" 
d="M464 -25c-248 0 -426 158 -426 376c0 219 168 377 402 377c160 0 305 -90 344 -215l-55 -16c-35 104 -154 177 -289 177c-200 0 -343 -134 -343 -323c0 -186 153 -322 367 -322c201 -1 354 127 354 303h-516v53h575c1 -11 1 -19 1 -29c0 -220 -166 -381 -414 -381z" />
    <glyph glyph-name="H" unicode="H" horiz-adv-x="745" 
d="M55 0v703h59v-309h517v309h59v-703h-59v340h-517v-340h-59z" />
    <glyph glyph-name="I" unicode="I" horiz-adv-x="169" 
d="M55 0v703h59v-703h-59z" />
    <glyph glyph-name="J" unicode="J" horiz-adv-x="517" 
d="M253 -21c-127 0 -213 70 -235 189l52 21c15 -99 81 -157 180 -157c102 0 163 69 163 186v485h59v-489c0 -148 -82 -235 -219 -235z" />
    <glyph glyph-name="K" unicode="K" horiz-adv-x="623" 
d="M55 0v703h59v-338h1l408 338h85l-341 -281l351 -422h-75l-319 385l-110 -91v-294h-59z" />
    <glyph glyph-name="K.alt1" horiz-adv-x="613" 
d="M55 0v703h59v-314h1l403 314h90l-435 -336l445 -367h-89l-414 345h-1v-345h-59z" />
    <glyph glyph-name="L" unicode="L" horiz-adv-x="550" 
d="M55 0v703h59v-649h429v-54h-488z" />
    <glyph glyph-name="M" unicode="M" horiz-adv-x="945" 
d="M55 0v703h90l327 -642h1l327 642h90v-703h-59v632h-2l-323 -632h-67l-323 632h-2v-632h-59z" />
    <glyph glyph-name="N" unicode="N" horiz-adv-x="746" 
d="M55 0v703h81l495 -638h1v638h59v-703h-81l-494 638h-2v-638h-59z" />
    <glyph glyph-name="O" unicode="O" horiz-adv-x="925" 
d="M463 -25c-255 0 -425 151 -425 376c0 226 170 377 425 377s425 -151 425 -377c0 -225 -170 -376 -425 -376zM463 29c219 0 366 129 366 322c0 194 -147 323 -366 323c-220 0 -366 -129 -366 -323c0 -193 146 -322 366 -322z" />
    <glyph glyph-name="P" unicode="P" horiz-adv-x="708" 
d="M55 0v703h388c153 0 248 -84 248 -211c0 -126 -96 -210 -248 -210h-330v-282h-58zM113 336h327c119 0 192 62 192 156c0 95 -73 157 -192 157h-327v-313z" />
    <glyph glyph-name="Q" unicode="Q" horiz-adv-x="925" 
d="M614 -176c70 0 125 41 148 108l46 -29c-28 -81 -102 -133 -197 -133c-113 0 -184 66 -184 168v38c-235 14 -389 161 -389 375c0 226 170 377 425 377s425 -151 425 -377c0 -218 -160 -367 -402 -376v-31c0 -74 48 -120 128 -120zM97 351c0 -193 146 -322 366 -322
c219 0 366 129 366 322c0 194 -147 323 -366 323c-220 0 -366 -129 -366 -323z" />
    <glyph glyph-name="R" unicode="R" horiz-adv-x="766" 
d="M665 -20c-55 0 -84 38 -101 89l-44 133c-19 59 -56 102 -119 102h-287v-304h-59v703h407c145 0 243 -80 243 -198c0 -102 -79 -178 -203 -190v-1c40 -21 63 -60 79 -108l39 -121c9 -31 23 -53 53 -53c23 0 43 14 60 41l33 -35c-25 -36 -60 -58 -101 -58zM114 358h346
c111 0 186 59 186 145c0 87 -75 146 -186 146h-346v-291z" />
    <glyph glyph-name="R.alt1" horiz-adv-x="742" 
d="M55 0v703h407c145 0 243 -80 243 -197c0 -79 -48 -145 -131 -173v-1c64 -13 103 -61 103 -127v-205h-59v199c0 62 -45 105 -111 105h-393v-304h-59zM114 358h346c111 0 186 59 186 145c0 87 -75 146 -186 146h-346v-291z" />
    <glyph glyph-name="R.alt2" horiz-adv-x="734" 
d="M55 0v703h407c144 0 242 -81 242 -198c0 -106 -82 -182 -204 -191l198 -314h-69l-189 304h-326v-304h-59zM114 358h346c111 0 186 58 186 145s-75 146 -186 146h-346v-291z" />
    <glyph glyph-name="S" unicode="S" horiz-adv-x="699" 
d="M381 -25c-187 0 -329 97 -361 241l54 20c22 -124 146 -207 308 -207c145 0 238 63 238 154c0 71 -57 113 -187 138l-161 31c-139 26 -203 79 -203 170c0 125 106 206 264 206c141 0 254 -73 289 -182l-51 -24c-29 91 -122 152 -237 152c-124 0 -206 -59 -206 -146
c0 -64 48 -100 158 -121l160 -30c159 -29 232 -89 233 -188c0 -128 -118 -214 -298 -214z" />
    <glyph glyph-name="T" unicode="T" horiz-adv-x="659" 
d="M300 0v649h-292v54h643v-54h-292v-649h-59z" />
    <glyph glyph-name="U" unicode="U" horiz-adv-x="743" 
d="M372 -25c-201 0 -327 114 -327 305v423h59v-424c0 -156 102 -250 268 -250c165 0 267 92 267 251v423h59v-423c0 -191 -126 -305 -326 -305z" />
    <glyph glyph-name="V" unicode="V" horiz-adv-x="729" 
d="M331 0l-326 703h64l296 -641h1l293 641h65l-326 -703h-67z" />
    <glyph glyph-name="W" unicode="W" horiz-adv-x="1161" 
d="M264 0l-259 703h62l238 -645h2l229 645h89l230 -645h1l237 645h63l-259 -703h-83l-233 647h-1l-233 -647h-83z" />
    <glyph glyph-name="X" unicode="X" horiz-adv-x="693" 
d="M8 0l296 363l-287 340h76l252 -302l256 302h76l-291 -340l299 -363h-75l-265 323l-263 -323h-74z" />
    <glyph glyph-name="Y" unicode="Y" horiz-adv-x="665" 
d="M303 0v275l-299 428h72l257 -372h1l254 372h72l-298 -428v-275h-59z" />
    <glyph glyph-name="Z" unicode="Z" horiz-adv-x="676" 
d="M13 0v65l574 585h-564v53h631v-65l-575 -586h585v-52h-651z" />
    <glyph glyph-name="a" unicode="a" horiz-adv-x="720" 
d="M247 -20c-142 0 -227 52 -227 143c0 83 71 144 270 165l202 19c22 2 34 13 34 33c0 82 -84 132 -202 132c-117 0 -221 -59 -245 -130l-43 28c30 84 151 153 289 153c143 0 255 -68 255 -189v-248c0 -33 19 -54 47 -54c23 0 47 14 60 34l33 -35c-20 -31 -61 -51 -101 -51
c-56 0 -92 39 -94 95v34h-1c-41 -78 -150 -129 -277 -129zM252 30c157 0 273 81 273 194v37l-230 -22c-164 -17 -220 -59 -220 -114c0 -60 64 -95 177 -95z" />
    <glyph glyph-name="a.alt1" horiz-adv-x="620" 
d="M247 -20c-142 0 -227 52 -227 143c0 83 71 144 270 165l202 19c22 2 34 13 34 33c0 82 -84 132 -202 132c-117 0 -221 -59 -245 -130l-43 28c30 84 151 153 289 153c143 0 255 -68 255 -189v-334h-51l-4 110h-1c-41 -78 -150 -130 -277 -130zM252 30
c157 0 273 81 273 196v35l-234 -22c-160 -17 -216 -59 -216 -114c0 -60 64 -95 177 -95z" />
    <glyph glyph-name="a.alt2" horiz-adv-x="702" 
d="M340 -20c-181 0 -310 112 -310 271s128 272 309 272c121 0 219 -54 262 -136h1l4 116h51v-503h-50l-4 117h-1c-43 -83 -141 -137 -262 -137zM344 31c151 0 259 93 259 220c0 128 -108 220 -259 220s-259 -92 -259 -220s108 -220 259 -220z" />
    <glyph glyph-name="b" unicode="b" horiz-adv-x="702" 
d="M362 -20c-121 0 -220 54 -262 138h-1l-4 -118h-50v733h55v-347h1c43 83 141 137 262 137c181 0 309 -113 309 -272s-129 -271 -310 -271zM358 31c151 0 259 92 259 220s-108 220 -259 220c-152 0 -259 -92 -259 -220c0 -127 107 -220 259 -220z" />
    <glyph glyph-name="c" unicode="c" horiz-adv-x="674" 
d="M338 -20c-180 0 -308 110 -308 271s121 272 295 272c132 0 239 -69 272 -172l-52 -15c-28 82 -113 136 -218 136c-142 0 -242 -89 -242 -221s108 -221 256 -221c126 0 232 69 260 170l53 -15c-35 -121 -164 -205 -316 -205z" />
    <glyph glyph-name="d" unicode="d" horiz-adv-x="702" 
d="M340 -20c-181 0 -310 112 -310 271s128 272 309 272c121 0 219 -54 262 -137h1v347h55v-733h-50l-4 118h-1c-43 -84 -141 -138 -262 -138zM344 31c151 0 259 93 259 220c0 128 -108 220 -259 220s-259 -92 -259 -220s108 -220 259 -220z" />
    <glyph glyph-name="e" unicode="e" horiz-adv-x="685" 
d="M360 -20c-192 0 -330 115 -330 274c0 156 126 269 303 269c172 0 292 -113 294 -269c0 -7 0 -16 -1 -23h-537c9 -116 123 -199 273 -199c110 0 214 46 259 110l41 -30c-52 -77 -174 -132 -302 -132zM89 281h480c-10 115 -108 189 -237 189c-133 0 -232 -78 -243 -189z
" />
    <glyph glyph-name="f" unicode="f" horiz-adv-x="505" 
d="M148 0v455h-148v48h148v62c0 108 70 176 177 176c84 0 154 -47 177 -115l-48 -23c-17 52 -68 88 -128 88c-74 0 -123 -50 -123 -130v-58h277v-48h-277v-455h-55z" />
    <glyph glyph-name="g" unicode="g" horiz-adv-x="696" 
d="M317 -230c-146 0 -269 50 -338 126l38 40c65 -70 174 -115 300 -115c172 0 279 85 279 227v69h-1c-42 -83 -147 -133 -256 -133c-180 0 -306 110 -306 268c0 159 126 270 305 270c111 0 213 -54 257 -133h1l4 114h51v-455c0 -174 -129 -278 -334 -278zM343 35
c149 0 254 91 254 217c0 127 -106 219 -254 219c-150 0 -255 -91 -255 -219c0 -127 107 -217 255 -217z" />
    <glyph glyph-name="h" unicode="h" 
d="M45 0v733h55v-346h1c40 85 132 136 253 136c148 0 236 -83 236 -221v-302h-55v298c0 108 -72 174 -191 174c-151 0 -244 -88 -244 -227v-245h-55z" />
    <glyph glyph-name="i" unicode="i" horiz-adv-x="161" 
d="M80 606c-26 0 -44 18 -44 44s18 44 44 44s45 -18 45 -44s-19 -44 -45 -44zM52 0v503h56v-503h-56z" />
    <glyph glyph-name="j" unicode="j" horiz-adv-x="161" 
d="M80 606c-26 0 -44 18 -44 44s18 44 44 44s45 -18 45 -44s-19 -44 -45 -44zM-43 -230c-32 0 -67 7 -91 19l9 48c23 -10 53 -16 79 -16c60 0 99 40 99 103v579h55v-582c0 -92 -58 -151 -151 -151z" />
    <glyph glyph-name="k" unicode="k" horiz-adv-x="517" 
d="M45 0v733h55v-464h1l317 234h87l-261 -192l273 -311h-72l-243 278l-102 -75v-203h-55z" />
    <glyph glyph-name="k.alt1" horiz-adv-x="500" 
d="M45 0v733h55v-447h1l298 217h89l-331 -236l343 -267h-89l-310 245h-1v-245h-55z" />
    <glyph glyph-name="l" unicode="l" horiz-adv-x="145" 
d="M45 0v733h55v-733h-55z" />
    <glyph glyph-name="m" unicode="m" horiz-adv-x="1020" 
d="M45 0v503h50l5 -106h1c34 78 119 126 225 126s178 -51 203 -134h1c41 88 133 134 236 134c135 0 214 -80 214 -207v-316h-55v310c0 101 -63 161 -169 161c-136 0 -216 -86 -216 -216v-255h-55v310c0 101 -63 161 -169 161c-136 0 -216 -82 -216 -216v-255h-55z" />
    <glyph glyph-name="n" unicode="n" 
d="M354 523c148 0 236 -83 236 -221v-302h-55v298c0 108 -72 174 -191 174c-151 0 -244 -88 -244 -227v-245h-55v503h51l4 -116h1c40 85 132 136 253 136z" />
    <glyph glyph-name="o" unicode="o" horiz-adv-x="690" 
d="M345 -20c-190 0 -315 107 -315 271s125 272 315 272s315 -108 315 -272s-125 -271 -315 -271zM345 31c157 0 260 87 260 220s-103 220 -260 220s-260 -87 -260 -220s103 -220 260 -220z" />
    <glyph glyph-name="p" unicode="p" horiz-adv-x="702" 
d="M45 -210v713h50l4 -119h1c42 85 141 139 262 139c181 0 310 -113 310 -272s-128 -271 -309 -271c-121 0 -219 53 -262 137h-1v-327h-55zM358 32c151 0 259 92 259 219c0 128 -108 220 -259 220c-152 0 -259 -92 -259 -220c0 -127 107 -219 259 -219z" />
    <glyph glyph-name="q" unicode="q" horiz-adv-x="702" 
d="M602 -210v327h-1c-43 -84 -141 -137 -262 -137c-181 0 -309 112 -309 271s129 272 310 272c121 0 219 -54 262 -139h1l4 119h50v-713h-55zM344 32c151 0 259 92 259 219c0 128 -108 220 -259 220s-259 -92 -259 -220c0 -127 108 -219 259 -219z" />
    <glyph glyph-name="r" unicode="r" horiz-adv-x="473" 
d="M280 523c93 0 162 -55 173 -165l-49 -16c-8 87 -59 129 -130 129c-105 0 -174 -84 -174 -210v-261h-55v503h50l3 -100h1c33 75 99 120 181 120z" />
    <glyph glyph-name="s" unicode="s" horiz-adv-x="570" 
d="M310 -20c-148 0 -267 73 -287 179l50 18c16 -85 112 -146 236 -146c104 0 185 44 185 104c-1 48 -49 75 -150 91l-104 15c-116 19 -177 56 -177 131c1 89 88 151 208 151c110 0 204 -56 232 -134l-48 -22c-22 62 -96 106 -183 106c-89 0 -154 -43 -154 -98
c-1 -45 41 -68 134 -83l105 -15c125 -21 191 -59 191 -137c0 -95 -101 -160 -238 -160z" />
    <glyph glyph-name="t" unicode="t" horiz-adv-x="523" 
d="M318 -20c-106 0 -170 63 -169 169v306h-149v48h148v156l56 14v-170h279v-48h-279v-303c-1 -76 43 -122 116 -122c63 0 120 42 135 105l47 -21c-21 -80 -98 -134 -184 -134z" />
    <glyph glyph-name="u" unicode="u" 
d="M276 -20c-148 0 -236 83 -236 221v302h55v-298c0 -108 72 -174 191 -174c151 0 244 88 244 227v245h55v-503h-51l-4 116h-1c-40 -85 -132 -136 -253 -136z" />
    <glyph glyph-name="u.alt1" horiz-adv-x="625" 
d="M311 -20c-171 0 -271 90 -271 244v279h55v-279c0 -122 80 -193 218 -193s217 71 217 193v279h55v-279c0 -154 -101 -244 -274 -244z" />
    <glyph glyph-name="v" unicode="v" horiz-adv-x="598" 
d="M266 0l-260 503h61l231 -452h1l233 452h61l-262 -503h-65z" />
    <glyph glyph-name="w" unicode="w" horiz-adv-x="991" 
d="M230 0l-224 503h60l200 -450h1l193 450h73l196 -451h1l197 451h59l-220 -503h-73l-196 450h-1l-193 -450h-73z" />
    <glyph glyph-name="x" unicode="x" horiz-adv-x="544" 
d="M5 0l229 260l-219 243h71l186 -209l186 209h71l-219 -243l229 -260h-72l-195 225l-195 -225h-72z" />
    <glyph glyph-name="y" unicode="y" horiz-adv-x="631" 
d="M283 -230c-140 0 -261 58 -310 131l40 38c46 -66 149 -118 270 -118c150 0 248 79 248 209v69h-1c-39 -85 -128 -139 -232 -139c-153 0 -257 105 -257 260v283h55v-281c0 -126 83 -211 206 -211c129 0 229 93 229 232v260h55v-473c0 -162 -119 -260 -303 -260z" />
    <glyph glyph-name="y.alt1" horiz-adv-x="602" 
d="M154 -210l143 258l-292 455h62l257 -395h1l212 395h60l-383 -713h-60z" />
    <glyph glyph-name="z" unicode="z" horiz-adv-x="588" 
d="M20 0v65l473 386h-463v52h528v-66l-473 -386h483v-51h-548z" />
    <glyph glyph-name="Agrave" unicode="&#xc0;" horiz-adv-x="738" 
d="M373 777l-136 119l23 25l135 -119zM8 0l326 703h71l326 -703h-63l-82 177h-433l-82 -177h-63zM176 230h387l-192 418h-2z" />
    <glyph glyph-name="agrave" unicode="&#xe0;" horiz-adv-x="720" 
d="M324 596l-161 139l23 25l160 -139zM247 -20c-142 0 -227 52 -227 143c0 83 71 144 270 165l202 19c22 2 34 13 34 33c0 82 -84 132 -202 132c-117 0 -221 -59 -245 -130l-43 28c30 84 151 153 289 153c143 0 255 -68 255 -189v-248c0 -33 19 -54 47 -54c23 0 47 14 60 34
l33 -35c-20 -31 -61 -51 -101 -51c-56 0 -92 39 -94 95v34h-1c-41 -78 -150 -129 -277 -129zM252 30c157 0 273 81 273 194v37l-230 -22c-164 -17 -220 -59 -220 -114c0 -60 64 -95 177 -95z" />
    <glyph glyph-name="agrave.alt1" horiz-adv-x="620" 
d="M324 596l-161 139l23 25l160 -139zM247 -20c-142 0 -227 52 -227 143c0 83 71 144 270 165l202 19c22 2 34 13 34 33c0 82 -84 132 -202 132c-117 0 -221 -59 -245 -130l-43 28c30 84 151 153 289 153c143 0 255 -68 255 -189v-334h-51l-4 110h-1
c-41 -78 -150 -130 -277 -130zM252 30c157 0 273 81 273 196v35l-234 -22c-160 -17 -216 -59 -216 -114c0 -60 64 -95 177 -95z" />
    <glyph glyph-name="agrave.alt2" horiz-adv-x="702" 
d="M343 596l-161 139l23 25l160 -139zM340 -20c-181 0 -310 112 -310 271s128 272 309 272c121 0 219 -54 262 -136h1l4 116h51v-503h-50l-4 117h-1c-43 -83 -141 -137 -262 -137zM344 31c151 0 259 93 259 220c0 128 -108 220 -259 220s-259 -92 -259 -220
s108 -220 259 -220z" />
    <glyph glyph-name="Aacute" unicode="&#xc1;" horiz-adv-x="738" 
d="M371 777l-22 25l135 119l23 -25zM8 0l326 703h71l326 -703h-63l-82 177h-433l-82 -177h-63zM176 230h387l-192 418h-2z" />
    <glyph glyph-name="aacute" unicode="&#xe1;" horiz-adv-x="720" 
d="M330 596l-23 25l160 139l23 -25zM247 -20c-142 0 -227 52 -227 143c0 83 71 144 270 165l202 19c22 2 34 13 34 33c0 82 -84 132 -202 132c-117 0 -221 -59 -245 -130l-43 28c30 84 151 153 289 153c143 0 255 -68 255 -189v-248c0 -33 19 -54 47 -54c23 0 47 14 60 34
l33 -35c-20 -31 -61 -51 -101 -51c-56 0 -92 39 -94 95v34h-1c-41 -78 -150 -129 -277 -129zM252 30c157 0 273 81 273 194v37l-230 -22c-164 -17 -220 -59 -220 -114c0 -60 64 -95 177 -95z" />
    <glyph glyph-name="aacute.alt1" horiz-adv-x="620" 
d="M329 596l-23 25l160 139l23 -25zM247 -20c-142 0 -227 52 -227 143c0 83 71 144 270 165l202 19c22 2 34 13 34 33c0 82 -84 132 -202 132c-117 0 -221 -59 -245 -130l-43 28c30 84 151 153 289 153c143 0 255 -68 255 -189v-334h-51l-4 110h-1
c-41 -78 -150 -130 -277 -130zM252 30c157 0 273 81 273 196v35l-234 -22c-160 -17 -216 -59 -216 -114c0 -60 64 -95 177 -95z" />
    <glyph glyph-name="aacute.alt2" horiz-adv-x="702" 
d="M349 596l-23 25l160 139l23 -25zM340 -20c-181 0 -310 112 -310 271s128 272 309 272c121 0 219 -54 262 -136h1l4 116h51v-503h-50l-4 117h-1c-43 -83 -141 -137 -262 -137zM344 31c151 0 259 93 259 220c0 128 -108 220 -259 220s-259 -92 -259 -220s108 -220 259 -220
z" />
    <glyph glyph-name="Atilde" unicode="&#xc3;" horiz-adv-x="738" 
d="M466 780c-49 0 -79 31 -106 60c-25 26 -49 50 -85 50c-48 0 -79 -43 -79 -100h-33c0 77 47 133 114 133c50 0 79 -31 107 -60c24 -26 47 -50 83 -50c49 0 82 43 82 101h33c0 -78 -49 -134 -116 -134zM8 0l326 703h71l326 -703h-63l-82 177h-433l-82 -177h-63zM176 230
h387l-192 418h-2z" />
    <glyph glyph-name="atilde" unicode="&#xe3;" horiz-adv-x="720" 
d="M420 590c-48 0 -77 29 -104 57c-25 27 -49 53 -87 53c-48 0 -79 -43 -79 -100h-33c0 77 47 133 114 133c50 0 79 -32 107 -61c24 -25 47 -49 83 -49c49 0 82 43 82 101h33c0 -78 -49 -134 -116 -134zM247 -20c-142 0 -227 52 -227 143c0 83 71 144 270 165l202 19
c22 2 34 13 34 33c0 82 -84 132 -202 132c-117 0 -221 -59 -245 -130l-43 28c30 84 151 153 289 153c143 0 255 -68 255 -189v-248c0 -33 19 -54 47 -54c23 0 47 14 60 34l33 -35c-20 -31 -61 -51 -101 -51c-56 0 -92 39 -94 95v34h-1c-41 -78 -150 -129 -277 -129zM252 30
c157 0 273 81 273 194v37l-230 -22c-164 -17 -220 -59 -220 -114c0 -60 64 -95 177 -95z" />
    <glyph glyph-name="atilde.alt1" horiz-adv-x="620" 
d="M420 590c-48 0 -77 29 -104 57c-25 27 -49 53 -87 53c-48 0 -79 -43 -79 -100h-33c0 77 47 133 114 133c50 0 79 -32 107 -61c24 -25 47 -49 83 -49c49 0 82 43 82 101h33c0 -78 -49 -134 -116 -134zM247 -20c-142 0 -227 52 -227 143c0 83 71 144 270 165l202 19
c22 2 34 13 34 33c0 82 -84 132 -202 132c-117 0 -221 -59 -245 -130l-43 28c30 84 151 153 289 153c143 0 255 -68 255 -189v-334h-51l-4 110h-1c-41 -78 -150 -130 -277 -130zM252 30c157 0 273 81 273 196v35l-234 -22c-160 -17 -216 -59 -216 -114c0 -60 64 -95 177 -95
z" />
    <glyph glyph-name="atilde.alt2" horiz-adv-x="702" 
d="M439 590c-48 0 -77 29 -104 57c-25 27 -49 53 -87 53c-48 0 -79 -43 -79 -100h-33c0 77 47 133 114 133c50 0 79 -32 107 -61c24 -25 47 -49 83 -49c49 0 82 43 82 101h33c0 -78 -49 -134 -116 -134zM340 -20c-181 0 -310 112 -310 271s128 272 309 272
c121 0 219 -54 262 -136h1l4 116h51v-503h-50l-4 117h-1c-43 -83 -141 -137 -262 -137zM344 31c151 0 259 93 259 220c0 128 -108 220 -259 220s-259 -92 -259 -220s108 -220 259 -220z" />
    <glyph glyph-name="Adieresis" unicode="&#xc4;" horiz-adv-x="738" 
d="M238 809c-25 0 -44 18 -44 43s19 43 44 43c26 0 45 -18 45 -43s-19 -43 -45 -43zM501 809c-25 0 -44 18 -44 43s19 43 44 43c26 0 44 -18 44 -43s-18 -43 -44 -43zM8 0l326 703h71l326 -703h-63l-82 177h-433l-82 -177h-63zM176 230h387l-192 418h-2z" />
    <glyph glyph-name="adieresis" unicode="&#xe4;" horiz-adv-x="720" 
d="M192 607c-26 0 -44 18 -44 44c0 25 18 43 44 43c27 0 45 -18 45 -43c0 -26 -18 -44 -45 -44zM457 607c-26 0 -44 18 -44 44c0 25 18 43 44 43s44 -18 44 -43c0 -26 -18 -44 -44 -44zM247 -20c-142 0 -227 52 -227 143c0 83 71 144 270 165l202 19c22 2 34 13 34 33
c0 82 -84 132 -202 132c-117 0 -221 -59 -245 -130l-43 28c30 84 151 153 289 153c143 0 255 -68 255 -189v-248c0 -33 19 -54 47 -54c23 0 47 14 60 34l33 -35c-20 -31 -61 -51 -101 -51c-56 0 -92 39 -94 95v34h-1c-41 -78 -150 -129 -277 -129zM252 30
c157 0 273 81 273 194v37l-230 -22c-164 -17 -220 -59 -220 -114c0 -60 64 -95 177 -95z" />
    <glyph glyph-name="adieresis.alt1" horiz-adv-x="620" 
d="M192 607c-26 0 -44 18 -44 44c0 25 18 43 44 43c27 0 45 -18 45 -43c0 -26 -18 -44 -45 -44zM457 607c-26 0 -44 18 -44 44c0 25 18 43 44 43s44 -18 44 -43c0 -26 -18 -44 -44 -44zM247 -20c-142 0 -227 52 -227 143c0 83 71 144 270 165l202 19c22 2 34 13 34 33
c0 82 -84 132 -202 132c-117 0 -221 -59 -245 -130l-43 28c30 84 151 153 289 153c143 0 255 -68 255 -189v-334h-51l-4 110h-1c-41 -78 -150 -130 -277 -130zM252 30c157 0 273 81 273 196v35l-234 -22c-160 -17 -216 -59 -216 -114c0 -60 64 -95 177 -95z" />
    <glyph glyph-name="adieresis.alt2" horiz-adv-x="702" 
d="M211 607c-26 0 -44 18 -44 44c0 25 18 43 44 43c27 0 45 -18 45 -43c0 -26 -18 -44 -45 -44zM476 607c-26 0 -44 18 -44 44c0 25 18 43 44 43s44 -18 44 -43c0 -26 -18 -44 -44 -44zM340 -20c-181 0 -310 112 -310 271s128 272 309 272c121 0 219 -54 262 -136h1l4 116
h51v-503h-50l-4 117h-1c-43 -83 -141 -137 -262 -137zM344 31c151 0 259 93 259 220c0 128 -108 220 -259 220s-259 -92 -259 -220s108 -220 259 -220z" />
    <glyph glyph-name="Aring" unicode="&#xc5;" horiz-adv-x="738" 
d="M369 786c-52 0 -89 37 -89 89c-1 52 37 89 89 89s89 -37 89 -89s-37 -89 -89 -89zM368 818c33 0 56 24 56 57s-23 57 -56 57c-32 0 -56 -24 -56 -57s24 -57 56 -57zM8 0l326 703h71l326 -703h-63l-82 177h-433l-82 -177h-63zM176 230h387l-192 418h-2z" />
    <glyph glyph-name="aring" unicode="&#xe5;" horiz-adv-x="720" 
d="M325 596c-52 0 -89 37 -89 89c-1 52 37 89 89 89s89 -37 89 -89s-37 -89 -89 -89zM324 628c33 0 56 24 56 57s-23 57 -56 57c-32 0 -56 -24 -56 -57s24 -57 56 -57zM247 -20c-142 0 -227 52 -227 143c0 83 71 144 270 165l202 19c22 2 34 13 34 33c0 82 -84 132 -202 132
c-117 0 -221 -59 -245 -130l-43 28c30 84 151 153 289 153c143 0 255 -68 255 -189v-248c0 -33 19 -54 47 -54c23 0 47 14 60 34l33 -35c-20 -31 -61 -51 -101 -51c-56 0 -92 39 -94 95v34h-1c-41 -78 -150 -129 -277 -129zM252 30c157 0 273 81 273 194v37l-230 -22
c-164 -17 -220 -59 -220 -114c0 -60 64 -95 177 -95z" />
    <glyph glyph-name="aring.alt1" horiz-adv-x="620" 
d="M325 596c-52 0 -89 37 -89 89c-1 52 37 89 89 89s89 -37 89 -89s-37 -89 -89 -89zM324 628c33 0 56 24 56 57s-23 57 -56 57c-32 0 -56 -24 -56 -57s24 -57 56 -57zM247 -20c-142 0 -227 52 -227 143c0 83 71 144 270 165l202 19c22 2 34 13 34 33c0 82 -84 132 -202 132
c-117 0 -221 -59 -245 -130l-43 28c30 84 151 153 289 153c143 0 255 -68 255 -189v-334h-51l-4 110h-1c-41 -78 -150 -130 -277 -130zM252 30c157 0 273 81 273 196v35l-234 -22c-160 -17 -216 -59 -216 -114c0 -60 64 -95 177 -95z" />
    <glyph glyph-name="aring.alt2" horiz-adv-x="702" 
d="M344 596c-52 0 -89 37 -89 89c-1 52 37 89 89 89s89 -37 89 -89s-37 -89 -89 -89zM343 628c33 0 56 24 56 57s-23 57 -56 57c-32 0 -56 -24 -56 -57s24 -57 56 -57zM340 -20c-181 0 -310 112 -310 271s128 272 309 272c121 0 219 -54 262 -136h1l4 116h51v-503h-50
l-4 117h-1c-43 -83 -141 -137 -262 -137zM344 31c151 0 259 93 259 220c0 128 -108 220 -259 220s-259 -92 -259 -220s108 -220 259 -220z" />
    <glyph glyph-name="Amacron" unicode="&#x100;" horiz-adv-x="738" 
d="M181 794v35h378v-35h-378zM8 0l326 703h71l326 -703h-63l-82 177h-433l-82 -177h-63zM176 230h387l-192 418h-2z" />
    <glyph glyph-name="amacron" unicode="&#x101;" horiz-adv-x="720" 
d="M136 594v35h378v-35h-378zM247 -20c-142 0 -227 52 -227 143c0 83 71 144 270 165l202 19c22 2 34 13 34 33c0 82 -84 132 -202 132c-117 0 -221 -59 -245 -130l-43 28c30 84 151 153 289 153c143 0 255 -68 255 -189v-248c0 -33 19 -54 47 -54c23 0 47 14 60 34l33 -35
c-20 -31 -61 -51 -101 -51c-56 0 -92 39 -94 95v34h-1c-41 -78 -150 -129 -277 -129zM252 30c157 0 273 81 273 194v37l-230 -22c-164 -17 -220 -59 -220 -114c0 -60 64 -95 177 -95z" />
    <glyph glyph-name="amacron.alt1" horiz-adv-x="620" 
d="M136 594v35h378v-35h-378zM247 -20c-142 0 -227 52 -227 143c0 83 71 144 270 165l202 19c22 2 34 13 34 33c0 82 -84 132 -202 132c-117 0 -221 -59 -245 -130l-43 28c30 84 151 153 289 153c143 0 255 -68 255 -189v-334h-51l-4 110h-1c-41 -78 -150 -130 -277 -130z
M252 30c157 0 273 81 273 196v35l-234 -22c-160 -17 -216 -59 -216 -114c0 -60 64 -95 177 -95z" />
    <glyph glyph-name="amacron.alt2" horiz-adv-x="702" 
d="M155 594v35h378v-35h-378zM340 -20c-181 0 -310 112 -310 271s128 272 309 272c121 0 219 -54 262 -136h1l4 116h51v-503h-50l-4 117h-1c-43 -83 -141 -137 -262 -137zM344 31c151 0 259 93 259 220c0 128 -108 220 -259 220s-259 -92 -259 -220s108 -220 259 -220z" />
    <glyph glyph-name="Abreve" unicode="&#x102;" horiz-adv-x="738" 
d="M369 790c-98 0 -169 48 -170 124h35c0 -56 57 -90 134 -90c79 0 136 34 136 90h34c0 -75 -71 -124 -169 -124zM8 0l326 703h71l326 -703h-63l-82 177h-433l-82 -177h-63zM176 230h387l-192 418h-2z" />
    <glyph glyph-name="abreve" unicode="&#x103;" horiz-adv-x="720" 
d="M325 596c-117 0 -201 62 -202 148h35c0 -66 70 -114 166 -114c98 0 169 48 168 114h34c1 -86 -84 -148 -201 -148zM247 -20c-142 0 -227 52 -227 143c0 83 71 144 270 165l202 19c22 2 34 13 34 33c0 82 -84 132 -202 132c-117 0 -221 -59 -245 -130l-43 28
c30 84 151 153 289 153c143 0 255 -68 255 -189v-248c0 -33 19 -54 47 -54c23 0 47 14 60 34l33 -35c-20 -31 -61 -51 -101 -51c-56 0 -92 39 -94 95v34h-1c-41 -78 -150 -129 -277 -129zM252 30c157 0 273 81 273 194v37l-230 -22c-164 -17 -220 -59 -220 -114
c0 -60 64 -95 177 -95z" />
    <glyph glyph-name="abreve.alt1" horiz-adv-x="620" 
d="M325 596c-117 0 -201 62 -202 148h35c0 -66 70 -114 166 -114c98 0 169 48 168 114h34c1 -86 -84 -148 -201 -148zM247 -20c-142 0 -227 52 -227 143c0 83 71 144 270 165l202 19c22 2 34 13 34 33c0 82 -84 132 -202 132c-117 0 -221 -59 -245 -130l-43 28
c30 84 151 153 289 153c143 0 255 -68 255 -189v-334h-51l-4 110h-1c-41 -78 -150 -130 -277 -130zM252 30c157 0 273 81 273 196v35l-234 -22c-160 -17 -216 -59 -216 -114c0 -60 64 -95 177 -95z" />
    <glyph glyph-name="abreve.alt2" horiz-adv-x="702" 
d="M344 596c-117 0 -201 62 -202 148h35c0 -66 70 -114 166 -114c98 0 169 48 168 114h34c1 -86 -84 -148 -201 -148zM340 -20c-181 0 -310 112 -310 271s128 272 309 272c121 0 219 -54 262 -136h1l4 116h51v-503h-50l-4 117h-1c-43 -83 -141 -137 -262 -137zM344 31
c151 0 259 93 259 220c0 128 -108 220 -259 220s-259 -92 -259 -220s108 -220 259 -220z" />
    <glyph glyph-name="Aogonek" unicode="&#x104;" horiz-adv-x="738" 
d="M730 0c-112 -48 -184 -80 -183 -132c0 -25 21 -42 54 -42c29 0 63 18 83 47l22 -27c-25 -33 -68 -54 -106 -54c-53 0 -88 29 -89 74c-1 57 59 97 154 139l-79 172h-433l-82 -177h-63l326 703h71l326 -703h-1zM176 230h387l-192 418h-2z" />
    <glyph glyph-name="aogonek" unicode="&#x105;" horiz-adv-x="720" 
d="M648 -17c-91 -39 -148 -70 -147 -116c0 -25 21 -42 54 -42c29 0 63 18 83 47l22 -27c-25 -33 -68 -54 -106 -54c-53 0 -88 29 -89 74c-1 49 43 85 117 122c-35 13 -55 46 -57 88v34h-1c-41 -78 -150 -129 -277 -129c-142 0 -227 52 -227 143c0 83 71 144 270 165l202 19
c22 2 34 13 34 33c0 82 -84 132 -202 132c-117 0 -221 -59 -245 -130l-43 28c30 84 151 153 289 153c143 0 255 -68 255 -189v-248c0 -33 19 -54 47 -54c23 0 47 14 60 34l33 -35c-15 -24 -42 -41 -72 -48zM525 224v37l-230 -22c-164 -17 -220 -59 -220 -114
c0 -60 64 -95 177 -95c157 0 273 81 273 194z" />
    <glyph glyph-name="aogonek.alt1" horiz-adv-x="620" 
d="M580 0c-112 -48 -184 -80 -183 -132c0 -25 21 -42 54 -42c29 0 63 18 83 47l22 -27c-25 -33 -68 -54 -106 -54c-53 0 -88 29 -89 74c-1 59 64 100 168 145l-4 99h-1c-41 -78 -150 -130 -277 -130c-142 0 -227 52 -227 143c0 83 71 144 270 165l202 19c22 2 34 13 34 33
c0 82 -84 132 -202 132c-117 0 -221 -59 -245 -130l-43 28c30 84 151 153 289 153c143 0 255 -68 255 -189v-334zM525 226v35l-234 -22c-160 -17 -216 -59 -216 -114c0 -60 64 -95 177 -95c157 0 273 81 273 196z" />
    <glyph glyph-name="aogonek.alt2" horiz-adv-x="702" 
d="M657 0c-112 -48 -184 -80 -183 -132c0 -25 21 -42 54 -42c29 0 63 18 83 47l22 -27c-25 -33 -68 -54 -106 -54c-53 0 -88 29 -89 74c-1 60 65 101 169 146l-4 105h-1c-43 -83 -141 -137 -262 -137c-181 0 -310 112 -310 271s128 272 309 272c121 0 219 -54 262 -136h1
l4 116h51v-503zM344 31c151 0 259 93 259 220c0 128 -108 220 -259 220s-259 -92 -259 -220s108 -220 259 -220z" />
    <glyph glyph-name="Acircumflex" unicode="&#xc2;" horiz-adv-x="738" 
d="M203 783l-20 28l161 103h51l161 -103l-19 -28l-168 107zM8 0l326 703h71l326 -703h-63l-82 177h-433l-82 -177h-63zM176 230h387l-192 418h-2z" />
    <glyph glyph-name="acircumflex" unicode="&#xe2;" horiz-adv-x="720" 
d="M126 593l-19 28l193 123h51l194 -123l-19 -28l-200 127zM247 -20c-142 0 -227 52 -227 143c0 83 71 144 270 165l202 19c22 2 34 13 34 33c0 82 -84 132 -202 132c-117 0 -221 -59 -245 -130l-43 28c30 84 151 153 289 153c143 0 255 -68 255 -189v-248
c0 -33 19 -54 47 -54c23 0 47 14 60 34l33 -35c-20 -31 -61 -51 -101 -51c-56 0 -92 39 -94 95v34h-1c-41 -78 -150 -129 -277 -129zM252 30c157 0 273 81 273 194v37l-230 -22c-164 -17 -220 -59 -220 -114c0 -60 64 -95 177 -95z" />
    <glyph glyph-name="acircumflex.alt1" horiz-adv-x="620" 
d="M126 593l-19 28l193 123h51l194 -123l-19 -28l-200 127zM247 -20c-142 0 -227 52 -227 143c0 83 71 144 270 165l202 19c22 2 34 13 34 33c0 82 -84 132 -202 132c-117 0 -221 -59 -245 -130l-43 28c30 84 151 153 289 153c143 0 255 -68 255 -189v-334h-51l-4 110h-1
c-41 -78 -150 -130 -277 -130zM252 30c157 0 273 81 273 196v35l-234 -22c-160 -17 -216 -59 -216 -114c0 -60 64 -95 177 -95z" />
    <glyph glyph-name="acircumflex.alt2" horiz-adv-x="702" 
d="M145 593l-19 28l193 123h51l194 -123l-19 -28l-200 127zM340 -20c-181 0 -310 112 -310 271s128 272 309 272c121 0 219 -54 262 -136h1l4 116h51v-503h-50l-4 117h-1c-43 -83 -141 -137 -262 -137zM344 31c151 0 259 93 259 220c0 128 -108 220 -259 220
s-259 -92 -259 -220s108 -220 259 -220z" />
    <glyph glyph-name="AE" unicode="&#xc6;" horiz-adv-x="951" 
d="M-1 0l438 703h481v-54h-392v-267h352v-51h-352v-277h402v-54h-460v151h-307l-94 -151h-68zM190 203h278v443h-1z" />
    <glyph glyph-name="ae" unicode="&#xe6;" horiz-adv-x="1125" 
d="M266 -20c-143 0 -246 59 -246 146c0 77 85 140 225 153l242 23c21 2 34 15 34 36c0 85 -81 133 -192 133c-115 0 -213 -52 -236 -121l-44 28c30 82 149 145 279 145c115 0 206 -49 235 -133c38 78 130 133 234 133c159 0 271 -111 271 -263c0 -10 -1 -21 -2 -33h-484
c16 -115 116 -195 246 -195c98 0 189 46 233 110l41 -30c-51 -77 -159 -132 -274 -132c-127 0 -233 66 -270 165c-24 -96 -144 -165 -292 -165zM582 277h428c-3 113 -94 194 -216 194c-118 0 -206 -82 -212 -194zM268 31c148 0 255 75 255 179v46l-280 -26
c-96 -9 -168 -52 -168 -103c0 -55 81 -96 193 -96z" />
    <glyph glyph-name="AEacute" unicode="&#x1fc;" horiz-adv-x="951" 
d="M479 777l-22 25l135 119l23 -25zM-1 0l438 703h481v-54h-392v-267h352v-51h-352v-277h402v-54h-460v151h-307l-94 -151h-68zM190 203h278v443h-1z" />
    <glyph glyph-name="aeacute" unicode="&#x1fd;" horiz-adv-x="1125" 
d="M570 596l-23 25l160 139l23 -25zM266 -20c-143 0 -246 59 -246 146c0 77 85 140 225 153l242 23c21 2 34 15 34 36c0 85 -81 133 -192 133c-115 0 -213 -52 -236 -121l-44 28c30 82 149 145 279 145c115 0 206 -49 235 -133c38 78 130 133 234 133
c159 0 271 -111 271 -263c0 -10 -1 -21 -2 -33h-484c16 -115 116 -195 246 -195c98 0 189 46 233 110l41 -30c-51 -77 -159 -132 -274 -132c-127 0 -233 66 -270 165c-24 -96 -144 -165 -292 -165zM582 277h428c-3 113 -94 194 -216 194c-118 0 -206 -82 -212 -194zM268 31
c148 0 255 75 255 179v46l-280 -26c-96 -9 -168 -52 -168 -103c0 -55 81 -96 193 -96z" />
    <glyph glyph-name="Cacute" unicode="&#x106;" horiz-adv-x="871" 
d="M427 777l-22 25l135 119l23 -25zM454 -25c-255 0 -416 146 -416 376s149 377 388 377c169 0 305 -97 348 -248l-55 -16c-34 128 -149 210 -292 210c-203 0 -330 -126 -330 -323s139 -322 357 -322c170 0 299 96 333 248l56 -16c-40 -175 -191 -286 -389 -286z" />
    <glyph glyph-name="cacute" unicode="&#x107;" horiz-adv-x="674" 
d="M327 596l-23 25l160 139l23 -25zM338 -20c-180 0 -308 110 -308 271s121 272 295 272c132 0 239 -69 272 -172l-52 -15c-28 82 -113 136 -218 136c-142 0 -242 -89 -242 -221s108 -221 256 -221c126 0 232 69 260 170l53 -15c-35 -121 -164 -205 -316 -205z" />
    <glyph glyph-name="Cdotaccent" unicode="&#x10a;" horiz-adv-x="871" 
d="M425 809c-25 0 -44 18 -44 44c0 25 19 43 44 43c26 0 45 -18 45 -43c0 -26 -19 -44 -45 -44zM454 -25c-255 0 -416 146 -416 376s149 377 388 377c169 0 305 -97 348 -248l-55 -16c-34 128 -149 210 -292 210c-203 0 -330 -126 -330 -323s139 -322 357 -322
c170 0 299 96 333 248l56 -16c-40 -175 -191 -286 -389 -286z" />
    <glyph glyph-name="cdotaccent" unicode="&#x10b;" horiz-adv-x="674" 
d="M322 606c-26 0 -44 19 -44 44c0 26 18 44 44 44s45 -18 45 -44c0 -25 -19 -44 -45 -44zM338 -20c-180 0 -308 110 -308 271s121 272 295 272c132 0 239 -69 272 -172l-52 -15c-28 82 -113 136 -218 136c-142 0 -242 -89 -242 -221s108 -221 256 -221
c126 0 232 69 260 170l53 -15c-35 -121 -164 -205 -316 -205z" />
    <glyph glyph-name="Ccaron" unicode="&#x10c;" horiz-adv-x="871" 
d="M400 790l-161 103l20 28l166 -107l168 107l19 -28l-161 -103h-51zM454 -25c-255 0 -416 146 -416 376s149 377 388 377c169 0 305 -97 348 -248l-55 -16c-34 128 -149 210 -292 210c-203 0 -330 -126 -330 -323s139 -322 357 -322c170 0 299 96 333 248l56 -16
c-40 -175 -191 -286 -389 -286z" />
    <glyph glyph-name="ccaron" unicode="&#x10d;" horiz-adv-x="674" 
d="M297 606l-193 123l19 28l200 -127l200 127l19 -28l-194 -123h-51zM338 -20c-180 0 -308 110 -308 271s121 272 295 272c132 0 239 -69 272 -172l-52 -15c-28 82 -113 136 -218 136c-142 0 -242 -89 -242 -221s108 -221 256 -221c126 0 232 69 260 170l53 -15
c-35 -121 -164 -205 -316 -205z" />
    <glyph glyph-name="Ccedilla" unicode="&#xc7;" horiz-adv-x="871" 
d="M843 261c-39 -171 -184 -281 -376 -286l-3 -24c57 -2 97 -30 97 -80c0 -48 -39 -79 -91 -79c-40 0 -80 24 -95 57l28 19c10 -24 37 -42 66 -42c33 0 57 15 57 44c0 31 -27 48 -65 48h-35l7 57c-243 8 -395 152 -395 376c0 230 149 377 388 377c169 0 305 -97 348 -248
l-55 -16c-34 128 -149 210 -292 210c-203 0 -330 -126 -330 -323s139 -322 357 -322c170 0 299 96 333 248z" />
    <glyph glyph-name="ccedilla" unicode="&#xe7;" horiz-adv-x="674" 
d="M654 185c-34 -117 -155 -199 -300 -205l-3 -29c57 -2 97 -30 97 -80c0 -48 -39 -79 -91 -79c-40 0 -80 24 -95 57l28 19c10 -24 37 -42 66 -42c33 0 57 15 57 44c0 31 -27 48 -65 48h-35l7 62c-170 7 -290 115 -290 271c0 161 121 272 295 272c132 0 239 -69 272 -172
l-52 -15c-28 82 -113 136 -218 136c-142 0 -242 -89 -242 -221s108 -221 256 -221c126 0 232 69 260 170z" />
    <glyph glyph-name="Ccircumflex" unicode="&#x108;" horiz-adv-x="871" 
d="M259 783l-20 28l161 103h51l161 -103l-19 -28l-168 107zM454 -25c-255 0 -416 146 -416 376s149 377 388 377c169 0 305 -97 348 -248l-55 -16c-34 128 -149 210 -292 210c-203 0 -330 -126 -330 -323s139 -322 357 -322c170 0 299 96 333 248l56 -16
c-40 -175 -191 -286 -389 -286z" />
    <glyph glyph-name="ccircumflex" unicode="&#x109;" horiz-adv-x="674" 
d="M124 593l-19 28l193 123h51l194 -123l-19 -28l-200 127zM338 -20c-180 0 -308 110 -308 271s121 272 295 272c132 0 239 -69 272 -172l-52 -15c-28 82 -113 136 -218 136c-142 0 -242 -89 -242 -221s108 -221 256 -221c126 0 232 69 260 170l53 -15
c-35 -121 -164 -205 -316 -205z" />
    <glyph glyph-name="Dcaron" unicode="&#x10e;" horiz-adv-x="797" 
d="M341 790l-161 103l20 28l166 -107l168 107l19 -28l-161 -103h-51zM55 0v703h315c251 0 390 -126 390 -352s-139 -351 -390 -351h-315zM114 54h256c213 0 331 106 331 297c0 192 -118 298 -331 298h-256v-595z" />
    <glyph glyph-name="dcaron" unicode="&#x10f;" horiz-adv-x="702" 
d="M340 -20c-181 0 -310 112 -310 271s128 272 309 272c121 0 219 -54 262 -137h1v347h55v-733h-50l-4 118h-1c-43 -84 -141 -138 -262 -138zM705 560l6 28c40 -8 65 13 60 54c-26 -8 -53 11 -53 38c0 21 16 37 38 37c29 0 49 -28 49 -74c0 -67 -41 -96 -100 -83zM344 31
c151 0 259 93 259 220c0 128 -108 220 -259 220s-259 -92 -259 -220s108 -220 259 -220z" />
    <glyph glyph-name="Dcroat" unicode="&#x110;" horiz-adv-x="882" 
d="M455 703c251 0 390 -126 390 -352s-139 -351 -390 -351h-315v389h-140v34h140v280h315zM455 54c213 0 331 106 331 297c0 192 -118 298 -331 298h-256v-226h276v-34h-276v-335h256z" />
    <glyph glyph-name="dcroat" unicode="&#x111;" horiz-adv-x="710" 
d="M755 640v-35h-98v-605h-50l-4 118h-1c-43 -84 -141 -138 -262 -138c-181 0 -310 112 -310 271s128 272 309 272c121 0 219 -54 262 -137h1v219h-279v35h279v93h55v-93h98zM344 31c151 0 259 93 259 220c0 128 -108 220 -259 220s-259 -92 -259 -220s108 -220 259 -220z
" />
    <glyph glyph-name="Egrave" unicode="&#xc8;" horiz-adv-x="664" 
d="M357 777l-136 119l23 25l135 -119zM55 0v703h576v-54h-518v-258h478v-53h-478v-284h528v-54h-586z" />
    <glyph glyph-name="egrave" unicode="&#xe8;" horiz-adv-x="685" 
d="M332 596l-161 139l23 25l160 -139zM360 -20c-192 0 -330 115 -330 274c0 156 126 269 303 269c172 0 292 -113 294 -269c0 -7 0 -16 -1 -23h-537c9 -116 123 -199 273 -199c110 0 214 46 259 110l41 -30c-52 -77 -174 -132 -302 -132zM89 281h480
c-10 115 -108 189 -237 189c-133 0 -232 -78 -243 -189z" />
    <glyph glyph-name="Eacute" unicode="&#xc9;" horiz-adv-x="664" 
d="M356 777l-22 25l135 119l23 -25zM55 0v703h576v-54h-518v-258h478v-53h-478v-284h528v-54h-586z" />
    <glyph glyph-name="eacute" unicode="&#xe9;" horiz-adv-x="685" 
d="M337 596l-23 25l160 139l23 -25zM360 -20c-192 0 -330 115 -330 274c0 156 126 269 303 269c172 0 292 -113 294 -269c0 -7 0 -16 -1 -23h-537c9 -116 123 -199 273 -199c110 0 214 46 259 110l41 -30c-52 -77 -174 -132 -302 -132zM89 281h480
c-10 115 -108 189 -237 189c-133 0 -232 -78 -243 -189z" />
    <glyph glyph-name="Ecaron" unicode="&#x11a;" horiz-adv-x="664" 
d="M328 790l-161 103l20 28l166 -107l168 107l19 -28l-161 -103h-51zM55 0v703h576v-54h-518v-258h478v-53h-478v-284h528v-54h-586z" />
    <glyph glyph-name="ecaron" unicode="&#x11b;" horiz-adv-x="685" 
d="M307 606l-193 123l19 28l200 -127l200 127l19 -28l-194 -123h-51zM360 -20c-192 0 -330 115 -330 274c0 156 126 269 303 269c172 0 292 -113 294 -269c0 -7 0 -16 -1 -23h-537c9 -116 123 -199 273 -199c110 0 214 46 259 110l41 -30c-52 -77 -174 -132 -302 -132z
M89 281h480c-10 115 -108 189 -237 189c-133 0 -232 -78 -243 -189z" />
    <glyph glyph-name="Ecircumflex" unicode="&#xca;" horiz-adv-x="664" 
d="M187 783l-20 28l161 103h51l161 -103l-19 -28l-168 107zM55 0v703h576v-54h-518v-258h478v-53h-478v-284h528v-54h-586z" />
    <glyph glyph-name="ecircumflex" unicode="&#xea;" horiz-adv-x="685" 
d="M134 593l-19 28l193 123h51l194 -123l-19 -28l-200 127zM360 -20c-192 0 -330 115 -330 274c0 156 126 269 303 269c172 0 292 -113 294 -269c0 -7 0 -16 -1 -23h-537c9 -116 123 -199 273 -199c110 0 214 46 259 110l41 -30c-52 -77 -174 -132 -302 -132zM89 281h480
c-10 115 -108 189 -237 189c-133 0 -232 -78 -243 -189z" />
    <glyph glyph-name="Edieresis" unicode="&#xcb;" horiz-adv-x="664" 
d="M222 809c-25 0 -44 18 -44 43s19 43 44 43c26 0 45 -18 45 -43s-19 -43 -45 -43zM485 809c-25 0 -44 18 -44 43s19 43 44 43c26 0 44 -18 44 -43s-18 -43 -44 -43zM55 0v703h576v-54h-518v-258h478v-53h-478v-284h528v-54h-586z" />
    <glyph glyph-name="edieresis" unicode="&#xeb;" horiz-adv-x="685" 
d="M200 607c-26 0 -44 18 -44 44c0 25 18 43 44 43c27 0 45 -18 45 -43c0 -26 -18 -44 -45 -44zM465 607c-26 0 -44 18 -44 44c0 25 18 43 44 43s44 -18 44 -43c0 -26 -18 -44 -44 -44zM360 -20c-192 0 -330 115 -330 274c0 156 126 269 303 269c172 0 292 -113 294 -269
c0 -7 0 -16 -1 -23h-537c9 -116 123 -199 273 -199c110 0 214 46 259 110l41 -30c-52 -77 -174 -132 -302 -132zM89 281h480c-10 115 -108 189 -237 189c-133 0 -232 -78 -243 -189z" />
    <glyph glyph-name="Emacron" unicode="&#x112;" horiz-adv-x="664" 
d="M165 794v35h378v-35h-378zM55 0v703h576v-54h-518v-258h478v-53h-478v-284h528v-54h-586z" />
    <glyph glyph-name="emacron" unicode="&#x113;" horiz-adv-x="685" 
d="M144 594v35h378v-35h-378zM360 -20c-192 0 -330 115 -330 274c0 156 126 269 303 269c172 0 292 -113 294 -269c0 -7 0 -16 -1 -23h-537c9 -116 123 -199 273 -199c110 0 214 46 259 110l41 -30c-52 -77 -174 -132 -302 -132zM89 281h480c-10 115 -108 189 -237 189
c-133 0 -232 -78 -243 -189z" />
    <glyph glyph-name="Ebreve" unicode="&#x114;" horiz-adv-x="664" 
d="M354 790c-98 0 -169 48 -170 124h35c0 -56 57 -90 134 -90c79 0 136 34 136 90h34c0 -75 -71 -124 -169 -124zM55 0v703h576v-54h-518v-258h478v-53h-478v-284h528v-54h-586z" />
    <glyph glyph-name="ebreve" unicode="&#x115;" horiz-adv-x="685" 
d="M332 596c-117 0 -201 62 -202 148h35c0 -66 70 -114 166 -114c98 0 169 48 168 114h34c1 -86 -84 -148 -201 -148zM360 -20c-192 0 -330 115 -330 274c0 156 126 269 303 269c172 0 292 -113 294 -269c0 -7 0 -16 -1 -23h-537c9 -116 123 -199 273 -199
c110 0 214 46 259 110l41 -30c-52 -77 -174 -132 -302 -132zM89 281h480c-10 115 -108 189 -237 189c-133 0 -232 -78 -243 -189z" />
    <glyph glyph-name="Edotaccent" unicode="&#x116;" horiz-adv-x="664" 
d="M354 809c-25 0 -44 18 -44 44c0 25 19 43 44 43c26 0 45 -18 45 -43c0 -26 -19 -44 -45 -44zM55 0v703h576v-54h-518v-258h478v-53h-478v-284h528v-54h-586z" />
    <glyph glyph-name="edotaccent" unicode="&#x117;" horiz-adv-x="685" 
d="M332 606c-26 0 -44 19 -44 44c0 26 18 44 44 44s45 -18 45 -44c0 -25 -19 -44 -45 -44zM360 -20c-192 0 -330 115 -330 274c0 156 126 269 303 269c172 0 292 -113 294 -269c0 -7 0 -16 -1 -23h-537c9 -116 123 -199 273 -199c110 0 214 46 259 110l41 -30
c-52 -77 -174 -132 -302 -132zM89 281h480c-10 115 -108 189 -237 189c-133 0 -232 -78 -243 -189z" />
    <glyph glyph-name="Eogonek" unicode="&#x118;" horiz-adv-x="664" 
d="M513 -174c29 0 63 18 83 47l22 -27c-25 -33 -68 -54 -106 -54c-53 0 -88 29 -89 74c-1 54 54 93 142 134h-510v703h576v-54h-518v-258h478v-53h-478v-284h528v-53l1 -1c-112 -48 -184 -80 -183 -132c0 -25 21 -42 54 -42z" />
    <glyph glyph-name="eogonek" unicode="&#x119;" horiz-adv-x="685" 
d="M489 -1c-110 -48 -181 -80 -180 -131c0 -25 21 -42 54 -42c29 0 63 18 83 47l22 -27c-25 -33 -68 -54 -106 -54c-53 0 -88 29 -89 74c-1 46 37 80 102 114h-15c-192 0 -330 115 -330 274c0 156 126 269 303 269c172 0 292 -113 294 -269c0 -7 0 -16 -1 -23h-537
c9 -116 123 -199 273 -199c110 0 214 46 259 110l41 -30c-34 -50 -98 -91 -173 -113zM332 470c-133 0 -232 -78 -243 -189h480c-10 115 -108 189 -237 189z" />
    <glyph glyph-name="Gcircumflex" unicode="&#x11c;" horiz-adv-x="910" 
d="M273 783l-20 28l161 103h51l161 -103l-19 -28l-168 107zM456 -25c-243 0 -418 158 -418 376s168 377 402 377c160 0 305 -90 344 -217l-54 -16c-36 105 -156 179 -290 179c-200 0 -344 -134 -344 -323c1 -186 153 -322 366 -322c200 0 352 128 352 303h-511v53h569v-385
h-52l-4 172h-1c-64 -121 -193 -197 -359 -197z" />
    <glyph glyph-name="Gcircumflex.alt1" horiz-adv-x="916" 
d="M273 783l-20 28l161 103h51l161 -103l-19 -28l-168 107zM464 -25c-248 0 -426 158 -426 376c0 219 168 377 402 377c160 0 305 -90 344 -215l-55 -16c-35 104 -154 177 -289 177c-200 0 -343 -134 -343 -323c0 -186 153 -322 367 -322c201 -1 354 127 354 303h-516v53
h575c1 -11 1 -19 1 -29c0 -220 -166 -381 -414 -381z" />
    <glyph glyph-name="gcircumflex" unicode="&#x11d;" horiz-adv-x="696" 
d="M145 593l-19 28l193 123h51l194 -123l-19 -28l-200 127zM317 -230c-146 0 -269 50 -338 126l38 40c65 -70 174 -115 300 -115c172 0 279 85 279 227v69h-1c-42 -83 -147 -133 -256 -133c-180 0 -306 110 -306 268c0 159 126 270 305 270c111 0 213 -54 257 -133h1l4 114
h51v-455c0 -174 -129 -278 -334 -278zM343 35c149 0 254 91 254 217c0 127 -106 219 -254 219c-150 0 -255 -91 -255 -219c0 -127 107 -217 255 -217z" />
    <glyph glyph-name="Gbreve" unicode="&#x11e;" horiz-adv-x="910" 
d="M439 790c-98 0 -169 48 -170 124h35c0 -56 57 -90 134 -90c79 0 136 34 136 90h34c0 -75 -71 -124 -169 -124zM456 -25c-243 0 -418 158 -418 376s168 377 402 377c160 0 305 -90 344 -217l-54 -16c-36 105 -156 179 -290 179c-200 0 -344 -134 -344 -323
c1 -186 153 -322 366 -322c200 0 352 128 352 303h-511v53h569v-385h-52l-4 172h-1c-64 -121 -193 -197 -359 -197z" />
    <glyph glyph-name="Gbreve.alt1" horiz-adv-x="916" 
d="M440 790c-98 0 -169 48 -170 124h35c0 -56 57 -90 134 -90c79 0 136 34 136 90h34c0 -75 -71 -124 -169 -124zM464 -25c-248 0 -426 158 -426 376c0 219 168 377 402 377c160 0 305 -90 344 -215l-55 -16c-35 104 -154 177 -289 177c-200 0 -343 -134 -343 -323
c0 -186 153 -322 367 -322c201 -1 354 127 354 303h-516v53h575c1 -11 1 -19 1 -29c0 -220 -166 -381 -414 -381z" />
    <glyph glyph-name="gbreve" unicode="&#x11f;" horiz-adv-x="696" 
d="M344 596c-117 0 -201 62 -202 148h35c0 -66 70 -114 166 -114c98 0 169 48 168 114h34c1 -86 -84 -148 -201 -148zM317 -230c-146 0 -269 50 -338 126l38 40c65 -70 174 -115 300 -115c172 0 279 85 279 227v69h-1c-42 -83 -147 -133 -256 -133c-180 0 -306 110 -306 268
c0 159 126 270 305 270c111 0 213 -54 257 -133h1l4 114h51v-455c0 -174 -129 -278 -334 -278zM343 35c149 0 254 91 254 217c0 127 -106 219 -254 219c-150 0 -255 -91 -255 -219c0 -127 107 -217 255 -217z" />
    <glyph glyph-name="Gdotaccent" unicode="&#x120;" horiz-adv-x="910" 
d="M439 809c-25 0 -44 18 -44 44c0 25 19 43 44 43c26 0 45 -18 45 -43c0 -26 -19 -44 -45 -44zM456 -25c-243 0 -418 158 -418 376s168 377 402 377c160 0 305 -90 344 -217l-54 -16c-36 105 -156 179 -290 179c-200 0 -344 -134 -344 -323c1 -186 153 -322 366 -322
c200 0 352 128 352 303h-511v53h569v-385h-52l-4 172h-1c-64 -121 -193 -197 -359 -197z" />
    <glyph glyph-name="Gdotaccent.alt1" horiz-adv-x="916" 
d="M440 809c-25 0 -44 18 -44 44c0 25 19 43 44 43c26 0 45 -18 45 -43c0 -26 -19 -44 -45 -44zM464 -25c-248 0 -426 158 -426 376c0 219 168 377 402 377c160 0 305 -90 344 -215l-55 -16c-35 104 -154 177 -289 177c-200 0 -343 -134 -343 -323c0 -186 153 -322 367 -322
c201 -1 354 127 354 303h-516v53h575c1 -11 1 -19 1 -29c0 -220 -166 -381 -414 -381z" />
    <glyph glyph-name="gdotaccent" unicode="&#x121;" horiz-adv-x="696" 
d="M344 606c-26 0 -44 19 -44 44c0 26 18 44 44 44s45 -18 45 -44c0 -25 -19 -44 -45 -44zM317 -230c-146 0 -269 50 -338 126l38 40c65 -70 174 -115 300 -115c172 0 279 85 279 227v69h-1c-42 -83 -147 -133 -256 -133c-180 0 -306 110 -306 268c0 159 126 270 305 270
c111 0 213 -54 257 -133h1l4 114h51v-455c0 -174 -129 -278 -334 -278zM343 35c149 0 254 91 254 217c0 127 -106 219 -254 219c-150 0 -255 -91 -255 -219c0 -127 107 -217 255 -217z" />
    <glyph glyph-name="uni0122" unicode="&#x122;" horiz-adv-x="910" 
d="M456 -25c-243 0 -418 158 -418 376s168 377 402 377c160 0 305 -90 344 -217l-54 -16c-36 105 -156 179 -290 179c-200 0 -344 -134 -344 -323c1 -186 153 -322 366 -322c200 0 352 128 352 303h-511v53h569v-385h-52l-4 172h-1c-64 -121 -193 -197 -359 -197zM408 -240
l6 29c40 -8 65 12 60 53c-26 -8 -53 12 -53 39c0 20 16 36 38 36c29 0 49 -28 49 -74c0 -66 -41 -95 -100 -83z" />
    <glyph glyph-name="uni0122.alt1" horiz-adv-x="916" 
d="M464 -25c-248 0 -426 158 -426 376c0 219 168 377 402 377c160 0 305 -90 344 -215l-55 -16c-35 104 -154 177 -289 177c-200 0 -343 -134 -343 -323c0 -186 153 -322 367 -322c201 -1 354 127 354 303h-516v53h575c1 -11 1 -19 1 -29c0 -220 -166 -381 -414 -381z
M412 -240l6 29c40 -8 65 12 60 53c-26 -8 -53 12 -53 39c0 20 16 36 38 36c29 0 49 -28 49 -74c0 -66 -41 -95 -100 -83z" />
    <glyph glyph-name="uni0123" unicode="&#x123;" horiz-adv-x="696" 
d="M396 743l-6 -29c-40 8 -65 -12 -60 -53c26 8 53 -12 53 -39c0 -20 -16 -36 -38 -36c-29 0 -49 28 -49 74c0 66 41 95 100 83zM317 -230c-146 0 -269 50 -338 126l38 40c65 -70 174 -115 300 -115c172 0 279 85 279 227v69h-1c-42 -83 -147 -133 -256 -133
c-180 0 -306 110 -306 268c0 159 126 270 305 270c111 0 213 -54 257 -133h1l4 114h51v-455c0 -174 -129 -278 -334 -278zM343 35c149 0 254 91 254 217c0 127 -106 219 -254 219c-150 0 -255 -91 -255 -219c0 -127 107 -217 255 -217z" />
    <glyph glyph-name="Igrave" unicode="&#xcc;" horiz-adv-x="169" 
d="M80 780l-70 124l28 17l70 -124zM55 0v703h59v-703h-59z" />
    <glyph glyph-name="igrave" unicode="&#xec;" horiz-adv-x="145" 
d="M67 600l-85 144l29 17l85 -143zM45 0v503h55v-503h-55z" />
    <glyph glyph-name="Iacute" unicode="&#xcd;" horiz-adv-x="169" 
d="M89 780l-28 17l70 124l28 -17zM55 0v703h59v-703h-59z" />
    <glyph glyph-name="iacute" unicode="&#xed;" horiz-adv-x="145" 
d="M78 600l-29 18l85 143l29 -17zM45 0v503h55v-503h-55z" />
    <glyph glyph-name="Icircumflex" unicode="&#xce;" horiz-adv-x="169" 
d="M15 783l-29 18l73 113h50l74 -112l-28 -19l-71 107zM55 0v703h59v-703h-59z" />
    <glyph glyph-name="icircumflex" unicode="&#xee;" horiz-adv-x="145" 
d="M-9 593l-30 18l86 133h51l86 -132l-29 -19l-83 127zM45 0v503h55v-503h-55z" />
    <glyph glyph-name="Idieresis" unicode="&#xcf;" horiz-adv-x="169" 
d="M23 809c-26 0 -44 18 -44 43s18 43 44 43c25 0 44 -18 44 -43s-19 -43 -44 -43zM148 809c-26 0 -44 18 -44 43s18 43 44 43s44 -18 44 -43s-18 -43 -44 -43zM55 0v703h59v-703h-59z" />
    <glyph glyph-name="idieresis" unicode="&#xef;" horiz-adv-x="145" 
d="M11 606c-26 0 -44 18 -44 44s18 44 44 44c27 0 45 -18 45 -44s-18 -44 -45 -44zM134 606c-27 0 -44 18 -44 44s17 44 44 44c26 0 44 -18 44 -44s-18 -44 -44 -44zM45 0v503h55v-503h-55z" />
    <glyph glyph-name="Itilde" unicode="&#x128;" horiz-adv-x="169" 
d="M136 780c-36 0 -52 34 -66 63c-11 25 -21 47 -36 47c-22 0 -35 -43 -35 -100h-32c0 77 21 133 67 133c34 0 51 -34 65 -64c10 -24 20 -46 35 -46c23 0 36 43 36 101h32c0 -78 -21 -134 -66 -134zM55 0v703h59v-703h-59z" />
    <glyph glyph-name="itilde" unicode="&#x129;" horiz-adv-x="145" 
d="M124 590c-33 0 -49 28 -62 57c-13 26 -23 53 -40 53c-22 0 -35 -43 -35 -100h-32c0 77 22 133 67 133c33 0 50 -31 63 -60c11 -26 21 -50 37 -50c23 0 36 43 36 101h33c0 -78 -21 -134 -67 -134zM45 0v503h55v-503h-55z" />
    <glyph glyph-name="Imacron" unicode="&#x12a;" horiz-adv-x="169" 
d="M6 790v33h157v-33h-157zM55 0v703h59v-703h-59z" />
    <glyph glyph-name="imacron" unicode="&#x12b;" horiz-adv-x="145" 
d="M1 595v34h143v-34h-143zM45 0v503h55v-503h-55z" />
    <glyph glyph-name="Iogonek" unicode="&#x12e;" horiz-adv-x="169" 
d="M114 0c-112 -48 -184 -80 -183 -132c0 -25 21 -42 54 -42c29 0 63 18 83 47l22 -27c-25 -33 -68 -54 -106 -54c-53 0 -88 29 -89 74c-1 58 61 98 160 142v695h59v-703z" />
    <glyph glyph-name="iogonek" unicode="&#x12f;" horiz-adv-x="145" 
d="M80 694c26 0 45 -18 45 -44s-19 -44 -45 -44s-44 18 -44 44s18 44 44 44zM52 9v494h56v-503c-112 -48 -184 -80 -184 -132c1 -25 22 -42 54 -42c30 0 64 18 84 47l22 -27c-25 -33 -68 -54 -106 -54c-53 0 -88 29 -89 74c-1 59 61 99 163 143z" />
    <glyph glyph-name="Idotaccent" unicode="&#x130;" horiz-adv-x="169" 
d="M85 809c-25 0 -44 18 -44 44c0 25 19 43 44 43c26 0 45 -18 45 -43c0 -26 -19 -44 -45 -44zM55 0v703h59v-703h-59z" />
    <glyph glyph-name="dotlessi" unicode="&#x131;" horiz-adv-x="145" 
d="M45 0v503h55v-503h-55z" />
    <glyph glyph-name="IJ" unicode="&#x132;" horiz-adv-x="686" 
d="M55 0v703h59v-703h-59zM422 -21c-127 0 -213 70 -235 189l52 21c15 -99 81 -157 180 -157c102 0 163 69 163 186v485h59v-489c0 -148 -82 -235 -219 -235z" />
    <glyph glyph-name="ij" unicode="&#x133;" horiz-adv-x="321" 
d="M80 606c-26 0 -44 18 -44 44s18 44 44 44s45 -18 45 -44s-19 -44 -45 -44zM241 606c-26 0 -44 18 -44 44s18 44 44 44s45 -18 45 -44s-19 -44 -45 -44zM118 -230c-32 0 -67 7 -91 19l9 48c23 -10 53 -16 79 -16c60 0 99 40 99 103v579h55v-582c0 -92 -58 -151 -151 -151z
M52 0v503h56v-503h-56z" />
    <glyph glyph-name="IJacute" horiz-adv-x="687" 
d="M91 780l-28 17l70 124l29 -18zM612 780l-28 17l70 124l29 -18zM56 0v703h59v-703h-59zM423 -21c-127 0 -212 70 -235 189l52 21c15 -99 81 -157 180 -157c102 0 163 69 163 186v485h59v-489c0 -148 -82 -235 -219 -235z" />
    <glyph glyph-name="ijacute" horiz-adv-x="302" 
d="M80 600l-28 18l84 143l29 -17zM233 600l-29 18l85 143l29 -17zM102 -230c-31 0 -66 7 -91 19l10 48c23 -10 52 -16 78 -16c61 0 99 40 99 103v579h55v-582c0 -92 -58 -151 -151 -151zM45 0v503h55v-503h-55z" />
    <glyph glyph-name="uni0237" unicode="&#x237;" horiz-adv-x="157" 
d="M-43 -230c-32 0 -67 7 -91 19l9 48c23 -10 53 -16 79 -16c60 0 99 40 99 103v579h55v-582c0 -92 -58 -151 -151 -151z" />
    <glyph glyph-name="uni0136" unicode="&#x136;" horiz-adv-x="623" 
d="M55 0v703h59v-338h1l408 338h85l-341 -281l351 -422h-75l-319 385l-110 -91v-294h-59zM264 -240l6 29c40 -8 65 12 60 53c-26 -8 -53 12 -53 39c0 20 16 36 38 36c29 0 49 -28 49 -74c0 -66 -41 -95 -100 -83z" />
    <glyph glyph-name="uni0136.alt1" horiz-adv-x="613" 
d="M55 0v703h59v-314h1l403 314h90l-435 -336l445 -367h-89l-414 345h-1v-345h-59zM264 -240l6 29c40 -8 65 12 60 53c-26 -8 -53 12 -53 39c0 20 16 36 38 36c29 0 49 -28 49 -74c0 -66 -41 -95 -100 -83z" />
    <glyph glyph-name="uni0137" unicode="&#x137;" horiz-adv-x="517" 
d="M45 0v733h55v-464h1l317 234h87l-261 -192l273 -311h-72l-243 278l-102 -75v-203h-55zM190 -240l6 29c40 -8 65 12 60 53c-26 -8 -53 12 -53 39c0 20 16 36 38 36c29 0 49 -28 49 -74c0 -66 -41 -95 -100 -83z" />
    <glyph glyph-name="uni0137.alt1" horiz-adv-x="500" 
d="M45 0v733h55v-447h1l298 217h89l-331 -236l343 -267h-89l-310 245h-1v-245h-55zM190 -240l6 29c40 -8 65 12 60 53c-26 -8 -53 12 -53 39c0 20 16 36 38 36c29 0 49 -28 49 -74c0 -66 -41 -95 -100 -83z" />
    <glyph glyph-name="Lacute" unicode="&#x139;" horiz-adv-x="550" 
d="M87 777l-22 25l135 119l23 -25zM55 0v703h59v-649h429v-54h-488z" />
    <glyph glyph-name="lacute" unicode="&#x13a;" horiz-adv-x="145" 
d="M75 777l-22 25l135 119l23 -25zM45 0v733h55v-733h-55z" />
    <glyph glyph-name="Lcaron" unicode="&#x13d;" horiz-adv-x="550" 
d="M228 560l6 28c40 -8 65 13 60 54c-26 -8 -53 11 -53 38c0 21 16 37 38 37c29 0 49 -28 49 -74c0 -67 -41 -96 -100 -83zM55 0v703h59v-649h429v-54h-488z" />
    <glyph glyph-name="lcaron" unicode="&#x13e;" horiz-adv-x="145" 
d="M45 0v733h55v-733h-55zM149 560l6 28c40 -8 65 13 60 54c-26 -8 -53 11 -53 38c0 21 16 37 38 37c29 0 49 -28 49 -74c0 -67 -41 -96 -100 -83z" />
    <glyph glyph-name="uni013B" unicode="&#x13b;" horiz-adv-x="550" 
d="M55 0v703h59v-649h429v-54h-488zM249 -240l6 29c40 -8 65 12 60 53c-26 -8 -53 12 -53 39c0 20 16 36 38 36c29 0 49 -28 49 -74c0 -66 -41 -95 -100 -83z" />
    <glyph glyph-name="uni013C" unicode="&#x13c;" horiz-adv-x="145" 
d="M45 0v733h55v-733h-55zM21 -240l6 29c40 -8 65 12 60 53c-26 -8 -53 12 -53 39c0 20 16 36 38 36c29 0 49 -28 49 -74c0 -66 -41 -95 -100 -83z" />
    <glyph glyph-name="Lslash" unicode="&#x141;" horiz-adv-x="633" 
d="M197 54h428v-54h-487v312l-121 -69l-17 30l138 78v352h59v-318l249 141l17 -30l-266 -151v-291z" />
    <glyph glyph-name="lslash" unicode="&#x142;" horiz-adv-x="407" 
d="M407 509l-177 -113v-396h-56v360l-157 -100l-17 29l174 112v332h56v-297l160 103z" />
    <glyph glyph-name="Nacute" unicode="&#x143;" horiz-adv-x="746" 
d="M381 777l-22 25l135 119l23 -25zM55 0v703h81l495 -638h1v638h59v-703h-81l-494 638h-2v-638h-59z" />
    <glyph glyph-name="nacute" unicode="&#x144;" 
d="M331 596l-23 25l160 139l23 -25zM354 523c148 0 236 -83 236 -221v-302h-55v298c0 108 -72 174 -191 174c-151 0 -244 -88 -244 -227v-245h-55v503h51l4 -116h1c40 85 132 136 253 136z" />
    <glyph glyph-name="Ncaron" unicode="&#x147;" horiz-adv-x="746" 
d="M353 790l-161 103l20 28l166 -107l168 107l19 -28l-161 -103h-51zM55 0v703h81l495 -638h1v638h59v-703h-81l-494 638h-2v-638h-59z" />
    <glyph glyph-name="ncaron" unicode="&#x148;" 
d="M301 606l-193 123l19 28l200 -127l200 127l19 -28l-194 -123h-51zM354 523c148 0 236 -83 236 -221v-302h-55v298c0 108 -72 174 -191 174c-151 0 -244 -88 -244 -227v-245h-55v503h51l4 -116h1c40 85 132 136 253 136z" />
    <glyph glyph-name="Ntilde" unicode="&#xd1;" horiz-adv-x="746" 
d="M475 780c-49 0 -79 31 -106 60c-25 26 -49 50 -85 50c-48 0 -79 -43 -79 -100h-33c0 77 47 133 114 133c50 0 79 -31 107 -60c24 -26 47 -50 83 -50c49 0 82 43 82 101h33c0 -78 -49 -134 -116 -134zM55 0v703h81l495 -638h1v638h59v-703h-81l-494 638h-2v-638h-59z" />
    <glyph glyph-name="ntilde" unicode="&#xf1;" 
d="M422 590c-48 0 -77 29 -104 57c-25 27 -49 53 -87 53c-48 0 -79 -43 -79 -100h-33c0 77 47 133 114 133c50 0 79 -32 107 -61c24 -25 47 -49 83 -49c49 0 82 43 82 101h33c0 -78 -49 -134 -116 -134zM354 523c148 0 236 -83 236 -221v-302h-55v298
c0 108 -72 174 -191 174c-151 0 -244 -88 -244 -227v-245h-55v503h51l4 -116h1c40 85 132 136 253 136z" />
    <glyph glyph-name="uni0145" unicode="&#x145;" horiz-adv-x="746" 
d="M55 0v703h81l495 -638h1v638h59v-703h-81l-494 638h-2v-638h-59zM327 -240l6 29c40 -8 65 12 60 53c-26 -8 -53 12 -53 39c0 20 16 36 38 36c29 0 49 -28 49 -74c0 -66 -41 -95 -100 -83z" />
    <glyph glyph-name="uni0146" unicode="&#x146;" 
d="M354 523c148 0 236 -83 236 -221v-302h-55v298c0 108 -72 174 -191 174c-151 0 -244 -88 -244 -227v-245h-55v503h51l4 -116h1c40 85 132 136 253 136zM270 -240l6 29c40 -8 65 12 60 53c-26 -8 -53 12 -53 39c0 20 16 36 38 36c29 0 49 -28 49 -74
c0 -66 -41 -95 -100 -83z" />
    <glyph glyph-name="Ograve" unicode="&#xd2;" horiz-adv-x="925" 
d="M466 777l-136 119l23 25l135 -119zM463 -25c-255 0 -425 151 -425 376c0 226 170 377 425 377s425 -151 425 -377c0 -225 -170 -376 -425 -376zM463 29c219 0 366 129 366 322c0 194 -147 323 -366 323c-220 0 -366 -129 -366 -323c0 -193 146 -322 366 -322z" />
    <glyph glyph-name="ograve" unicode="&#xf2;" horiz-adv-x="690" 
d="M344 596l-161 139l23 25l160 -139zM345 -20c-190 0 -315 107 -315 271s125 272 315 272s315 -108 315 -272s-125 -271 -315 -271zM345 31c157 0 260 87 260 220s-103 220 -260 220s-260 -87 -260 -220s103 -220 260 -220z" />
    <glyph glyph-name="Oacute" unicode="&#xd3;" horiz-adv-x="925" 
d="M465 777l-22 25l135 119l23 -25zM463 -25c-255 0 -425 151 -425 376c0 226 170 377 425 377s425 -151 425 -377c0 -225 -170 -376 -425 -376zM463 29c219 0 366 129 366 322c0 194 -147 323 -366 323c-220 0 -366 -129 -366 -323c0 -193 146 -322 366 -322z" />
    <glyph glyph-name="oacute" unicode="&#xf3;" horiz-adv-x="690" 
d="M350 596l-23 25l160 139l23 -25zM345 -20c-190 0 -315 107 -315 271s125 272 315 272s315 -108 315 -272s-125 -271 -315 -271zM345 31c157 0 260 87 260 220s-103 220 -260 220s-260 -87 -260 -220s103 -220 260 -220z" />
    <glyph glyph-name="Otilde" unicode="&#xd5;" horiz-adv-x="925" 
d="M559 780c-49 0 -79 31 -106 60c-25 26 -49 50 -85 50c-48 0 -79 -43 -79 -100h-33c0 77 47 133 114 133c50 0 79 -31 107 -60c24 -26 47 -50 83 -50c49 0 82 43 82 101h33c0 -78 -49 -134 -116 -134zM463 -25c-255 0 -425 151 -425 376c0 226 170 377 425 377
s425 -151 425 -377c0 -225 -170 -376 -425 -376zM463 29c219 0 366 129 366 322c0 194 -147 323 -366 323c-220 0 -366 -129 -366 -323c0 -193 146 -322 366 -322z" />
    <glyph glyph-name="otilde" unicode="&#xf5;" horiz-adv-x="690" 
d="M440 590c-48 0 -77 29 -104 57c-25 27 -49 53 -87 53c-48 0 -79 -43 -79 -100h-33c0 77 47 133 114 133c50 0 79 -32 107 -61c24 -25 47 -49 83 -49c49 0 82 43 82 101h33c0 -78 -49 -134 -116 -134zM345 -20c-190 0 -315 107 -315 271s125 272 315 272
s315 -108 315 -272s-125 -271 -315 -271zM345 31c157 0 260 87 260 220s-103 220 -260 220s-260 -87 -260 -220s103 -220 260 -220z" />
    <glyph glyph-name="Odieresis" unicode="&#xd6;" horiz-adv-x="925" 
d="M331 809c-25 0 -44 18 -44 43s19 43 44 43c26 0 45 -18 45 -43s-19 -43 -45 -43zM594 809c-25 0 -44 18 -44 43s19 43 44 43c26 0 44 -18 44 -43s-18 -43 -44 -43zM463 -25c-255 0 -425 151 -425 376c0 226 170 377 425 377s425 -151 425 -377
c0 -225 -170 -376 -425 -376zM463 29c219 0 366 129 366 322c0 194 -147 323 -366 323c-220 0 -366 -129 -366 -323c0 -193 146 -322 366 -322z" />
    <glyph glyph-name="odieresis" unicode="&#xf6;" horiz-adv-x="690" 
d="M212 607c-26 0 -44 18 -44 44c0 25 18 43 44 43c27 0 45 -18 45 -43c0 -26 -18 -44 -45 -44zM477 607c-26 0 -44 18 -44 44c0 25 18 43 44 43s44 -18 44 -43c0 -26 -18 -44 -44 -44zM345 -20c-190 0 -315 107 -315 271s125 272 315 272s315 -108 315 -272
s-125 -271 -315 -271zM345 31c157 0 260 87 260 220s-103 220 -260 220s-260 -87 -260 -220s103 -220 260 -220z" />
    <glyph glyph-name="Oslash" unicode="&#xd8;" horiz-adv-x="925" 
d="M634 702c157 -52 254 -180 254 -351c0 -225 -170 -376 -425 -376c-47 0 -91 5 -132 15l-53 -124l-31 13l51 120c-161 51 -260 180 -260 352c0 226 170 377 425 377c49 0 95 -6 137 -16l46 107l32 -13zM97 351c0 -147 85 -257 223 -301l259 611c-36 8 -75 13 -116 13
c-220 0 -366 -129 -366 -323zM463 29c219 0 366 129 366 322c0 146 -83 255 -217 300l-260 -610c35 -8 72 -12 111 -12z" />
    <glyph glyph-name="oslash" unicode="&#xf8;" horiz-adv-x="690" 
d="M477 503c114 -39 183 -130 183 -252c0 -164 -125 -271 -315 -271c-31 0 -60 3 -87 8l-97 -228l-31 13l95 223c-121 36 -195 129 -195 255c0 164 125 272 315 272c35 0 68 -4 98 -11l86 202l32 -14zM85 251c0 -102 61 -177 160 -206l178 418c-24 5 -50 8 -78 8
c-157 0 -260 -87 -260 -220zM345 31c157 0 260 87 260 220c0 98 -56 171 -149 203l-177 -417c21 -4 43 -6 66 -6z" />
    <glyph glyph-name="Oslashacute" unicode="&#x1fe;" horiz-adv-x="925" 
d="M575 896l-136 -119l-22 25l135 119zM634 702c157 -52 254 -180 254 -351c0 -225 -170 -376 -425 -376c-47 0 -91 5 -132 15l-53 -124l-31 13l51 120c-161 51 -260 180 -260 352c0 226 170 377 425 377c49 0 95 -6 137 -16l46 107l32 -13zM97 351c0 -147 85 -257 223 -301
l259 611c-36 8 -75 13 -116 13c-220 0 -366 -129 -366 -323zM463 29c219 0 366 129 366 322c0 146 -83 255 -217 300l-260 -610c35 -8 72 -12 111 -12z" />
    <glyph glyph-name="oslashacute" unicode="&#x1ff;" horiz-adv-x="690" 
d="M444 735l-160 -139l-23 25l160 139zM477 503c114 -39 183 -130 183 -252c0 -164 -125 -271 -315 -271c-31 0 -60 3 -87 8l-97 -228l-31 13l95 223c-121 36 -195 129 -195 255c0 164 125 272 315 272c35 0 68 -4 98 -11l86 202l32 -14zM85 251c0 -102 61 -177 160 -206
l178 418c-24 5 -50 8 -78 8c-157 0 -260 -87 -260 -220zM345 31c157 0 260 87 260 220c0 98 -56 171 -149 203l-177 -417c21 -4 43 -6 66 -6z" />
    <glyph glyph-name="Omacron" unicode="&#x14c;" horiz-adv-x="925" 
d="M274 794v35h378v-35h-378zM463 -25c-255 0 -425 151 -425 376c0 226 170 377 425 377s425 -151 425 -377c0 -225 -170 -376 -425 -376zM463 29c219 0 366 129 366 322c0 194 -147 323 -366 323c-220 0 -366 -129 -366 -323c0 -193 146 -322 366 -322z" />
    <glyph glyph-name="omacron" unicode="&#x14d;" horiz-adv-x="690" 
d="M156 594v35h378v-35h-378zM345 -20c-190 0 -315 107 -315 271s125 272 315 272s315 -108 315 -272s-125 -271 -315 -271zM345 31c157 0 260 87 260 220s-103 220 -260 220s-260 -87 -260 -220s103 -220 260 -220z" />
    <glyph glyph-name="Obreve" unicode="&#x14e;" horiz-adv-x="925" 
d="M462 790c-98 0 -169 48 -170 124h35c0 -56 57 -90 134 -90c79 0 136 34 136 90h34c0 -75 -71 -124 -169 -124zM463 -25c-255 0 -425 151 -425 376c0 226 170 377 425 377s425 -151 425 -377c0 -225 -170 -376 -425 -376zM463 29c219 0 366 129 366 322
c0 194 -147 323 -366 323c-220 0 -366 -129 -366 -323c0 -193 146 -322 366 -322z" />
    <glyph glyph-name="obreve" unicode="&#x14f;" horiz-adv-x="690" 
d="M345 596c-117 0 -201 62 -202 148h35c0 -66 70 -114 166 -114c98 0 169 48 168 114h34c1 -86 -84 -148 -201 -148zM345 -20c-190 0 -315 107 -315 271s125 272 315 272s315 -108 315 -272s-125 -271 -315 -271zM345 31c157 0 260 87 260 220s-103 220 -260 220
s-260 -87 -260 -220s103 -220 260 -220z" />
    <glyph glyph-name="Ohungarumlaut" unicode="&#x150;" horiz-adv-x="925" 
d="M364 763l-22 25l135 119l23 -25zM559 763l-23 25l136 119l23 -25zM463 -25c-255 0 -425 151 -425 376c0 226 170 377 425 377s425 -151 425 -377c0 -225 -170 -376 -425 -376zM463 29c219 0 366 129 366 322c0 194 -147 323 -366 323c-220 0 -366 -129 -366 -323
c0 -193 146 -322 366 -322z" />
    <glyph glyph-name="ohungarumlaut" unicode="&#x151;" horiz-adv-x="690" 
d="M247 596l-23 25l160 139l23 -25zM442 596l-22 25l160 139l23 -25zM345 -20c-190 0 -315 107 -315 271s125 272 315 272s315 -108 315 -272s-125 -271 -315 -271zM345 31c157 0 260 87 260 220s-103 220 -260 220s-260 -87 -260 -220s103 -220 260 -220z" />
    <glyph glyph-name="Ocircumflex" unicode="&#xd4;" horiz-adv-x="925" 
d="M296 783l-20 28l161 103h51l161 -103l-19 -28l-168 107zM463 -25c-255 0 -425 151 -425 376c0 226 170 377 425 377s425 -151 425 -377c0 -225 -170 -376 -425 -376zM463 29c219 0 366 129 366 322c0 194 -147 323 -366 323c-220 0 -366 -129 -366 -323
c0 -193 146 -322 366 -322z" />
    <glyph glyph-name="ocircumflex" unicode="&#xf4;" horiz-adv-x="690" 
d="M147 593l-19 28l193 123h51l194 -123l-19 -28l-200 127zM345 -20c-190 0 -315 107 -315 271s125 272 315 272s315 -108 315 -272s-125 -271 -315 -271zM345 31c157 0 260 87 260 220s-103 220 -260 220s-260 -87 -260 -220s103 -220 260 -220z" />
    <glyph glyph-name="OE" unicode="&#x152;" horiz-adv-x="1134" 
d="M457 -21c-251 0 -419 149 -419 372c0 224 168 372 419 372c53 0 114 -8 155 -20h489v-52h-436v-269h396v-49h-396v-281h446v-52h-499c-40 -12 -103 -21 -155 -21zM454 31c57 0 119 9 152 21v598c-33 12 -93 21 -147 21c-217 0 -362 -127 -362 -320
c0 -192 143 -320 357 -320z" />
    <glyph glyph-name="oe" unicode="&#x153;" horiz-adv-x="1261" 
d="M1197 142l41 -30c-51 -78 -174 -132 -302 -132c-141 0 -252 61 -302 156c-46 -95 -153 -156 -289 -156c-185 0 -315 112 -315 271c0 160 130 272 315 272c134 0 240 -59 287 -152c46 93 147 152 277 152c172 0 294 -112 294 -269v-23h-539c12 -117 124 -199 275 -199
c108 0 215 45 258 110zM345 29c152 0 260 92 260 222s-108 222 -260 222s-260 -92 -260 -222s108 -222 260 -222zM908 470c-133 0 -231 -77 -244 -187h482c-11 111 -109 187 -238 187z" />
    <glyph glyph-name="Racute" unicode="&#x154;" horiz-adv-x="766" 
d="M360 777l-22 25l135 119l23 -25zM665 -20c-55 0 -84 38 -101 89l-44 133c-19 59 -56 102 -119 102h-287v-304h-59v703h407c145 0 243 -80 243 -198c0 -102 -79 -178 -203 -190v-1c40 -21 63 -60 79 -108l39 -121c9 -31 23 -53 53 -53c23 0 43 14 60 41l33 -35
c-25 -36 -60 -58 -101 -58zM114 358h346c111 0 186 59 186 145c0 87 -75 146 -186 146h-346v-291z" />
    <glyph glyph-name="Racute.alt1" horiz-adv-x="742" 
d="M360 777l-22 25l135 119l23 -25zM55 0v703h407c145 0 243 -80 243 -197c0 -79 -48 -145 -131 -173v-1c64 -13 103 -61 103 -127v-205h-59v199c0 62 -45 105 -111 105h-393v-304h-59zM114 358h346c111 0 186 59 186 145c0 87 -75 146 -186 146h-346v-291z" />
    <glyph glyph-name="Racute.alt2" horiz-adv-x="734" 
d="M360 777l-22 25l135 119l23 -25zM55 0v703h407c144 0 242 -81 242 -198c0 -106 -82 -182 -204 -191l198 -314h-69l-189 304h-326v-304h-59zM114 358h346c111 0 186 58 186 145s-75 146 -186 146h-346v-291z" />
    <glyph glyph-name="racute" unicode="&#x155;" horiz-adv-x="473" 
d="M251 596l-23 25l160 139l23 -25zM280 523c93 0 162 -55 173 -165l-49 -16c-8 87 -59 129 -130 129c-105 0 -174 -84 -174 -210v-261h-55v503h50l3 -100h1c33 75 99 120 181 120z" />
    <glyph glyph-name="Rcaron" unicode="&#x158;" horiz-adv-x="766" 
d="M332 790l-161 103l20 28l166 -107l168 107l19 -28l-161 -103h-51zM665 -20c-55 0 -84 38 -101 89l-44 133c-19 59 -56 102 -119 102h-287v-304h-59v703h407c145 0 243 -80 243 -198c0 -102 -79 -178 -203 -190v-1c40 -21 63 -60 79 -108l39 -121c9 -31 23 -53 53 -53
c23 0 43 14 60 41l33 -35c-25 -36 -60 -58 -101 -58zM114 358h346c111 0 186 59 186 145c0 87 -75 146 -186 146h-346v-291z" />
    <glyph glyph-name="Rcaron.alt1" horiz-adv-x="742" 
d="M332 790l-161 103l20 28l166 -107l168 107l19 -28l-161 -103h-51zM55 0v703h407c145 0 243 -80 243 -197c0 -79 -48 -145 -131 -173v-1c64 -13 103 -61 103 -127v-205h-59v199c0 62 -45 105 -111 105h-393v-304h-59zM114 358h346c111 0 186 59 186 145
c0 87 -75 146 -186 146h-346v-291z" />
    <glyph glyph-name="Rcaron.alt2" horiz-adv-x="734" 
d="M332 790l-161 103l20 28l166 -107l168 107l19 -28l-161 -103h-51zM55 0v703h407c144 0 242 -81 242 -198c0 -106 -82 -182 -204 -191l198 -314h-69l-189 304h-326v-304h-59zM114 358h346c111 0 186 58 186 145s-75 146 -186 146h-346v-291z" />
    <glyph glyph-name="rcaron" unicode="&#x159;" horiz-adv-x="473" 
d="M220 606l-193 123l19 28l200 -127l200 127l19 -28l-194 -123h-51zM280 523c93 0 162 -55 173 -165l-49 -16c-8 87 -59 129 -130 129c-105 0 -174 -84 -174 -210v-261h-55v503h50l3 -100h1c33 75 99 120 181 120z" />
    <glyph glyph-name="uni0156" unicode="&#x156;" horiz-adv-x="766" 
d="M665 -20c-55 0 -84 38 -101 89l-44 133c-19 59 -56 102 -119 102h-287v-304h-59v703h407c145 0 243 -80 243 -198c0 -102 -79 -178 -203 -190v-1c40 -21 63 -60 79 -108l39 -121c9 -31 23 -53 53 -53c23 0 43 14 60 41l33 -35c-25 -36 -60 -58 -101 -58zM114 358h346
c111 0 186 59 186 145c0 87 -75 146 -186 146h-346v-291zM313 -240l6 29c40 -8 65 12 60 53c-26 -8 -53 12 -53 39c0 20 16 36 38 36c29 0 49 -28 49 -74c0 -66 -41 -95 -100 -83z" />
    <glyph glyph-name="uni0156.alt1" horiz-adv-x="742" 
d="M55 0v703h407c145 0 243 -80 243 -197c0 -79 -48 -145 -131 -173v-1c64 -13 103 -61 103 -127v-205h-59v199c0 62 -45 105 -111 105h-393v-304h-59zM114 358h346c111 0 186 59 186 145c0 87 -75 146 -186 146h-346v-291zM313 -240l6 29c40 -8 65 12 60 53
c-26 -8 -53 12 -53 39c0 20 16 36 38 36c29 0 49 -28 49 -74c0 -66 -41 -95 -100 -83z" />
    <glyph glyph-name="uni0156.alt2" horiz-adv-x="734" 
d="M55 0v703h407c144 0 242 -81 242 -198c0 -106 -82 -182 -204 -191l198 -314h-69l-189 304h-326v-304h-59zM114 358h346c111 0 186 58 186 145s-75 146 -186 146h-346v-291zM313 -240l6 29c40 -8 65 12 60 53c-26 -8 -53 12 -53 39c0 20 16 36 38 36c29 0 49 -28 49 -74
c0 -66 -41 -95 -100 -83z" />
    <glyph glyph-name="uni0157" unicode="&#x157;" horiz-adv-x="473" 
d="M280 523c93 0 162 -55 173 -165l-49 -16c-8 87 -59 129 -130 129c-105 0 -174 -84 -174 -210v-261h-55v503h50l3 -100h1c33 75 99 120 181 120zM20 -240l6 29c40 -8 65 12 60 53c-26 -8 -53 12 -53 39c0 20 16 36 38 36c29 0 49 -28 49 -74c0 -66 -41 -95 -100 -83z" />
    <glyph glyph-name="Sacute" unicode="&#x15a;" horiz-adv-x="699" 
d="M336 777l-22 25l135 119l23 -25zM381 -25c-187 0 -329 97 -361 241l54 20c22 -124 146 -207 308 -207c145 0 238 63 238 154c0 71 -57 113 -187 138l-161 31c-139 26 -203 79 -203 170c0 125 106 206 264 206c141 0 254 -73 289 -182l-51 -24c-29 91 -122 152 -237 152
c-124 0 -206 -59 -206 -146c0 -64 48 -100 158 -121l160 -30c159 -29 232 -89 233 -188c0 -128 -118 -214 -298 -214z" />
    <glyph glyph-name="sacute" unicode="&#x15b;" horiz-adv-x="570" 
d="M279 596l-23 25l160 139l23 -25zM310 -20c-148 0 -267 73 -287 179l50 18c16 -85 112 -146 236 -146c104 0 185 44 185 104c-1 48 -49 75 -150 91l-104 15c-116 19 -177 56 -177 131c1 89 88 151 208 151c110 0 204 -56 232 -134l-48 -22c-22 62 -96 106 -183 106
c-89 0 -154 -43 -154 -98c-1 -45 41 -68 134 -83l105 -15c125 -21 191 -59 191 -137c0 -95 -101 -160 -238 -160z" />
    <glyph glyph-name="Scedilla" unicode="&#x15e;" horiz-adv-x="699" 
d="M381 -25h-5l-3 -24c57 -2 97 -30 97 -80c0 -48 -39 -79 -91 -79c-40 0 -80 24 -95 57l28 19c10 -24 37 -42 66 -42c33 0 57 15 57 44c0 31 -27 48 -65 48h-35l7 58c-168 13 -292 106 -322 240l54 20c22 -124 146 -207 308 -207c145 0 238 63 238 154
c0 71 -57 113 -187 138l-161 31c-139 26 -203 79 -203 170c0 125 106 206 264 206c141 0 254 -73 289 -182l-51 -24c-29 91 -122 152 -237 152c-124 0 -206 -59 -206 -146c0 -64 48 -100 158 -121l160 -30c159 -29 232 -89 233 -188c0 -128 -118 -214 -298 -214z" />
    <glyph glyph-name="scedilla" unicode="&#x15f;" horiz-adv-x="570" 
d="M548 140c0 -95 -100 -160 -237 -160l-3 -29c57 -2 97 -30 97 -80c0 -48 -39 -79 -91 -79c-40 0 -80 24 -95 57l28 19c10 -24 37 -42 66 -42c33 0 57 15 57 44c0 31 -27 48 -65 48h-35l8 63c-133 10 -236 80 -255 178l50 18c16 -85 112 -146 236 -146
c104 0 185 44 185 104c-1 48 -49 75 -150 91l-104 15c-116 19 -177 56 -177 131c1 89 88 151 208 151c110 0 204 -56 232 -134l-48 -22c-22 62 -96 106 -183 106c-89 0 -154 -43 -154 -98c-1 -45 41 -68 134 -83l105 -15c125 -21 191 -59 191 -137z" />
    <glyph glyph-name="Scaron" unicode="&#x160;" horiz-adv-x="699" 
d="M308 790l-161 103l20 28l166 -107l168 107l19 -28l-161 -103h-51zM381 -25c-187 0 -329 97 -361 241l54 20c22 -124 146 -207 308 -207c145 0 238 63 238 154c0 71 -57 113 -187 138l-161 31c-139 26 -203 79 -203 170c0 125 106 206 264 206c141 0 254 -73 289 -182
l-51 -24c-29 91 -122 152 -237 152c-124 0 -206 -59 -206 -146c0 -64 48 -100 158 -121l160 -30c159 -29 232 -89 233 -188c0 -128 -118 -214 -298 -214z" />
    <glyph glyph-name="scaron" unicode="&#x161;" horiz-adv-x="570" 
d="M248 606l-193 123l19 28l200 -127l200 127l19 -28l-194 -123h-51zM310 -20c-148 0 -267 73 -287 179l50 18c16 -85 112 -146 236 -146c104 0 185 44 185 104c-1 48 -49 75 -150 91l-104 15c-116 19 -177 56 -177 131c1 89 88 151 208 151c110 0 204 -56 232 -134l-48 -22
c-22 62 -96 106 -183 106c-89 0 -154 -43 -154 -98c-1 -45 41 -68 134 -83l105 -15c125 -21 191 -59 191 -137c0 -95 -101 -160 -238 -160z" />
    <glyph glyph-name="uni0218" unicode="&#x218;" horiz-adv-x="699" 
d="M381 -25c-187 0 -329 97 -361 241l54 20c22 -124 146 -207 308 -207c145 0 238 63 238 154c0 71 -57 113 -187 138l-161 31c-139 26 -203 79 -203 170c0 125 106 206 264 206c141 0 254 -73 289 -182l-51 -24c-29 91 -122 152 -237 152c-124 0 -206 -59 -206 -146
c0 -64 48 -100 158 -121l160 -30c159 -29 232 -89 233 -188c0 -128 -118 -214 -298 -214zM310 -240l6 29c40 -8 65 12 60 53c-26 -8 -53 12 -53 39c0 20 16 36 38 36c29 0 49 -28 49 -74c0 -66 -41 -95 -100 -83z" />
    <glyph glyph-name="uni0219" unicode="&#x219;" horiz-adv-x="570" 
d="M310 -20c-148 0 -267 73 -287 179l50 18c16 -85 112 -146 236 -146c104 0 185 44 185 104c-1 48 -49 75 -150 91l-104 15c-116 19 -177 56 -177 131c1 89 88 151 208 151c110 0 204 -56 232 -134l-48 -22c-22 62 -96 106 -183 106c-89 0 -154 -43 -154 -98
c-1 -45 41 -68 134 -83l105 -15c125 -21 191 -59 191 -137c0 -95 -101 -160 -238 -160zM245 -240l6 29c40 -8 65 12 60 53c-26 -8 -53 12 -53 39c0 20 16 36 38 36c29 0 49 -28 49 -74c0 -66 -41 -95 -100 -83z" />
    <glyph glyph-name="Scircumflex" unicode="&#x15c;" horiz-adv-x="699" 
d="M167 783l-20 28l161 103h51l161 -103l-19 -28l-168 107zM381 -25c-187 0 -329 97 -361 241l54 20c22 -124 146 -207 308 -207c145 0 238 63 238 154c0 71 -57 113 -187 138l-161 31c-139 26 -203 79 -203 170c0 125 106 206 264 206c141 0 254 -73 289 -182l-51 -24
c-29 91 -122 152 -237 152c-124 0 -206 -59 -206 -146c0 -64 48 -100 158 -121l160 -30c159 -29 232 -89 233 -188c0 -128 -118 -214 -298 -214z" />
    <glyph glyph-name="scircumflex" unicode="&#x15d;" horiz-adv-x="570" 
d="M75 593l-19 28l193 123h51l194 -123l-19 -28l-200 127zM310 -20c-148 0 -267 73 -287 179l50 18c16 -85 112 -146 236 -146c104 0 185 44 185 104c-1 48 -49 75 -150 91l-104 15c-116 19 -177 56 -177 131c1 89 88 151 208 151c110 0 204 -56 232 -134l-48 -22
c-22 62 -96 106 -183 106c-89 0 -154 -43 -154 -98c-1 -45 41 -68 134 -83l105 -15c125 -21 191 -59 191 -137c0 -95 -101 -160 -238 -160z" />
    <glyph glyph-name="Tcaron" unicode="&#x164;" horiz-adv-x="659" 
d="M305 790l-161 103l20 28l166 -107l168 107l19 -28l-161 -103h-51zM300 0v649h-292v54h643v-54h-292v-649h-59z" />
    <glyph glyph-name="tcaron" unicode="&#x165;" horiz-adv-x="523" 
d="M293 580l6 28c40 -8 65 13 60 54c-26 -8 -53 11 -53 38c0 21 16 37 38 37c29 0 49 -28 49 -74c0 -67 -41 -96 -100 -83zM318 -20c-106 0 -170 63 -169 169v306h-149v48h148v156l56 14v-170h279v-48h-279v-303c-1 -76 43 -122 116 -122c63 0 120 42 135 105l47 -21
c-21 -80 -98 -134 -184 -134z" />
    <glyph glyph-name="uni021A" unicode="&#x21a;" horiz-adv-x="659" 
d="M300 0v649h-292v54h643v-54h-292v-649h-59zM278 -240l6 29c40 -8 65 12 60 53c-26 -8 -53 12 -53 39c0 20 16 36 38 36c29 0 49 -28 49 -74c0 -66 -41 -95 -100 -83z" />
    <glyph glyph-name="uni021B" unicode="&#x21b;" horiz-adv-x="523" 
d="M318 -20c-106 0 -170 63 -169 169v306h-149v48h148v156l56 14v-170h279v-48h-279v-303c-1 -76 43 -122 116 -122c63 0 120 42 135 105l47 -21c-21 -80 -98 -134 -184 -134zM261 -240l6 29c40 -8 65 12 60 53c-26 -8 -53 12 -53 39c0 20 16 36 38 36c29 0 49 -28 49 -74
c0 -66 -41 -95 -100 -83z" />
    <glyph glyph-name="uni0162" unicode="&#x162;" horiz-adv-x="659" 
d="M359 0h-12l-6 -49c57 -2 97 -30 97 -80c0 -48 -39 -79 -91 -79c-40 0 -80 24 -95 57l28 19c10 -24 37 -42 66 -42c33 0 57 15 57 44c0 31 -27 48 -65 48h-35l10 82h-13v649h-292v54h643v-54h-292v-649z" />
    <glyph glyph-name="uni0163" unicode="&#x163;" horiz-adv-x="523" 
d="M502 114c-20 -77 -92 -130 -175 -134l-3 -29c57 -2 97 -30 97 -80c0 -48 -39 -79 -91 -79c-40 0 -80 24 -95 57l28 19c10 -24 37 -42 66 -42c33 0 57 15 57 44c0 31 -27 48 -65 48h-35l8 63c-92 9 -146 70 -145 168v306h-149v48h148v156l56 14v-170h279v-48h-279v-303
c-1 -76 43 -122 116 -122c63 0 120 42 135 105z" />
    <glyph glyph-name="Ugrave" unicode="&#xd9;" horiz-adv-x="743" 
d="M375 777l-136 119l23 25l135 -119zM372 -25c-201 0 -327 114 -327 305v423h59v-424c0 -156 102 -250 268 -250c165 0 267 92 267 251v423h59v-423c0 -191 -126 -305 -326 -305z" />
    <glyph glyph-name="ugrave" unicode="&#xf9;" 
d="M312 596l-161 139l23 25l160 -139zM276 -20c-148 0 -236 83 -236 221v302h55v-298c0 -108 72 -174 191 -174c151 0 244 88 244 227v245h55v-503h-51l-4 116h-1c-40 -85 -132 -136 -253 -136z" />
    <glyph glyph-name="ugrave.alt1" horiz-adv-x="625" 
d="M313 596l-161 139l23 25l160 -139zM311 -20c-171 0 -271 90 -271 244v279h55v-279c0 -122 80 -193 218 -193s217 71 217 193v279h55v-279c0 -154 -101 -244 -274 -244z" />
    <glyph glyph-name="Uacute" unicode="&#xda;" horiz-adv-x="743" 
d="M373 777l-22 25l135 119l23 -25zM372 -25c-201 0 -327 114 -327 305v423h59v-424c0 -156 102 -250 268 -250c165 0 267 92 267 251v423h59v-423c0 -191 -126 -305 -326 -305z" />
    <glyph glyph-name="uacute" unicode="&#xfa;" 
d="M317 596l-23 25l160 139l23 -25zM276 -20c-148 0 -236 83 -236 221v302h55v-298c0 -108 72 -174 191 -174c151 0 244 88 244 227v245h55v-503h-51l-4 116h-1c-40 -85 -132 -136 -253 -136z" />
    <glyph glyph-name="uacute.alt1" horiz-adv-x="625" 
d="M319 596l-23 25l160 139l23 -25zM311 -20c-171 0 -271 90 -271 244v279h55v-279c0 -122 80 -193 218 -193s217 71 217 193v279h55v-279c0 -154 -101 -244 -274 -244z" />
    <glyph glyph-name="Ucircumflex" unicode="&#xdb;" horiz-adv-x="743" 
d="M205 783l-20 28l161 103h51l161 -103l-19 -28l-168 107zM372 -25c-201 0 -327 114 -327 305v423h59v-424c0 -156 102 -250 268 -250c165 0 267 92 267 251v423h59v-423c0 -191 -126 -305 -326 -305z" />
    <glyph glyph-name="ucircumflex" unicode="&#xfb;" 
d="M114 593l-19 28l193 123h51l194 -123l-19 -28l-200 127zM276 -20c-148 0 -236 83 -236 221v302h55v-298c0 -108 72 -174 191 -174c151 0 244 88 244 227v245h55v-503h-51l-4 116h-1c-40 -85 -132 -136 -253 -136z" />
    <glyph glyph-name="ucircumflex.alt1" horiz-adv-x="625" 
d="M116 593l-19 28l193 123h51l194 -123l-19 -28l-200 127zM311 -20c-171 0 -271 90 -271 244v279h55v-279c0 -122 80 -193 218 -193s217 71 217 193v279h55v-279c0 -154 -101 -244 -274 -244z" />
    <glyph glyph-name="Utilde" unicode="&#x168;" horiz-adv-x="743" 
d="M468 780c-49 0 -79 31 -106 60c-25 26 -49 50 -85 50c-48 0 -79 -43 -79 -100h-33c0 77 47 133 114 133c50 0 79 -31 107 -60c24 -26 47 -50 83 -50c49 0 82 43 82 101h33c0 -78 -49 -134 -116 -134zM372 -25c-201 0 -327 114 -327 305v423h59v-424
c0 -156 102 -250 268 -250c165 0 267 92 267 251v423h59v-423c0 -191 -126 -305 -326 -305z" />
    <glyph glyph-name="utilde" unicode="&#x169;" 
d="M408 590c-48 0 -77 29 -104 57c-25 27 -49 53 -87 53c-48 0 -79 -43 -79 -100h-33c0 77 47 133 114 133c50 0 79 -32 107 -61c24 -25 47 -49 83 -49c49 0 82 43 82 101h33c0 -78 -49 -134 -116 -134zM276 -20c-148 0 -236 83 -236 221v302h55v-298
c0 -108 72 -174 191 -174c151 0 244 88 244 227v245h55v-503h-51l-4 116h-1c-40 -85 -132 -136 -253 -136z" />
    <glyph glyph-name="utilde.alt1" horiz-adv-x="625" 
d="M409 590c-48 0 -77 29 -104 57c-25 27 -49 53 -87 53c-48 0 -79 -43 -79 -100h-33c0 77 47 133 114 133c50 0 79 -32 107 -61c24 -25 47 -49 83 -49c49 0 82 43 82 101h33c0 -78 -49 -134 -116 -134zM311 -20c-171 0 -271 90 -271 244v279h55v-279
c0 -122 80 -193 218 -193s217 71 217 193v279h55v-279c0 -154 -101 -244 -274 -244z" />
    <glyph glyph-name="Umacron" unicode="&#x16a;" horiz-adv-x="743" 
d="M182 794v35h378v-35h-378zM372 -25c-201 0 -327 114 -327 305v423h59v-424c0 -156 102 -250 268 -250c165 0 267 92 267 251v423h59v-423c0 -191 -126 -305 -326 -305z" />
    <glyph glyph-name="umacron" unicode="&#x16b;" 
d="M124 594v35h378v-35h-378zM276 -20c-148 0 -236 83 -236 221v302h55v-298c0 -108 72 -174 191 -174c151 0 244 88 244 227v245h55v-503h-51l-4 116h-1c-40 -85 -132 -136 -253 -136z" />
    <glyph glyph-name="umacron.alt1" horiz-adv-x="625" 
d="M126 594v35h378v-35h-378zM311 -20c-171 0 -271 90 -271 244v279h55v-279c0 -122 80 -193 218 -193s217 71 217 193v279h55v-279c0 -154 -101 -244 -274 -244z" />
    <glyph glyph-name="Ubreve" unicode="&#x16c;" horiz-adv-x="743" 
d="M371 790c-98 0 -169 48 -170 124h35c0 -56 57 -90 134 -90c79 0 136 34 136 90h34c0 -75 -71 -124 -169 -124zM372 -25c-201 0 -327 114 -327 305v423h59v-424c0 -156 102 -250 268 -250c165 0 267 92 267 251v423h59v-423c0 -191 -126 -305 -326 -305z" />
    <glyph glyph-name="ubreve" unicode="&#x16d;" 
d="M312 596c-117 0 -201 62 -202 148h35c0 -66 70 -114 166 -114c98 0 169 48 168 114h34c1 -86 -84 -148 -201 -148zM276 -20c-148 0 -236 83 -236 221v302h55v-298c0 -108 72 -174 191 -174c151 0 244 88 244 227v245h55v-503h-51l-4 116h-1c-40 -85 -132 -136 -253 -136z
" />
    <glyph glyph-name="ubreve.alt1" horiz-adv-x="625" 
d="M314 596c-117 0 -201 62 -202 148h35c0 -66 70 -114 166 -114c98 0 169 48 168 114h34c1 -86 -84 -148 -201 -148zM311 -20c-171 0 -271 90 -271 244v279h55v-279c0 -122 80 -193 218 -193s217 71 217 193v279h55v-279c0 -154 -101 -244 -274 -244z" />
    <glyph glyph-name="Uring" unicode="&#x16e;" horiz-adv-x="743" 
d="M371 786c-52 0 -89 37 -89 89c-1 52 37 89 89 89s89 -37 89 -89s-37 -89 -89 -89zM370 818c33 0 56 24 56 57s-23 57 -56 57c-32 0 -56 -24 -56 -57s24 -57 56 -57zM372 -25c-201 0 -327 114 -327 305v423h59v-424c0 -156 102 -250 268 -250c165 0 267 92 267 251v423h59
v-423c0 -191 -126 -305 -326 -305z" />
    <glyph glyph-name="uring" unicode="&#x16f;" 
d="M313 596c-52 0 -89 37 -89 89c-1 52 37 89 89 89s89 -37 89 -89s-37 -89 -89 -89zM312 628c33 0 56 24 56 57s-23 57 -56 57c-32 0 -56 -24 -56 -57s24 -57 56 -57zM276 -20c-148 0 -236 83 -236 221v302h55v-298c0 -108 72 -174 191 -174c151 0 244 88 244 227v245h55
v-503h-51l-4 116h-1c-40 -85 -132 -136 -253 -136z" />
    <glyph glyph-name="uring.alt1" horiz-adv-x="625" 
d="M315 596c-52 0 -89 37 -89 89c-1 52 37 89 89 89s89 -37 89 -89s-37 -89 -89 -89zM314 628c33 0 56 24 56 57s-23 57 -56 57c-32 0 -56 -24 -56 -57s24 -57 56 -57zM311 -20c-171 0 -271 90 -271 244v279h55v-279c0 -122 80 -193 218 -193s217 71 217 193v279h55v-279
c0 -154 -101 -244 -274 -244z" />
    <glyph glyph-name="Uhungarumlaut" unicode="&#x170;" horiz-adv-x="743" 
d="M272 763l-22 25l135 119l23 -25zM467 763l-23 25l136 119l23 -25zM372 -25c-201 0 -327 114 -327 305v423h59v-424c0 -156 102 -250 268 -250c165 0 267 92 267 251v423h59v-423c0 -191 -126 -305 -326 -305z" />
    <glyph glyph-name="uhungarumlaut" unicode="&#x171;" 
d="M215 596l-23 25l160 139l23 -25zM410 596l-22 25l160 139l23 -25zM276 -20c-148 0 -236 83 -236 221v302h55v-298c0 -108 72 -174 191 -174c151 0 244 88 244 227v245h55v-503h-51l-4 116h-1c-40 -85 -132 -136 -253 -136z" />
    <glyph glyph-name="uhungarumlaut.alt1" horiz-adv-x="625" 
d="M217 596l-23 25l160 139l23 -25zM412 596l-22 25l160 139l23 -25zM311 -20c-171 0 -271 90 -271 244v279h55v-279c0 -122 80 -193 218 -193s217 71 217 193v279h55v-279c0 -154 -101 -244 -274 -244z" />
    <glyph glyph-name="Udieresis" unicode="&#xdc;" horiz-adv-x="743" 
d="M240 809c-25 0 -44 18 -44 43s19 43 44 43c26 0 45 -18 45 -43s-19 -43 -45 -43zM503 809c-25 0 -44 18 -44 43s19 43 44 43c26 0 44 -18 44 -43s-18 -43 -44 -43zM372 -25c-201 0 -327 114 -327 305v423h59v-424c0 -156 102 -250 268 -250c165 0 267 92 267 251v423h59
v-423c0 -191 -126 -305 -326 -305z" />
    <glyph glyph-name="udieresis" unicode="&#xfc;" 
d="M180 607c-26 0 -44 18 -44 44c0 25 18 43 44 43c27 0 45 -18 45 -43c0 -26 -18 -44 -45 -44zM445 607c-26 0 -44 18 -44 44c0 25 18 43 44 43s44 -18 44 -43c0 -26 -18 -44 -44 -44zM276 -20c-148 0 -236 83 -236 221v302h55v-298c0 -108 72 -174 191 -174
c151 0 244 88 244 227v245h55v-503h-51l-4 116h-1c-40 -85 -132 -136 -253 -136z" />
    <glyph glyph-name="udieresis.alt1" horiz-adv-x="625" 
d="M181 607c-26 0 -44 18 -44 44c0 25 18 43 44 43c27 0 45 -18 45 -43c0 -26 -18 -44 -45 -44zM446 607c-26 0 -44 18 -44 44c0 25 18 43 44 43s44 -18 44 -43c0 -26 -18 -44 -44 -44zM311 -20c-171 0 -271 90 -271 244v279h55v-279c0 -122 80 -193 218 -193
s217 71 217 193v279h55v-279c0 -154 -101 -244 -274 -244z" />
    <glyph glyph-name="Uogonek" unicode="&#x172;" horiz-adv-x="743" 
d="M639 703h59v-423c0 -145 -73 -246 -196 -286c-104 -45 -170 -76 -169 -126c0 -25 21 -42 54 -42c29 0 63 18 83 47l22 -27c-25 -33 -68 -54 -106 -54c-53 0 -88 29 -89 74c-1 43 34 77 93 109h-18c-201 0 -327 114 -327 305v423h59v-424c0 -156 102 -250 268 -250
c165 0 267 92 267 251v423z" />
    <glyph glyph-name="uogonek" unicode="&#x173;" 
d="M585 0c-112 -48 -184 -80 -183 -132c0 -25 21 -42 54 -42c29 0 63 18 83 47l22 -27c-25 -33 -68 -54 -106 -54c-53 0 -88 29 -89 74c-1 59 64 100 168 145l-4 105h-1c-40 -85 -132 -136 -253 -136c-148 0 -236 83 -236 221v302h55v-298c0 -108 72 -174 191 -174
c151 0 244 88 244 227v245h55v-503z" />
    <glyph glyph-name="uogonek.alt1" horiz-adv-x="625" 
d="M530 503h55v-279c0 -117 -58 -197 -162 -229c-106 -45 -173 -77 -172 -127c0 -25 21 -42 54 -42c29 0 63 18 83 47l22 -27c-25 -33 -68 -54 -106 -54c-53 0 -88 29 -89 74s37 80 102 114h-6c-171 0 -271 90 -271 244v279h55v-279c0 -122 80 -193 218 -193s217 71 217 193
v279z" />
    <glyph glyph-name="Wgrave" unicode="&#x1e80;" horiz-adv-x="1161" 
d="M583 777l-136 119l23 25l135 -119zM264 0l-259 703h62l238 -645h2l229 645h89l230 -645h1l237 645h63l-259 -703h-83l-233 647h-1l-233 -647h-83z" />
    <glyph glyph-name="wgrave" unicode="&#x1e81;" horiz-adv-x="991" 
d="M496 596l-161 139l23 25l160 -139zM230 0l-224 503h60l200 -450h1l193 450h73l196 -451h1l197 451h59l-220 -503h-73l-196 450h-1l-193 -450h-73z" />
    <glyph glyph-name="Wacute" unicode="&#x1e82;" horiz-adv-x="1161" 
d="M582 777l-22 25l135 119l23 -25zM264 0l-259 703h62l238 -645h2l229 645h89l230 -645h1l237 645h63l-259 -703h-83l-233 647h-1l-233 -647h-83z" />
    <glyph glyph-name="wacute" unicode="&#x1e83;" horiz-adv-x="991" 
d="M501 596l-23 25l160 139l23 -25zM230 0l-224 503h60l200 -450h1l193 450h73l196 -451h1l197 451h59l-220 -503h-73l-196 450h-1l-193 -450h-73z" />
    <glyph glyph-name="Wcircumflex" unicode="&#x174;" horiz-adv-x="1161" 
d="M413 783l-20 28l161 103h51l161 -103l-19 -28l-168 107zM264 0l-259 703h62l238 -645h2l229 645h89l230 -645h1l237 645h63l-259 -703h-83l-233 647h-1l-233 -647h-83z" />
    <glyph glyph-name="wcircumflex" unicode="&#x175;" horiz-adv-x="991" 
d="M298 593l-19 28l193 123h51l194 -123l-19 -28l-200 127zM230 0l-224 503h60l200 -450h1l193 450h73l196 -451h1l197 451h59l-220 -503h-73l-196 450h-1l-193 -450h-73z" />
    <glyph glyph-name="Wdieresis" unicode="&#x1e84;" horiz-adv-x="1161" 
d="M449 809c-25 0 -44 18 -44 43s19 43 44 43c26 0 45 -18 45 -43s-19 -43 -45 -43zM712 809c-25 0 -44 18 -44 43s19 43 44 43c26 0 44 -18 44 -43s-18 -43 -44 -43zM264 0l-259 703h62l238 -645h2l229 645h89l230 -645h1l237 645h63l-259 -703h-83l-233 647h-1l-233 -647
h-83z" />
    <glyph glyph-name="wdieresis" unicode="&#x1e85;" horiz-adv-x="991" 
d="M364 607c-26 0 -44 18 -44 44c0 25 18 43 44 43c27 0 45 -18 45 -43c0 -26 -18 -44 -45 -44zM629 607c-26 0 -44 18 -44 44c0 25 18 43 44 43s44 -18 44 -43c0 -26 -18 -44 -44 -44zM230 0l-224 503h60l200 -450h1l193 450h73l196 -451h1l197 451h59l-220 -503h-73
l-196 450h-1l-193 -450h-73z" />
    <glyph glyph-name="Ygrave" unicode="&#x1ef2;" horiz-adv-x="665" 
d="M333 777l-136 119l23 25l135 -119zM303 0v275l-299 428h72l257 -372h1l254 372h72l-298 -428v-275h-59z" />
    <glyph glyph-name="ygrave" unicode="&#x1ef3;" horiz-adv-x="631" 
d="M314 596l-161 139l23 25l160 -139zM283 -230c-140 0 -261 58 -310 131l40 38c46 -66 149 -118 270 -118c150 0 248 79 248 209v69h-1c-39 -85 -128 -139 -232 -139c-153 0 -257 105 -257 260v283h55v-281c0 -126 83 -211 206 -211c129 0 229 93 229 232v260h55v-473
c0 -162 -119 -260 -303 -260z" />
    <glyph glyph-name="ygrave.alt1" horiz-adv-x="602" 
d="M308 596l-161 139l23 25l160 -139zM154 -210l143 258l-292 455h62l257 -395h1l212 395h60l-383 -713h-60z" />
    <glyph glyph-name="Yacute" unicode="&#xdd;" horiz-adv-x="665" 
d="M332 777l-22 25l135 119l23 -25zM303 0v275l-299 428h72l257 -372h1l254 372h72l-298 -428v-275h-59z" />
    <glyph glyph-name="yacute" unicode="&#xfd;" horiz-adv-x="631" 
d="M319 596l-23 25l160 139l23 -25zM283 -230c-140 0 -261 58 -310 131l40 38c46 -66 149 -118 270 -118c150 0 248 79 248 209v69h-1c-39 -85 -128 -139 -232 -139c-153 0 -257 105 -257 260v283h55v-281c0 -126 83 -211 206 -211c129 0 229 93 229 232v260h55v-473
c0 -162 -119 -260 -303 -260z" />
    <glyph glyph-name="yacute.alt1" horiz-adv-x="602" 
d="M314 596l-23 25l160 139l23 -25zM154 -210l143 258l-292 455h62l257 -395h1l212 395h60l-383 -713h-60z" />
    <glyph glyph-name="Ydieresis" unicode="&#x178;" horiz-adv-x="665" 
d="M199 809c-25 0 -44 18 -44 43s19 43 44 43c26 0 45 -18 45 -43s-19 -43 -45 -43zM462 809c-25 0 -44 18 -44 43s19 43 44 43c26 0 44 -18 44 -43s-18 -43 -44 -43zM303 0v275l-299 428h72l257 -372h1l254 372h72l-298 -428v-275h-59z" />
    <glyph glyph-name="ydieresis" unicode="&#xff;" horiz-adv-x="631" 
d="M182 607c-26 0 -44 18 -44 44c0 25 18 43 44 43c27 0 45 -18 45 -43c0 -26 -18 -44 -45 -44zM447 607c-26 0 -44 18 -44 44c0 25 18 43 44 43s44 -18 44 -43c0 -26 -18 -44 -44 -44zM283 -230c-140 0 -261 58 -310 131l40 38c46 -66 149 -118 270 -118
c150 0 248 79 248 209v69h-1c-39 -85 -128 -139 -232 -139c-153 0 -257 105 -257 260v283h55v-281c0 -126 83 -211 206 -211c129 0 229 93 229 232v260h55v-473c0 -162 -119 -260 -303 -260z" />
    <glyph glyph-name="ydieresis.alt1" horiz-adv-x="602" 
d="M176 607c-26 0 -44 18 -44 44c0 25 18 43 44 43c27 0 45 -18 45 -43c0 -26 -18 -44 -45 -44zM441 607c-26 0 -44 18 -44 44c0 25 18 43 44 43s44 -18 44 -43c0 -26 -18 -44 -44 -44zM154 -210l143 258l-292 455h62l257 -395h1l212 395h60l-383 -713h-60z" />
    <glyph glyph-name="Ycircumflex" unicode="&#x176;" horiz-adv-x="665" 
d="M163 783l-20 28l161 103h51l161 -103l-19 -28l-168 107zM303 0v275l-299 428h72l257 -372h1l254 372h72l-298 -428v-275h-59z" />
    <glyph glyph-name="ycircumflex" unicode="&#x177;" horiz-adv-x="631" 
d="M116 593l-19 28l193 123h51l194 -123l-19 -28l-200 127zM283 -230c-140 0 -261 58 -310 131l40 38c46 -66 149 -118 270 -118c150 0 248 79 248 209v69h-1c-39 -85 -128 -139 -232 -139c-153 0 -257 105 -257 260v283h55v-281c0 -126 83 -211 206 -211
c129 0 229 93 229 232v260h55v-473c0 -162 -119 -260 -303 -260z" />
    <glyph glyph-name="ycircumflex.alt1" horiz-adv-x="602" 
d="M110 593l-19 28l193 123h51l194 -123l-19 -28l-200 127zM154 -210l143 258l-292 455h62l257 -395h1l212 395h60l-383 -713h-60z" />
    <glyph glyph-name="Zacute" unicode="&#x179;" horiz-adv-x="676" 
d="M349 777l-22 25l135 119l23 -25zM13 0v65l574 585h-564v53h631v-65l-575 -586h585v-52h-651z" />
    <glyph glyph-name="zacute" unicode="&#x17a;" horiz-adv-x="588" 
d="M306 596l-23 25l160 139l23 -25zM20 0v65l473 386h-463v52h528v-66l-473 -386h483v-51h-548z" />
    <glyph glyph-name="Zdotaccent" unicode="&#x17b;" horiz-adv-x="676" 
d="M347 809c-25 0 -44 18 -44 44c0 25 19 43 44 43c26 0 45 -18 45 -43c0 -26 -19 -44 -45 -44zM13 0v65l574 585h-564v53h631v-65l-575 -586h585v-52h-651z" />
    <glyph glyph-name="zdotaccent" unicode="&#x17c;" horiz-adv-x="588" 
d="M301 606c-26 0 -44 19 -44 44c0 26 18 44 44 44s45 -18 45 -44c0 -25 -19 -44 -45 -44zM20 0v65l473 386h-463v52h528v-66l-473 -386h483v-51h-548z" />
    <glyph glyph-name="Zcaron" unicode="&#x17d;" horiz-adv-x="676" 
d="M322 790l-161 103l20 28l166 -107l168 107l19 -28l-161 -103h-51zM13 0v65l574 585h-564v53h631v-65l-575 -586h585v-52h-651z" />
    <glyph glyph-name="zcaron" unicode="&#x17e;" horiz-adv-x="588" 
d="M275 606l-193 123l19 28l200 -127l200 127l19 -28l-194 -123h-51zM20 0v65l473 386h-463v52h528v-66l-473 -386h483v-51h-548z" />
    <glyph glyph-name="uni1E9E" unicode="&#x1e9e;" horiz-adv-x="657" 
d="M477 274c107 -32 155 -73 155 -144c0 -89 -87 -143 -208 -143c-140 0 -237 71 -247 177l53 19c7 -89 83 -147 196 -147c86 0 152 34 152 91c0 47 -37 74 -119 99l-110 29c-89 27 -129 62 -129 116c0 78 97 129 291 139c6 16 10 33 10 51c0 69 -75 113 -184 113
c-142 0 -233 -67 -233 -180v-494h-59v498c0 143 115 229 293 229c143 0 240 -63 240 -168c0 -33 -8 -67 -21 -92c-195 -5 -281 -44 -281 -93c0 -29 28 -50 92 -70z" />
    <glyph glyph-name="germandbls" unicode="&#xdf;" horiz-adv-x="628" 
d="M453 275c105 -33 150 -76 150 -144c0 -90 -78 -144 -194 -144c-135 0 -228 71 -238 178l54 18c6 -89 78 -146 184 -146c83 0 140 34 140 90c0 44 -33 73 -110 97l-97 31c-89 29 -128 63 -128 115c0 81 89 127 266 139c6 17 10 35 10 53c0 81 -68 132 -171 132
c-131 0 -215 -76 -215 -189v-505h-59v509c0 144 108 238 276 238c135 0 227 -70 227 -187c0 -33 -8 -68 -22 -95c-182 -6 -256 -42 -256 -91c0 -30 27 -50 90 -70z" />
    <glyph glyph-name="ampersand" unicode="&#x26;" horiz-adv-x="779" 
d="M615 123l164 -124h-88l-114 86c-73 -68 -165 -111 -276 -110c-157 0 -271 83 -271 205c0 92 55 150 160 194c-48 42 -87 94 -86 161c0 108 91 183 226 183c119 0 215 -62 215 -168c0 -90 -72 -149 -241 -196l269 -199c46 51 80 116 104 184l46 -32
c-26 -67 -61 -132 -108 -184zM161 532c0 -52 34 -96 95 -143c165 41 234 89 234 157c0 73 -72 118 -158 118c-104 0 -171 -52 -171 -132zM304 29c95 0 170 34 229 89l-298 221c-96 -34 -147 -80 -147 -157c0 -92 92 -153 216 -153z" />
    <glyph glyph-name="zero" unicode="0" horiz-adv-x="787" 
d="M394 -25c-201 0 -341 158 -341 376c0 219 140 377 341 377c200 0 340 -158 340 -377c0 -218 -140 -376 -340 -376zM394 27c166 0 281 136 281 324s-115 325 -281 325c-167 0 -282 -137 -282 -325s115 -324 282 -324z" />
    <glyph glyph-name="one" unicode="1" horiz-adv-x="553" 
d="M26 0v54h254v571h-1c-42 -57 -114 -89 -210 -112l-13 55c105 22 181 65 228 135h55v-649h201v-54h-514z" />
    <glyph glyph-name="two" unicode="2" horiz-adv-x="641" 
d="M43 0v47c1 146 58 219 221 280l108 40c109 42 149 84 149 155c0 87 -75 152 -184 152c-108 0 -196 -64 -227 -170l-50 25c36 120 144 199 278 199c144 0 242 -87 242 -209c0 -94 -50 -149 -185 -201l-111 -41c-134 -50 -181 -109 -181 -223h501v-54h-561z" />
    <glyph glyph-name="three" unicode="3" horiz-adv-x="674" 
d="M349 -25c-168 0 -295 100 -311 239l54 17c10 -118 113 -202 256 -202c130 0 225 65 225 160c-1 90 -85 149 -190 151l-103 2v47l90 1c96 2 156 56 156 131c0 82 -75 144 -179 144c-115 0 -200 -75 -208 -181l-58 11c12 131 120 224 267 224c137 0 237 -83 238 -194
c0 -69 -43 -132 -120 -155v-2c107 -25 165 -96 165 -181c0 -124 -119 -212 -282 -212z" />
    <glyph glyph-name="three.alt1" horiz-adv-x="674" 
d="M341 -25c-164 0 -287 99 -303 246l54 16c10 -125 109 -208 248 -208c135 0 233 73 233 175c-1 102 -92 171 -212 171c-32 0 -64 -7 -79 -16l-28 43l251 247h-408v54h468v-65l-218 -216c12 1 23 2 33 2c145 -1 251 -95 251 -221c0 -133 -122 -228 -290 -228z" />
    <glyph glyph-name="four" unicode="4" horiz-adv-x="642" 
d="M452 0v174h-429v38l415 491h73v-475h98v-54h-98v-174h-59zM105 228h347v410h-1z" />
    <glyph glyph-name="five" unicode="5" horiz-adv-x="658" 
d="M333 -25c-172 0 -291 96 -302 244l55 12c7 -123 104 -202 247 -202c141 0 231 72 231 183c0 115 -88 189 -225 189c-78 0 -153 -27 -189 -68l-43 13l27 357h416v-54h-366l-20 -252c39 34 110 56 182 56c168 0 276 -93 276 -239c0 -145 -112 -239 -289 -239z" />
    <glyph glyph-name="six" unicode="6" horiz-adv-x="688" 
d="M349 728c148 0 237 -89 273 -237l-53 -21c-27 129 -98 204 -220 204c-143 0 -238 -114 -243 -347c47 76 126 117 256 117c168 0 286 -93 286 -230c0 -141 -124 -238 -295 -238c-179 0 -302 92 -302 277c-4 315 95 475 298 475zM354 392c-141 0 -244 -74 -244 -180
c0 -108 102 -182 245 -182c136 0 234 75 234 183c0 106 -98 179 -235 179z" />
    <glyph glyph-name="seven" unicode="7" horiz-adv-x="609" 
d="M193 0c43 261 154 477 331 649h-506v54h573v-51c-178 -173 -288 -391 -331 -652h-67z" />
    <glyph glyph-name="eight" unicode="8" horiz-adv-x="689" 
d="M344 -25c-180 0 -308 85 -308 211c0 98 78 171 192 191c-91 21 -154 85 -154 166c0 110 113 185 270 185s270 -74 270 -185c0 -81 -62 -145 -150 -166c112 -20 189 -93 189 -191c0 -127 -128 -211 -309 -211zM345 399c122 0 210 58 210 140c0 81 -89 138 -211 138
s-211 -57 -211 -138c0 -82 89 -140 212 -140zM344 27c144 0 248 65 248 160s-105 162 -248 162c-144 0 -247 -67 -247 -162s103 -160 247 -160z" />
    <glyph glyph-name="nine" unicode="9" horiz-adv-x="722" 
d="M350 -24c-165 0 -279 91 -319 237l53 21c32 -127 127 -204 266 -204c157 0 259 117 267 348c-47 -75 -127 -119 -258 -119c-167 0 -286 94 -286 231c1 141 125 238 295 238c180 0 303 -92 303 -280c3 -307 -104 -472 -321 -472zM367 312c142 0 245 73 245 180
c0 108 -102 182 -245 182c-136 0 -234 -75 -234 -184c0 -105 98 -178 234 -178z" />
    <glyph glyph-name="exclam" unicode="!" horiz-adv-x="229" 
d="M94 171l-9 338v194h59v-194l-10 -338h-40zM114 -11c-26 0 -44 18 -44 44c0 25 18 43 44 43s45 -18 45 -43c0 -26 -19 -44 -45 -44z" />
    <glyph glyph-name="exclamdown" unicode="&#xa1;" horiz-adv-x="229" 
d="M115 524c26 0 44 -18 44 -44c0 -25 -18 -44 -44 -44c-27 0 -45 19 -45 44s18 44 45 44zM135 342l9 -338v-194h-59v194l9 338h41z" />
    <glyph glyph-name="question" unicode="?" horiz-adv-x="585" 
d="M240 170c0 104 41 149 123 194l42 23c55 30 97 67 97 129c0 91 -91 158 -209 158c-125 0 -209 -72 -230 -178l-53 22c25 124 133 210 286 210c152 0 265 -90 265 -212c0 -81 -48 -127 -121 -167l-44 -24c-72 -40 -100 -72 -100 -155h-56zM268 -12c-26 0 -44 18 -44 44
c0 25 18 44 44 44s44 -19 44 -44s-18 -44 -44 -44z" />
    <glyph glyph-name="questiondown" unicode="&#xbf;" horiz-adv-x="585" 
d="M303 524c26 0 44 -18 44 -44c0 -25 -18 -44 -44 -44s-44 19 -44 44s18 44 44 44zM331 342c0 -103 -41 -149 -123 -194l-42 -23c-55 -30 -97 -67 -97 -129c0 -91 91 -158 209 -158c125 0 209 72 230 178l53 -22c-25 -124 -134 -209 -286 -209s-265 89 -265 211
c0 81 48 127 121 167l43 24c73 40 101 73 101 155h56z" />
    <glyph glyph-name="period" unicode="." horiz-adv-x="164" 
d="M82 -11c-26 0 -44 18 -44 44c0 25 18 43 44 43s44 -18 44 -43c0 -26 -18 -44 -44 -44z" />
    <glyph glyph-name="comma" unicode="," horiz-adv-x="192" 
d="M38 -115l8 29c45 -12 79 24 74 79c-34 -11 -59 11 -59 40c0 24 18 43 43 43c30 0 50 -27 50 -81c0 -82 -47 -127 -116 -110z" />
    <glyph glyph-name="colon" unicode=":" horiz-adv-x="164" 
d="M82 402c-26 0 -44 18 -44 44c0 25 18 44 44 44s44 -19 44 -44c0 -26 -18 -44 -44 -44zM82 -11c-26 0 -44 18 -44 44c0 25 18 43 44 43s44 -18 44 -43c0 -26 -18 -44 -44 -44z" />
    <glyph glyph-name="semicolon" unicode=";" horiz-adv-x="192" 
d="M105 402c-26 0 -44 18 -44 44c0 25 18 44 44 44s45 -19 45 -44c0 -26 -19 -44 -45 -44zM38 -115l8 29c45 -12 79 24 74 79c-34 -11 -59 11 -59 40c0 24 18 43 43 43c30 0 50 -27 50 -81c0 -82 -47 -127 -116 -110z" />
    <glyph glyph-name="ellipsis" unicode="&#x2026;" horiz-adv-x="497" 
d="M82 -11c-26 0 -44 18 -44 44c0 25 18 43 44 43s44 -18 44 -43c0 -26 -18 -44 -44 -44zM248 -11c-26 0 -44 18 -44 44c0 25 18 43 44 43s45 -18 45 -43c0 -26 -19 -44 -45 -44zM415 -11c-26 0 -44 18 -44 44c0 25 18 43 44 43s45 -18 45 -43c0 -26 -19 -44 -45 -44z" />
    <glyph glyph-name="periodcentered" unicode="&#xb7;" horiz-adv-x="164" 
d="M82 243c-26 0 -44 18 -44 44c0 25 18 43 44 43s44 -18 44 -43c0 -26 -18 -44 -44 -44z" />
    <glyph glyph-name="bullet" unicode="&#x2022;" horiz-adv-x="241" 
d="M121 229c-49 0 -83 34 -83 81s34 81 83 81c47 0 82 -34 82 -81s-35 -81 -82 -81z" />
    <glyph glyph-name="hyphen" unicode="-" horiz-adv-x="544" 
d="M53 238v51h438v-51h-438z" />
    <glyph glyph-name="endash" unicode="&#x2013;" horiz-adv-x="757" 
d="M53 251v34h651v-34h-651z" />
    <glyph glyph-name="emdash" unicode="&#x2014;" horiz-adv-x="1111" 
d="M53 251v34h1005v-34h-1005z" />
    <glyph glyph-name="underscore" unicode="_" horiz-adv-x="600" 
d="M0 -34v34h600v-34h-600z" />
    <glyph glyph-name="quotesingle" unicode="'" horiz-adv-x="120" 
d="M43 427v276h35v-276h-35z" />
    <glyph glyph-name="quotesinglbase" unicode="&#x201a;" horiz-adv-x="192" 
d="M38 -115l8 29c45 -12 79 24 74 79c-34 -11 -59 11 -59 40c0 24 18 43 43 43c30 0 50 -27 50 -81c0 -82 -47 -127 -116 -110z" />
    <glyph glyph-name="quoteleft" unicode="&#x2018;" horiz-adv-x="192" 
d="M154 719l-8 -29c-45 12 -79 -24 -75 -79c35 11 60 -11 60 -40c0 -24 -18 -43 -43 -43c-30 0 -50 27 -50 81c0 82 47 127 116 110z" />
    <glyph glyph-name="quoteright" unicode="&#x2019;" horiz-adv-x="192" 
d="M38 532l8 29c45 -12 79 24 74 79c-34 -11 -59 11 -59 40c0 24 18 43 43 43c30 0 50 -27 50 -81c0 -82 -47 -127 -116 -110z" />
    <glyph glyph-name="quotedbl" unicode="&#x22;" horiz-adv-x="235" 
d="M43 427v276h35v-276h-35zM157 427l1 276h34v-276h-35z" />
    <glyph glyph-name="quotedblleft" unicode="&#x201c;" horiz-adv-x="327" 
d="M154 719l-8 -29c-45 12 -79 -24 -75 -79c35 11 60 -11 60 -40c0 -24 -18 -43 -43 -43c-30 0 -50 27 -50 81c0 82 47 127 116 110zM289 719l-7 -29c-46 12 -80 -24 -75 -79c34 11 60 -11 59 -40c0 -24 -17 -43 -42 -43c-31 0 -51 27 -51 81c0 82 48 127 116 110z" />
    <glyph glyph-name="quotedblright" unicode="&#x201d;" horiz-adv-x="327" 
d="M38 532l8 29c45 -12 79 24 74 79c-34 -11 -59 11 -59 40c0 24 18 43 43 43c30 0 50 -27 50 -81c0 -82 -47 -127 -116 -110zM173 532l8 29c46 -12 80 24 75 79c-34 -11 -60 11 -59 40c0 24 17 43 42 43c31 0 50 -27 50 -81c0 -82 -47 -127 -116 -110z" />
    <glyph glyph-name="quotedblbase" unicode="&#x201e;" horiz-adv-x="327" 
d="M38 -115l8 29c45 -12 79 24 74 79c-34 -11 -59 11 -59 40c0 24 18 43 43 43c30 0 50 -27 50 -81c0 -82 -47 -127 -116 -110zM173 -115l8 29c46 -12 80 24 75 79c-34 -11 -60 11 -59 40c0 24 17 43 42 43c31 0 50 -27 50 -81c0 -82 -47 -127 -116 -110z" />
    <glyph glyph-name="parenleft" unicode="(" horiz-adv-x="228" 
d="M198 -190c-94 98 -160 290 -160 466c-1 177 65 369 160 468l25 -22c-91 -104 -152 -282 -151 -448c0 -163 60 -339 150 -441z" />
    <glyph glyph-name="parenright" unicode=")" horiz-adv-x="228" 
d="M31 -190l-25 23c93 106 150 278 150 441c1 166 -56 339 -151 448l26 22c99 -103 160 -291 159 -468c0 -176 -61 -364 -159 -466z" />
    <glyph glyph-name="bracketleft" unicode="[" horiz-adv-x="229" 
d="M55 -190v933h168v-35h-133v-864h133v-34h-168z" />
    <glyph glyph-name="bracketright" unicode="]" horiz-adv-x="228" 
d="M173 -190h-168v34h133v864h-133v35h168v-933z" />
    <glyph glyph-name="braceleft" unicode="{" horiz-adv-x="294" 
d="M199 -190c-51 0 -84 37 -84 94v269c0 46 -25 74 -63 77l-14 1v52l14 1c38 3 63 31 63 78v266c0 57 33 95 84 95h89v-35h-89c-31 0 -50 -23 -50 -60v-270c0 -56 -29 -95 -74 -99v-2c45 -5 74 -44 74 -100v-273c0 -36 19 -60 50 -60h89v-34h-89z" />
    <glyph glyph-name="braceright" unicode="}" horiz-adv-x="293" 
d="M95 -190h-90v34h89c31 0 50 24 50 60v273c0 56 29 95 75 100v2c-46 4 -75 43 -75 99v270c0 37 -19 60 -50 60h-89v35h89c51 0 85 -38 85 -95v-266c0 -47 24 -75 63 -78l14 -1v-52l-14 -1c-39 -3 -63 -31 -63 -77v-269c0 -57 -34 -94 -84 -94z" />
    <glyph glyph-name="slash" unicode="/" horiz-adv-x="442" 
d="M36 -240l-31 13l399 941l32 -14z" />
    <glyph glyph-name="bar" unicode="|" horiz-adv-x="144" 
d="M55 -230v963h34v-963h-34z" />
    <glyph glyph-name="backslash" unicode="\" horiz-adv-x="442" 
d="M405 -240l-400 940l32 14l400 -941z" />
    <glyph glyph-name="guillemotleft" unicode="&#xab;" horiz-adv-x="555" 
d="M291 -10l-261 261l260 262l25 -24l-237 -238l236 -237zM500 -10l-260 261l260 262l25 -24l-237 -238l236 -237z" />
    <glyph glyph-name="guillemotright" unicode="&#xbb;" horiz-adv-x="555" 
d="M54 -10l-23 24l236 237l-237 238l25 24l260 -262zM264 -10l-23 24l236 237l-237 238l25 24l260 -262z" />
    <glyph glyph-name="guilsinglleft" unicode="&#x2039;" horiz-adv-x="345" 
d="M291 -10l-261 261l260 262l25 -24l-237 -238l236 -237z" />
    <glyph glyph-name="guilsinglright" unicode="&#x203a;" horiz-adv-x="345" 
d="M54 -10l-23 24l236 237l-237 238l25 24l260 -262z" />
    <glyph glyph-name="asterisk" unicode="*" horiz-adv-x="469" 
d="M218 264v150c0 22 -14 31 -34 19l-129 -75l-17 30l129 75c19 12 19 27 0 39l-129 74l17 30l129 -75c20 -11 34 -2 34 20v149h34v-149c0 -22 14 -31 33 -20l130 75l17 -30l-130 -74c-19 -12 -19 -27 0 -39l130 -75l-17 -30l-130 75c-19 12 -33 3 -33 -19v-150h-34z" />
    <glyph glyph-name="numbersign" unicode="#" horiz-adv-x="903" 
d="M237 -10l-33 9l66 245h-240v34h249l54 202h-253v34h262l60 222l33 -8l-57 -214h204l59 222l33 -9l-57 -213h255l1 -34h-265l-54 -202h269l-1 -34h-277l-67 -254l-33 8l65 246h-205zM314 278h205l53 202h-204z" />
    <glyph glyph-name="colon.case" horiz-adv-x="164" 
d="M82 493c-26 0 -44 18 -44 44s18 44 44 44s44 -18 44 -44c0 -25 -18 -44 -44 -44zM82 80c-26 0 -44 18 -44 44c0 25 18 44 44 44s44 -19 44 -44s-18 -44 -44 -44z" />
    <glyph glyph-name="semicolon.case" horiz-adv-x="192" 
d="M105 493c-26 0 -44 18 -44 44s18 44 44 44s45 -18 45 -44c0 -25 -19 -44 -45 -44zM38 -24l8 29c45 -12 79 24 74 79c-34 -10 -59 11 -59 40c0 25 18 43 43 43c30 0 50 -27 50 -80c0 -83 -47 -127 -116 -111z" />
    <glyph glyph-name="exclamdown.case" horiz-adv-x="229" 
d="M115 714c26 0 44 -18 44 -44c0 -25 -18 -44 -44 -44c-27 0 -45 19 -45 44s18 44 45 44zM135 532l9 -338v-194h-59v194l9 338h41z" />
    <glyph glyph-name="questiondown.case" horiz-adv-x="585" 
d="M303 714c26 0 44 -18 44 -44c0 -25 -18 -44 -44 -44s-44 19 -44 44s18 44 44 44zM331 532c0 -103 -41 -149 -123 -194l-42 -23c-55 -30 -97 -67 -97 -129c0 -91 91 -158 209 -158c125 0 209 72 230 178l53 -22c-25 -124 -134 -209 -286 -209s-265 89 -265 211
c0 81 48 127 121 167l43 24c73 40 101 73 101 155h56z" />
    <glyph glyph-name="slash.case" horiz-adv-x="442" 
d="M34 -60l-29 17l401 801l30 -16z" />
    <glyph glyph-name="backslash.case" horiz-adv-x="442" 
d="M407 -60l-402 802l30 16l401 -801z" />
    <glyph glyph-name="parenleft.case" horiz-adv-x="228" 
d="M198 -120c-94 98 -160 290 -160 466c-1 177 65 369 160 468l25 -22c-91 -104 -152 -282 -151 -448c0 -163 60 -339 150 -441z" />
    <glyph glyph-name="parenright.case" horiz-adv-x="228" 
d="M30 -120l-24 23c90 102 150 278 150 441c1 166 -60 344 -151 448l25 22c95 -99 161 -291 160 -468c0 -176 -66 -368 -160 -466z" />
    <glyph glyph-name="braceleft.case" horiz-adv-x="294" 
d="M199 -120c-51 0 -84 37 -84 94v269c0 46 -25 74 -63 77l-14 1v52l14 1c38 3 63 31 63 78v266c0 57 33 95 84 95h89v-35h-89c-31 0 -50 -23 -50 -60v-270c0 -56 -29 -95 -74 -99v-2c45 -5 74 -44 74 -100v-273c0 -36 19 -60 50 -60h89v-34h-89z" />
    <glyph glyph-name="braceright.case" horiz-adv-x="293" 
d="M95 -120h-90v34h89c31 0 50 24 50 60v273c0 56 29 95 75 100v2c-46 4 -75 43 -75 99v270c0 37 -19 60 -50 60h-89v35h89c51 0 85 -38 85 -95v-266c0 -47 24 -75 63 -78l14 -1v-52l-14 -1c-39 -3 -63 -31 -63 -77v-269c0 -57 -34 -94 -84 -94z" />
    <glyph glyph-name="bracketleft.case" horiz-adv-x="229" 
d="M55 -120v933h168v-35h-133v-864h133v-34h-168z" />
    <glyph glyph-name="bracketright.case" horiz-adv-x="228" 
d="M173 -120h-168v34h133v864h-133v35h168v-933z" />
    <glyph glyph-name="hyphen.case" horiz-adv-x="544" 
d="M53 342v52h438v-52h-438z" />
    <glyph glyph-name="endash.case" horiz-adv-x="757" 
d="M53 350v34h651v-34h-651z" />
    <glyph glyph-name="emdash.case" horiz-adv-x="1111" 
d="M53 350v34h1005v-34h-1005z" />
    <glyph glyph-name="guillemotleft.case" horiz-adv-x="555" 
d="M291 90l-261 261l260 262l25 -24l-237 -238l236 -237zM500 90l-260 261l260 262l25 -24l-237 -238l236 -237z" />
    <glyph glyph-name="guillemotright.case" horiz-adv-x="555" 
d="M55 613l260 -261l-260 -262l-25 24l237 238l-236 237zM264 613l261 -261l-260 -262l-25 24l237 238l-236 237z" />
    <glyph glyph-name="guilsinglleft.case" horiz-adv-x="345" 
d="M291 90l-261 261l260 262l25 -24l-237 -238l236 -237z" />
    <glyph glyph-name="guilsinglright.case" horiz-adv-x="345" 
d="M54 613l261 -261l-260 -262l-25 24l237 238l-236 237z" />
    <glyph glyph-name="plus" unicode="+" horiz-adv-x="676" 
d="M309 140v203h-256v50h256v187h57v-187h257v-50h-258v-203h-56z" />
    <glyph glyph-name="minus" unicode="&#x2212;" horiz-adv-x="616" 
d="M53 347v51h510v-51h-510z" />
    <glyph glyph-name="plusminus" unicode="&#xb1;" horiz-adv-x="664" 
d="M303 272l1 137h-251v53h250v126h57v-126h251v-53h-251v-137h-57zM53 150v34h558v-34h-558z" />
    <glyph glyph-name="multiply" unicode="&#xd7;" horiz-adv-x="482" 
d="M86 217l-33 38l145 110l-145 110l33 38l154 -115l155 115l34 -38l-145 -110l145 -110l-34 -38l-155 115z" />
    <glyph glyph-name="divide" unicode="&#xf7;" horiz-adv-x="656" 
d="M327 507c-26 0 -44 18 -44 44s18 44 44 44s45 -18 45 -44s-19 -44 -45 -44zM53 345v34h550v-34h-550zM327 130c-26 0 -44 18 -44 44s18 44 44 44s45 -18 45 -44s-19 -44 -45 -44z" />
    <glyph glyph-name="less" unicode="&#x3c;" horiz-adv-x="578" 
d="M505 100l-452 206v70l452 206l20 -47l-429 -194l429 -193z" />
    <glyph glyph-name="greater" unicode="&#x3e;" horiz-adv-x="578" 
d="M73 582l452 -206v-70l-452 -206l-20 48l429 193l-429 194z" />
    <glyph glyph-name="lessequal" unicode="&#x2264;" horiz-adv-x="553" 
d="M484 205l-431 159v73l431 159l16 -51l-400 -144l399 -146zM53 103v34h447v-34h-447z" />
    <glyph glyph-name="greaterequal" unicode="&#x2265;" horiz-adv-x="553" 
d="M68 205l-15 50l400 146l-400 144l16 51l431 -159v-73zM500 103h-447v34h447v-34z" />
    <glyph glyph-name="equal" unicode="=" horiz-adv-x="676" 
d="M53 412v52h570v-52h-570zM53 233v51h570v-51h-570z" />
    <glyph glyph-name="notequal" unicode="&#x2260;" horiz-adv-x="676" 
d="M623 412h-228l-61 -128h289v-51h-312l-115 -244l-31 13l108 231h-220v51h244l60 128h-304v52h329l106 227l31 -14l-100 -213h204v-52z" />
    <glyph glyph-name="logicalnot" unicode="&#xac;" horiz-adv-x="729" 
d="M625 170v227h-572v50h623v-277h-51z" />
    <glyph glyph-name="degree" unicode="&#xb0;" horiz-adv-x="460" 
d="M230 336c-116 0 -201 84 -200 199c0 117 85 201 200 201c116 0 200 -84 200 -201c0 -116 -84 -199 -200 -199zM231 370c95 0 165 70 165 165c0 97 -70 167 -165 167c-97 0 -167 -70 -167 -167c0 -95 71 -165 167 -165z" />
    <glyph glyph-name="percent" unicode="%" horiz-adv-x="967" 
d="M247 -10l-29 19l509 734l28 -19zM230 338c-116 0 -200 84 -200 200s84 200 200 200c115 0 199 -84 199 -200s-84 -200 -199 -200zM231 390c85 0 147 62 147 148s-62 149 -147 149c-88 0 -150 -63 -150 -149s63 -148 150 -148zM738 -12c-116 0 -200 84 -200 200
c1 116 85 200 200 200s199 -84 199 -200s-83 -200 -199 -200zM739 40c85 0 148 62 148 148s-63 149 -148 149c-87 0 -150 -63 -150 -149s63 -148 150 -148z" />
    <glyph glyph-name="perthousand" unicode="&#x2030;" horiz-adv-x="1458" 
d="M247 -10l-29 19l509 734l28 -19zM230 338c-116 0 -200 84 -200 200s84 200 200 200c115 0 199 -84 199 -200s-84 -200 -199 -200zM231 390c85 0 147 62 147 148s-62 149 -147 149c-88 0 -150 -63 -150 -149s63 -148 150 -148zM738 -12c-116 0 -200 84 -200 200
c1 116 85 200 200 200s199 -84 199 -200s-83 -200 -199 -200zM1229 -12c-116 0 -200 84 -200 200s85 200 200 200s199 -84 199 -200s-83 -200 -199 -200zM739 40c85 0 148 62 148 148s-63 149 -148 149c-87 0 -150 -63 -150 -149s63 -148 150 -148zM1230 40
c86 0 148 62 148 148s-62 149 -148 149c-87 0 -150 -63 -150 -149s63 -148 150 -148z" />
    <glyph glyph-name="currency" unicode="&#xa4;" horiz-adv-x="689" 
d="M55 -50l-25 23l111 111c-36 44 -56 101 -56 166s20 122 56 166l-110 110l24 24l108 -108c46 43 109 68 182 68s136 -25 182 -68l108 108l24 -24l-108 -110c34 -44 54 -102 54 -166s-20 -122 -54 -166l108 -110l-24 -24l-108 108c-46 -43 -109 -68 -182 -68
s-136 25 -182 68zM345 46c118 0 205 86 205 204s-86 204 -205 204s-204 -86 -204 -204s86 -204 204 -204z" />
    <glyph glyph-name="dollar" unicode="$" horiz-adv-x="699" 
d="M446 377c159 -29 232 -89 233 -188c0 -128 -118 -214 -298 -214h-13v-105h-35v107c-163 15 -284 108 -313 239l54 20c20 -111 121 -189 259 -204v308l-61 12c-139 26 -203 79 -203 170c0 125 106 206 264 206v92h35v-94c124 -11 222 -80 254 -180l-51 -24
c-26 82 -104 139 -203 150v-280zM286 407l47 -9v276c-123 0 -205 -59 -205 -146c0 -64 48 -100 158 -121zM382 29c145 0 238 63 238 154c0 71 -57 113 -187 138l-65 13v-305h14z" />
    <glyph glyph-name="cent" unicode="&#xa2;" horiz-adv-x="674" 
d="M654 182c-35 -116 -164 -201 -311 -202v-110h-34v111c-163 13 -279 121 -279 270c0 154 115 265 279 272v117h34v-117c121 -6 223 -72 254 -166l-52 -16c-27 75 -107 125 -202 131v-442c123 0 231 70 258 168zM85 251c0 -119 94 -206 224 -219v439
c-131 -7 -224 -96 -224 -220z" />
    <glyph glyph-name="Euro" unicode="&#x20ac;" horiz-adv-x="966" 
d="M883 277l55 -16c-40 -175 -191 -286 -389 -286c-228 0 -382 118 -411 308h-108v34h104c-1 11 -1 22 -1 34c0 14 1 28 2 42h-105v34h109c30 186 172 301 383 301c169 0 304 -97 347 -248l-55 -16c-34 128 -148 210 -292 210c-176 0 -294 -94 -323 -247h486v-34h-491
c-1 -14 -2 -28 -2 -42c0 -12 0 -23 1 -34h491v-34h-486c29 -157 159 -254 351 -254c170 0 300 96 334 248z" />
    <glyph glyph-name="sterling" unicode="&#xa3;" horiz-adv-x="644" 
d="M30 0v62c62 20 110 77 110 273h-100v34h100v157c0 117 90 202 227 202c140 0 235 -89 245 -211l-54 -9c-6 97 -81 168 -192 168c-103 0 -169 -62 -169 -150v-157h364v-34h-364c-3 -182 -46 -254 -104 -282v-1h520v-52h-583z" />
    <glyph glyph-name="yen" unicode="&#xa5;" horiz-adv-x="701" 
d="M321 0l1 152h-299v34h299l-1 55h-298v35h287l-306 427h71l276 -389l274 389h71l-305 -427h288v-35h-299l1 -55h298v-34h-298l-1 -152h-59z" />
    <glyph glyph-name="lira" unicode="&#x20a4;" horiz-adv-x="645" 
d="M30 0v58c64 19 110 103 110 210h-101v34h101v61h-101v34h101v128c0 117 92 202 228 202c137 0 236 -87 247 -209l-54 -9c-9 97 -84 168 -192 168c-103 0 -172 -64 -173 -152l1 -128h364v-34h-365v-61h365v-34h-365c0 -100 -44 -187 -104 -217v-1h521v-50h-583z" />
    <glyph glyph-name="copyright" unicode="&#xa9;" horiz-adv-x="938" 
d="M469 -22c-251 0 -431 159 -431 378c0 217 182 379 431 379s431 -159 431 -379s-181 -378 -431 -378zM470 12c229 0 396 144 396 344c0 196 -167 345 -396 345c-232 0 -398 -149 -398 -345c0 -200 167 -344 398 -344zM472 83c-181 0 -308 110 -308 271s121 272 295 272
c132 0 239 -69 272 -172l-53 -15c-27 82 -113 136 -217 136c-142 0 -242 -89 -242 -221c-1 -132 107 -221 255 -221c127 0 233 69 261 170l52 -15c-34 -121 -163 -205 -315 -205z" />
    <glyph glyph-name="registered" unicode="&#xae;" horiz-adv-x="938" 
d="M469 -22c-254 0 -431 156 -431 377c0 220 178 377 431 377s431 -156 431 -377c0 -222 -178 -377 -431 -377zM470 12c232 0 396 142 396 342s-164 344 -396 344c-235 0 -398 -144 -398 -344s164 -342 398 -342zM263 106v505h276c106 0 172 -56 172 -143
c0 -78 -54 -131 -143 -140l132 -222h-62l-126 220h-194v-220h-55zM318 375h218c72 0 120 37 120 93c0 57 -48 94 -120 94h-218v-187z" />
    <glyph glyph-name="at" unicode="@" horiz-adv-x="1025" 
d="M516 -181c-300 0 -479 171 -478 420c0 247 189 426 489 426c280 0 460 -162 460 -430c0 -192 -70 -255 -151 -255c-61 0 -103 38 -106 104l-1 25h-1c-40 -78 -149 -130 -276 -130c-142 0 -227 53 -227 144c0 83 71 143 270 164l202 20c22 2 33 13 33 32
c0 83 -85 132 -201 132c-117 0 -221 -58 -245 -129l-43 28c30 84 151 153 288 153c144 0 256 -68 256 -189v-247c0 -44 21 -68 62 -68c53 0 106 57 106 216c0 249 -166 396 -425 396c-283 0 -456 -165 -456 -393s165 -384 447 -384c92 0 172 19 240 56l14 -30
c-74 -40 -159 -61 -257 -61zM457 30c157 0 272 81 272 194v37l-230 -22c-163 -17 -219 -59 -219 -114c0 -60 64 -95 177 -95z" />
    <glyph glyph-name="at.case" horiz-adv-x="1025" 
d="M516 -72c-300 0 -479 171 -478 419c0 248 189 427 489 427c280 0 460 -162 460 -430c0 -192 -70 -255 -151 -255c-61 0 -103 38 -106 103l-1 26h-1c-40 -78 -149 -130 -276 -130c-142 0 -227 53 -227 143c0 84 71 144 270 165l202 19c22 2 33 14 33 33
c0 82 -85 132 -201 132c-117 0 -221 -58 -245 -129l-43 28c30 84 151 152 288 152c144 0 256 -68 256 -189v-246c0 -45 21 -69 62 -69c53 0 106 57 106 217c0 249 -166 395 -425 395c-283 0 -456 -164 -456 -392s165 -385 447 -385c92 0 172 20 240 57l14 -30
c-74 -40 -159 -61 -257 -61zM457 139c157 0 272 80 272 194v37l-230 -22c-163 -17 -219 -59 -219 -114c0 -61 64 -95 177 -95z" />
    <glyph glyph-name="trademark" unicode="&#x2122;" horiz-adv-x="1092" 
d="M187 280v376h-179v47h409v-47h-180v-376h-50zM463 280l-1 423h76l212 -371l211 371h76v-423h-50v369l-210 -369h-54l-210 369v-369h-50z" />
    <glyph glyph-name="section" unicode="&#xa7;" horiz-adv-x="600" 
d="M323 -20c-152 0 -264 77 -285 179l50 18c15 -83 111 -146 237 -146c101 0 183 40 183 104c0 42 -38 69 -104 80l-178 30c-100 17 -163 52 -163 129c1 49 29 87 73 112c-27 20 -43 47 -43 87c0 89 84 151 198 151c104 0 192 -56 219 -133l-49 -23c-20 61 -87 106 -169 106
c-83 0 -145 -44 -145 -99c0 -40 32 -62 83 -71l151 -27c105 -18 176 -58 176 -140c0 -42 -18 -77 -54 -103c36 -21 59 -51 59 -97c0 -98 -106 -157 -239 -157zM447 258c36 18 56 45 56 75c0 47 -43 78 -128 93l-189 34c-41 -17 -68 -46 -69 -81c0 -44 37 -72 114 -85z" />
    <glyph glyph-name="paragraph" unicode="&#xb6;" horiz-adv-x="681" 
d="M251 -226v558c-134 0 -221 74 -221 185s89 186 221 186h400v-47h-122v-882h-52v882h-174v-882h-52z" />
    <glyph glyph-name="asciicircum" unicode="^" horiz-adv-x="595" 
d="M70 400l-40 29l235 274h66l234 -274l-40 -29l-227 261z" />
    <glyph glyph-name="asciitilde" unicode="~" horiz-adv-x="677" 
d="M620 326l27 -34c-34 -39 -94 -61 -146 -61c-56 0 -106 26 -156 55c-54 30 -108 62 -163 62c-44 0 -93 -23 -125 -55l-27 35c37 41 103 68 160 68c65 0 124 -36 182 -69c46 -25 90 -48 136 -48c41 0 83 18 112 47z" />
    <glyph glyph-name="grave" unicode="`" horiz-adv-x="264" 
d="M201 596l-161 139l23 25l160 -139z" />
    <glyph glyph-name="acute" unicode="&#xb4;" horiz-adv-x="264" 
d="M63 596l-23 25l160 139l23 -25z" />
    <glyph glyph-name="dieresis" unicode="&#xa8;" horiz-adv-x="433" 
d="M84 607c-26 0 -44 18 -44 44c0 25 18 43 44 43c27 0 45 -18 45 -43c0 -26 -18 -44 -45 -44zM349 607c-26 0 -44 18 -44 44c0 25 18 43 44 43s44 -18 44 -43c0 -26 -18 -44 -44 -44z" />
    <glyph glyph-name="macron" unicode="&#xaf;" horiz-adv-x="453" 
d="M38 594v35h378v-35h-378z" />
    <glyph glyph-name="cedilla" unicode="&#xb8;" horiz-adv-x="266" 
d="M136 -208c-40 0 -80 24 -95 57l28 19c10 -24 37 -42 66 -42c33 0 57 15 57 44c0 31 -27 48 -65 48h-35l10 84h34l-6 -51c57 -2 97 -30 97 -80c0 -48 -39 -79 -91 -79z" />
    <glyph glyph-name="circumflex" unicode="&#x2c6;" horiz-adv-x="518" 
d="M59 593l-19 28l193 123h51l194 -123l-19 -28l-200 127z" />
    <glyph glyph-name="caron" unicode="&#x2c7;" horiz-adv-x="518" 
d="M233 606l-193 123l19 28l200 -127l200 127l19 -28l-194 -123h-51z" />
    <glyph glyph-name="breve" unicode="&#x2d8;" horiz-adv-x="483" 
d="M242 596c-117 0 -201 62 -202 148h35c0 -66 70 -114 166 -114c98 0 169 48 168 114h34c1 -86 -84 -148 -201 -148z" />
    <glyph glyph-name="dotaccent" unicode="&#x2d9;" horiz-adv-x="169" 
d="M84 606c-26 0 -44 19 -44 44c0 26 18 44 44 44s45 -18 45 -44c0 -25 -19 -44 -45 -44z" />
    <glyph glyph-name="uniF6C3" unicode="&#xf6c3;" horiz-adv-x="0" 
d="M-140 -240l6 29c40 -8 65 12 60 53c-26 -8 -53 12 -53 39c0 20 16 36 38 36c29 0 49 -28 49 -74c0 -66 -41 -95 -100 -83z" />
    <glyph glyph-name="ring" unicode="&#x2da;" horiz-adv-x="259" 
d="M130 596c-52 0 -89 37 -89 89c-1 52 37 89 89 89s89 -37 89 -89s-37 -89 -89 -89zM129 628c33 0 56 24 56 57s-23 57 -56 57c-32 0 -56 -24 -56 -57s24 -57 56 -57z" />
    <glyph glyph-name="ogonek" unicode="&#x2db;" horiz-adv-x="306" 
d="M137 -208c-53 0 -88 29 -89 74c-1 65 77 108 198 158l21 -24c-112 -48 -184 -80 -183 -132c0 -25 21 -42 54 -42c29 0 63 18 83 47l22 -27c-25 -33 -68 -54 -106 -54z" />
    <glyph glyph-name="tilde" unicode="&#x2dc;" horiz-adv-x="499" 
d="M343 590c-48 0 -77 29 -104 57c-25 27 -49 53 -87 53c-48 0 -79 -43 -79 -100h-33c0 77 47 133 114 133c50 0 79 -32 107 -61c24 -25 47 -49 83 -49c49 0 82 43 82 101h33c0 -78 -49 -134 -116 -134z" />
    <glyph glyph-name="hungarumlaut" unicode="&#x2dd;" horiz-adv-x="459" 
d="M63 596l-23 25l160 139l23 -25zM258 596l-22 25l160 139l23 -25z" />
    <glyph glyph-name="acute.case" horiz-adv-x="239" 
d="M63 777l-22 25l135 119l23 -25z" />
    <glyph glyph-name="breve.case" horiz-adv-x="419" 
d="M210 790c-98 0 -169 48 -170 124h35c0 -56 57 -90 134 -90c79 0 136 34 136 90h34c0 -75 -71 -124 -169 -124z" />
    <glyph glyph-name="caron.case" horiz-adv-x="453" 
d="M201 790l-161 103l20 28l166 -107l168 107l19 -28l-161 -103h-51z" />
    <glyph glyph-name="caron.alt1" horiz-adv-x="182" 
d="M42 560l6 28c40 -8 65 13 60 54c-26 -8 -53 11 -53 38c0 21 16 37 38 37c29 0 49 -28 49 -74c0 -67 -41 -96 -100 -83z" />
    <glyph glyph-name="circumflex.case" horiz-adv-x="453" 
d="M60 783l-20 28l161 103h51l161 -103l-19 -28l-168 107z" />
    <glyph glyph-name="dieresis.case" horiz-adv-x="431" 
d="M84 809c-25 0 -44 18 -44 43s19 43 44 43c26 0 45 -18 45 -43s-19 -43 -45 -43zM347 809c-25 0 -44 18 -44 43s19 43 44 43c26 0 44 -18 44 -43s-18 -43 -44 -43z" />
    <glyph glyph-name="dotaccent.case" horiz-adv-x="169" 
d="M84 809c-25 0 -44 18 -44 44c0 25 19 43 44 43c26 0 45 -18 45 -43c0 -26 -19 -44 -45 -44z" />
    <glyph glyph-name="grave.case" horiz-adv-x="239" 
d="M176 777l-136 119l23 25l135 -119z" />
    <glyph glyph-name="hungarumlaut.case" horiz-adv-x="434" 
d="M63 777l-22 25l135 119l23 -25zM258 777l-23 25l136 119l23 -25z" />
    <glyph glyph-name="ring.case" horiz-adv-x="259" 
d="M130 786c-52 0 -89 37 -89 89c-1 52 37 89 89 89s89 -37 89 -89s-37 -89 -89 -89zM129 818c33 0 56 24 56 57s-23 57 -56 57c-32 0 -56 -24 -56 -57s24 -57 56 -57z" />
    <glyph glyph-name="tilde.case" horiz-adv-x="499" 
d="M343 780c-49 0 -79 31 -106 60c-25 26 -49 50 -85 50c-48 0 -79 -43 -79 -100h-33c0 77 47 133 114 133c50 0 79 -31 107 -60c24 -26 47 -50 83 -50c49 0 82 43 82 101h33c0 -78 -49 -134 -116 -134z" />
    <glyph glyph-name="arrowup" unicode="&#x2191;" horiz-adv-x="533" 
d="M38 296l229 220l229 -220l-24 -25l-188 181v-452h-35v452l-188 -181z" />
    <glyph glyph-name="uni2197" unicode="&#x2197;" horiz-adv-x="476" 
d="M97 447l318 -6l6 -318l-34 -1l-5 261l-320 -319l-24 24l319 320l-260 5v34z" />
    <glyph glyph-name="arrowright" unicode="&#x2192;" horiz-adv-x="591" 
d="M334 32l-25 24l181 188h-452v34h452l-181 188l25 24l220 -229z" />
    <glyph glyph-name="uni2198" unicode="&#x2198;" horiz-adv-x="476" 
d="M421 396l-6 -318l-318 -6l-1 34l261 5l-319 320l24 24l319 -319l5 260h35z" />
    <glyph glyph-name="arrowdown" unicode="&#x2193;" horiz-adv-x="533" 
d="M38 206l23 25l188 -180v452h35v-452l188 180l24 -25l-229 -220z" />
    <glyph glyph-name="uni2199" unicode="&#x2199;" horiz-adv-x="476" 
d="M55 396h35l5 -260l319 319l25 -24l-320 -320l261 -5l-1 -34l-317 6z" />
    <glyph glyph-name="arrowleft" unicode="&#x2190;" horiz-adv-x="591" 
d="M258 32l-220 229l220 229l24 -24l-180 -188h452v-34h-452l180 -188z" />
    <glyph glyph-name="uni2196" unicode="&#x2196;" horiz-adv-x="476" 
d="M379 447l1 -34l-261 -5l320 -320l-25 -24l-319 319l-6 -261l-34 1l6 318z" />
    <glyph glyph-name="arrowboth" unicode="&#x2194;" horiz-adv-x="919" 
d="M662 490l220 -229l-220 -229l-25 24l181 188h-716l180 -188l-24 -24l-220 229l220 229l24 -24l-180 -188h716l-181 188z" />
    <glyph glyph-name="arrowupdn" unicode="&#x2195;" horiz-adv-x="533" 
d="M284 -79l188 180l24 -25l-229 -220l-229 220l23 25l188 -180v661l-188 -181l-23 25l229 220l229 -220l-24 -25l-188 181v-661z" />
    <glyph glyph-name="arrowup.case" horiz-adv-x="533" 
d="M38 392l229 220l229 -220l-24 -25l-188 181v-452h-35v452l-188 -181z" />
    <glyph glyph-name="uni2197.case" horiz-adv-x="476" 
d="M97 543l318 -6l6 -318l-34 -1l-5 261l-320 -319l-24 24l319 319l-260 5v35z" />
    <glyph glyph-name="arrowright.case" horiz-adv-x="591" 
d="M334 132l-25 24l181 188h-452v34h452l-181 188l25 24l220 -229z" />
    <glyph glyph-name="uni2198.case" horiz-adv-x="476" 
d="M421 491l-6 -317l-318 -6l-1 34l261 5l-319 320l24 24l319 -320l5 261z" />
    <glyph glyph-name="arrowdown.case" horiz-adv-x="533" 
d="M38 305l23 25l188 -181v452h35v-452l188 181l24 -25l-229 -220z" />
    <glyph glyph-name="uni2199.case" horiz-adv-x="476" 
d="M55 496h35l5 -260l319 319l25 -24l-320 -320l261 -5l-1 -34l-317 6z" />
    <glyph glyph-name="arrowleft.case" horiz-adv-x="591" 
d="M258 132l-220 229l220 229l24 -24l-180 -188h452v-34h-452l180 -188z" />
    <glyph glyph-name="uni2196.case" horiz-adv-x="476" 
d="M379 547l1 -34l-261 -5l320 -320l-25 -24l-319 319l-6 -261l-34 1l6 318z" />
    <glyph glyph-name="arrowboth.case" horiz-adv-x="919" 
d="M662 590l220 -229l-220 -229l-25 24l181 188h-716l180 -188l-24 -24l-220 229l220 229l24 -24l-180 -188h716l-181 188z" />
    <glyph glyph-name="arrowupdn.case" horiz-adv-x="533" 
d="M284 21l188 180l24 -25l-229 -220l-229 220l23 25l188 -180v661l-188 -181l-23 25l229 220l229 -220l-24 -25l-188 181v-661z" />
    </font>
</defs>
</svg>
